G04 MADE WITH FRITZING*
G04 WWW.FRITZING.ORG*
G04 DOUBLE SIDED*
G04 HOLES PLATED*
G04 CONTOUR ON CENTER OF CONTOUR VECTOR*
%ASAXBY*%
%FSLAX23Y23*%
%MOIN*%
%OFA0B0*%
%SFA1.0B1.0*%
%ADD10C,0.010000*%
%ADD11C,0.005000*%
%ADD12C,0.008000*%
%ADD13R,0.001000X0.001000*%
%LNSILK1*%
G90*
G70*
G54D10*
X2704Y1202D02*
X2704Y1123D01*
D02*
X2507Y1281D02*
X2674Y1281D01*
D02*
X2507Y1045D02*
X2674Y1045D01*
D02*
X2468Y1202D02*
X2468Y1123D01*
D02*
X2586Y1183D02*
X2586Y1143D01*
D02*
X2605Y1163D02*
X2566Y1163D01*
D02*
X1647Y742D02*
X1647Y542D01*
D02*
X1647Y542D02*
X1581Y542D01*
D02*
X1581Y542D02*
X1581Y742D01*
D02*
X1581Y742D02*
X1647Y742D01*
G54D11*
D02*
X2044Y758D02*
X2044Y345D01*
D02*
X2044Y345D02*
X1433Y345D01*
D02*
X1433Y345D02*
X1433Y758D01*
D02*
X1433Y758D02*
X2044Y758D01*
D02*
X105Y701D02*
X69Y701D01*
D02*
X69Y701D02*
X69Y402D01*
D02*
X69Y402D02*
X105Y402D01*
D02*
X1141Y677D02*
X1141Y807D01*
D02*
X1141Y807D02*
X928Y807D01*
D02*
X928Y807D02*
X928Y677D01*
D02*
X1141Y425D02*
X1141Y296D01*
D02*
X1141Y296D02*
X928Y296D01*
D02*
X928Y296D02*
X928Y425D01*
G54D12*
D02*
X400Y980D02*
X577Y980D01*
D02*
X646Y842D02*
X646Y684D01*
D02*
X646Y684D02*
X613Y684D01*
D02*
X613Y684D02*
X613Y783D01*
D02*
X613Y783D02*
X557Y783D01*
D02*
X420Y783D02*
X365Y783D01*
D02*
X365Y783D02*
X365Y684D01*
D02*
X365Y684D02*
X331Y684D01*
D02*
X331Y684D02*
X331Y842D01*
D02*
X50Y353D02*
X64Y353D01*
D02*
X50Y750D02*
X64Y750D01*
D02*
X50Y353D02*
X50Y750D01*
G54D11*
X877Y808D02*
X916Y788D01*
X877Y769D01*
X877Y808D01*
X879Y807D02*
X879Y770D01*
X879Y807D01*
X884Y804D02*
X884Y772D01*
X884Y804D01*
X889Y802D02*
X889Y775D01*
X889Y802D01*
X894Y799D02*
X894Y777D01*
X894Y799D01*
X899Y797D02*
X899Y780D01*
X899Y797D01*
X904Y794D02*
X904Y782D01*
X904Y794D01*
X909Y792D02*
X909Y785D01*
X909Y792D01*
D02*
G54D13*
X0Y1406D02*
X2809Y1406D01*
X0Y1405D02*
X2809Y1405D01*
X0Y1404D02*
X2809Y1404D01*
X0Y1403D02*
X2809Y1403D01*
X0Y1402D02*
X2809Y1402D01*
X0Y1401D02*
X2809Y1401D01*
X0Y1400D02*
X2809Y1400D01*
X0Y1399D02*
X2809Y1399D01*
X0Y1398D02*
X7Y1398D01*
X2802Y1398D02*
X2809Y1398D01*
X0Y1397D02*
X7Y1397D01*
X2802Y1397D02*
X2809Y1397D01*
X0Y1396D02*
X7Y1396D01*
X2802Y1396D02*
X2809Y1396D01*
X0Y1395D02*
X7Y1395D01*
X2802Y1395D02*
X2809Y1395D01*
X0Y1394D02*
X7Y1394D01*
X2802Y1394D02*
X2809Y1394D01*
X0Y1393D02*
X7Y1393D01*
X2802Y1393D02*
X2809Y1393D01*
X0Y1392D02*
X7Y1392D01*
X2802Y1392D02*
X2809Y1392D01*
X0Y1391D02*
X7Y1391D01*
X2802Y1391D02*
X2809Y1391D01*
X0Y1390D02*
X7Y1390D01*
X2802Y1390D02*
X2809Y1390D01*
X0Y1389D02*
X7Y1389D01*
X2802Y1389D02*
X2809Y1389D01*
X0Y1388D02*
X7Y1388D01*
X2802Y1388D02*
X2809Y1388D01*
X0Y1387D02*
X7Y1387D01*
X2802Y1387D02*
X2809Y1387D01*
X0Y1386D02*
X7Y1386D01*
X2802Y1386D02*
X2809Y1386D01*
X0Y1385D02*
X7Y1385D01*
X2802Y1385D02*
X2809Y1385D01*
X0Y1384D02*
X7Y1384D01*
X2802Y1384D02*
X2809Y1384D01*
X0Y1383D02*
X7Y1383D01*
X2802Y1383D02*
X2809Y1383D01*
X0Y1382D02*
X7Y1382D01*
X2802Y1382D02*
X2809Y1382D01*
X0Y1381D02*
X7Y1381D01*
X2802Y1381D02*
X2809Y1381D01*
X0Y1380D02*
X7Y1380D01*
X2802Y1380D02*
X2809Y1380D01*
X0Y1379D02*
X7Y1379D01*
X2802Y1379D02*
X2809Y1379D01*
X0Y1378D02*
X7Y1378D01*
X2802Y1378D02*
X2809Y1378D01*
X0Y1377D02*
X7Y1377D01*
X2802Y1377D02*
X2809Y1377D01*
X0Y1376D02*
X7Y1376D01*
X2802Y1376D02*
X2809Y1376D01*
X0Y1375D02*
X7Y1375D01*
X2802Y1375D02*
X2809Y1375D01*
X0Y1374D02*
X7Y1374D01*
X2802Y1374D02*
X2809Y1374D01*
X0Y1373D02*
X7Y1373D01*
X2802Y1373D02*
X2809Y1373D01*
X0Y1372D02*
X7Y1372D01*
X2802Y1372D02*
X2809Y1372D01*
X0Y1371D02*
X7Y1371D01*
X2760Y1371D02*
X2782Y1371D01*
X0Y1370D02*
X7Y1370D01*
X2758Y1370D02*
X2784Y1370D01*
X0Y1369D02*
X7Y1369D01*
X2757Y1369D02*
X2785Y1369D01*
X0Y1368D02*
X7Y1368D01*
X2756Y1368D02*
X2786Y1368D01*
X0Y1367D02*
X7Y1367D01*
X2756Y1367D02*
X2787Y1367D01*
X0Y1366D02*
X7Y1366D01*
X2755Y1366D02*
X2788Y1366D01*
X0Y1365D02*
X7Y1365D01*
X2755Y1365D02*
X2788Y1365D01*
X0Y1364D02*
X7Y1364D01*
X2755Y1364D02*
X2761Y1364D01*
X2781Y1364D02*
X2788Y1364D01*
X2802Y1364D02*
X2809Y1364D01*
X0Y1363D02*
X7Y1363D01*
X2755Y1363D02*
X2761Y1363D01*
X2782Y1363D02*
X2788Y1363D01*
X2802Y1363D02*
X2809Y1363D01*
X0Y1362D02*
X7Y1362D01*
X2755Y1362D02*
X2762Y1362D01*
X2782Y1362D02*
X2788Y1362D01*
X2802Y1362D02*
X2809Y1362D01*
X0Y1361D02*
X7Y1361D01*
X2755Y1361D02*
X2763Y1361D01*
X2783Y1361D02*
X2788Y1361D01*
X2802Y1361D02*
X2809Y1361D01*
X0Y1360D02*
X7Y1360D01*
X2756Y1360D02*
X2763Y1360D01*
X2783Y1360D02*
X2788Y1360D01*
X2802Y1360D02*
X2809Y1360D01*
X0Y1359D02*
X7Y1359D01*
X2756Y1359D02*
X2764Y1359D01*
X2784Y1359D02*
X2786Y1359D01*
X2802Y1359D02*
X2809Y1359D01*
X0Y1358D02*
X7Y1358D01*
X2757Y1358D02*
X2765Y1358D01*
X2802Y1358D02*
X2809Y1358D01*
X0Y1357D02*
X7Y1357D01*
X2758Y1357D02*
X2766Y1357D01*
X2802Y1357D02*
X2809Y1357D01*
X0Y1356D02*
X7Y1356D01*
X2759Y1356D02*
X2767Y1356D01*
X2802Y1356D02*
X2809Y1356D01*
X0Y1355D02*
X7Y1355D01*
X2759Y1355D02*
X2767Y1355D01*
X2802Y1355D02*
X2809Y1355D01*
X0Y1354D02*
X7Y1354D01*
X2760Y1354D02*
X2768Y1354D01*
X2802Y1354D02*
X2809Y1354D01*
X0Y1353D02*
X7Y1353D01*
X2761Y1353D02*
X2769Y1353D01*
X2802Y1353D02*
X2809Y1353D01*
X0Y1352D02*
X7Y1352D01*
X2762Y1352D02*
X2770Y1352D01*
X2802Y1352D02*
X2809Y1352D01*
X0Y1351D02*
X7Y1351D01*
X2762Y1351D02*
X2770Y1351D01*
X2802Y1351D02*
X2809Y1351D01*
X0Y1350D02*
X7Y1350D01*
X2763Y1350D02*
X2771Y1350D01*
X2802Y1350D02*
X2809Y1350D01*
X0Y1349D02*
X7Y1349D01*
X2764Y1349D02*
X2772Y1349D01*
X2802Y1349D02*
X2809Y1349D01*
X0Y1348D02*
X7Y1348D01*
X2765Y1348D02*
X2773Y1348D01*
X2802Y1348D02*
X2809Y1348D01*
X0Y1347D02*
X7Y1347D01*
X2766Y1347D02*
X2774Y1347D01*
X2802Y1347D02*
X2809Y1347D01*
X0Y1346D02*
X7Y1346D01*
X2766Y1346D02*
X2774Y1346D01*
X2802Y1346D02*
X2809Y1346D01*
X0Y1345D02*
X7Y1345D01*
X2767Y1345D02*
X2775Y1345D01*
X2802Y1345D02*
X2809Y1345D01*
X0Y1344D02*
X7Y1344D01*
X2768Y1344D02*
X2776Y1344D01*
X2802Y1344D02*
X2809Y1344D01*
X0Y1343D02*
X7Y1343D01*
X2769Y1343D02*
X2777Y1343D01*
X2802Y1343D02*
X2809Y1343D01*
X0Y1342D02*
X7Y1342D01*
X2769Y1342D02*
X2777Y1342D01*
X2802Y1342D02*
X2809Y1342D01*
X0Y1341D02*
X7Y1341D01*
X2770Y1341D02*
X2778Y1341D01*
X2802Y1341D02*
X2809Y1341D01*
X0Y1340D02*
X7Y1340D01*
X2771Y1340D02*
X2779Y1340D01*
X2802Y1340D02*
X2809Y1340D01*
X0Y1339D02*
X7Y1339D01*
X2772Y1339D02*
X2780Y1339D01*
X2802Y1339D02*
X2809Y1339D01*
X0Y1338D02*
X7Y1338D01*
X2773Y1338D02*
X2781Y1338D01*
X2802Y1338D02*
X2809Y1338D01*
X0Y1337D02*
X7Y1337D01*
X2773Y1337D02*
X2781Y1337D01*
X2802Y1337D02*
X2809Y1337D01*
X0Y1336D02*
X7Y1336D01*
X2774Y1336D02*
X2782Y1336D01*
X2802Y1336D02*
X2809Y1336D01*
X0Y1335D02*
X7Y1335D01*
X2775Y1335D02*
X2783Y1335D01*
X2802Y1335D02*
X2809Y1335D01*
X0Y1334D02*
X7Y1334D01*
X2776Y1334D02*
X2784Y1334D01*
X2802Y1334D02*
X2809Y1334D01*
X0Y1333D02*
X7Y1333D01*
X2776Y1333D02*
X2784Y1333D01*
X2802Y1333D02*
X2809Y1333D01*
X0Y1332D02*
X7Y1332D01*
X2777Y1332D02*
X2785Y1332D01*
X2802Y1332D02*
X2809Y1332D01*
X0Y1331D02*
X7Y1331D01*
X2778Y1331D02*
X2786Y1331D01*
X2802Y1331D02*
X2809Y1331D01*
X0Y1330D02*
X7Y1330D01*
X2757Y1330D02*
X2759Y1330D01*
X2779Y1330D02*
X2787Y1330D01*
X2802Y1330D02*
X2809Y1330D01*
X0Y1329D02*
X7Y1329D01*
X2756Y1329D02*
X2760Y1329D01*
X2780Y1329D02*
X2787Y1329D01*
X2802Y1329D02*
X2809Y1329D01*
X0Y1328D02*
X7Y1328D01*
X2755Y1328D02*
X2761Y1328D01*
X2780Y1328D02*
X2788Y1328D01*
X2802Y1328D02*
X2809Y1328D01*
X0Y1327D02*
X7Y1327D01*
X2755Y1327D02*
X2761Y1327D01*
X2781Y1327D02*
X2788Y1327D01*
X2802Y1327D02*
X2809Y1327D01*
X0Y1326D02*
X7Y1326D01*
X2755Y1326D02*
X2761Y1326D01*
X2782Y1326D02*
X2788Y1326D01*
X2802Y1326D02*
X2809Y1326D01*
X0Y1325D02*
X7Y1325D01*
X2755Y1325D02*
X2762Y1325D01*
X2782Y1325D02*
X2788Y1325D01*
X2802Y1325D02*
X2809Y1325D01*
X0Y1324D02*
X7Y1324D01*
X2755Y1324D02*
X2788Y1324D01*
X0Y1323D02*
X7Y1323D01*
X2756Y1323D02*
X2788Y1323D01*
X0Y1322D02*
X7Y1322D01*
X2756Y1322D02*
X2788Y1322D01*
X0Y1321D02*
X7Y1321D01*
X2757Y1321D02*
X2787Y1321D01*
X0Y1320D02*
X7Y1320D01*
X2758Y1320D02*
X2786Y1320D01*
X0Y1319D02*
X7Y1319D01*
X2759Y1319D02*
X2785Y1319D01*
X0Y1318D02*
X7Y1318D01*
X2761Y1318D02*
X2783Y1318D01*
X0Y1317D02*
X7Y1317D01*
X2802Y1317D02*
X2809Y1317D01*
X0Y1316D02*
X7Y1316D01*
X2802Y1316D02*
X2809Y1316D01*
X0Y1315D02*
X7Y1315D01*
X2802Y1315D02*
X2809Y1315D01*
X0Y1314D02*
X7Y1314D01*
X2802Y1314D02*
X2809Y1314D01*
X0Y1313D02*
X7Y1313D01*
X2802Y1313D02*
X2809Y1313D01*
X0Y1312D02*
X7Y1312D01*
X2802Y1312D02*
X2809Y1312D01*
X0Y1311D02*
X7Y1311D01*
X2802Y1311D02*
X2809Y1311D01*
X0Y1310D02*
X7Y1310D01*
X2802Y1310D02*
X2809Y1310D01*
X0Y1309D02*
X7Y1309D01*
X2802Y1309D02*
X2809Y1309D01*
X0Y1308D02*
X7Y1308D01*
X2802Y1308D02*
X2809Y1308D01*
X0Y1307D02*
X7Y1307D01*
X2802Y1307D02*
X2809Y1307D01*
X0Y1306D02*
X7Y1306D01*
X2802Y1306D02*
X2809Y1306D01*
X0Y1305D02*
X7Y1305D01*
X2802Y1305D02*
X2809Y1305D01*
X0Y1304D02*
X7Y1304D01*
X2802Y1304D02*
X2809Y1304D01*
X0Y1303D02*
X7Y1303D01*
X2802Y1303D02*
X2809Y1303D01*
X0Y1302D02*
X7Y1302D01*
X2802Y1302D02*
X2809Y1302D01*
X0Y1301D02*
X7Y1301D01*
X2802Y1301D02*
X2809Y1301D01*
X0Y1300D02*
X7Y1300D01*
X2802Y1300D02*
X2809Y1300D01*
X0Y1299D02*
X7Y1299D01*
X2802Y1299D02*
X2809Y1299D01*
X0Y1298D02*
X7Y1298D01*
X2802Y1298D02*
X2809Y1298D01*
X0Y1297D02*
X7Y1297D01*
X2802Y1297D02*
X2809Y1297D01*
X0Y1296D02*
X7Y1296D01*
X2802Y1296D02*
X2809Y1296D01*
X0Y1295D02*
X7Y1295D01*
X2802Y1295D02*
X2809Y1295D01*
X0Y1294D02*
X7Y1294D01*
X2802Y1294D02*
X2809Y1294D01*
X0Y1293D02*
X7Y1293D01*
X2802Y1293D02*
X2809Y1293D01*
X0Y1292D02*
X7Y1292D01*
X2802Y1292D02*
X2809Y1292D01*
X0Y1291D02*
X7Y1291D01*
X2802Y1291D02*
X2809Y1291D01*
X0Y1290D02*
X7Y1290D01*
X2802Y1290D02*
X2809Y1290D01*
X0Y1289D02*
X7Y1289D01*
X2802Y1289D02*
X2809Y1289D01*
X0Y1288D02*
X7Y1288D01*
X2802Y1288D02*
X2809Y1288D01*
X0Y1287D02*
X7Y1287D01*
X2802Y1287D02*
X2809Y1287D01*
X0Y1286D02*
X7Y1286D01*
X2802Y1286D02*
X2809Y1286D01*
X0Y1285D02*
X7Y1285D01*
X2802Y1285D02*
X2809Y1285D01*
X0Y1284D02*
X7Y1284D01*
X2802Y1284D02*
X2809Y1284D01*
X0Y1283D02*
X7Y1283D01*
X2802Y1283D02*
X2809Y1283D01*
X0Y1282D02*
X7Y1282D01*
X2802Y1282D02*
X2809Y1282D01*
X0Y1281D02*
X7Y1281D01*
X2802Y1281D02*
X2809Y1281D01*
X0Y1280D02*
X7Y1280D01*
X2802Y1280D02*
X2809Y1280D01*
X0Y1279D02*
X7Y1279D01*
X2802Y1279D02*
X2809Y1279D01*
X0Y1278D02*
X7Y1278D01*
X2802Y1278D02*
X2809Y1278D01*
X0Y1277D02*
X7Y1277D01*
X2802Y1277D02*
X2809Y1277D01*
X0Y1276D02*
X7Y1276D01*
X2802Y1276D02*
X2809Y1276D01*
X0Y1275D02*
X7Y1275D01*
X2802Y1275D02*
X2809Y1275D01*
X0Y1274D02*
X7Y1274D01*
X2802Y1274D02*
X2809Y1274D01*
X0Y1273D02*
X7Y1273D01*
X2802Y1273D02*
X2809Y1273D01*
X0Y1272D02*
X7Y1272D01*
X2802Y1272D02*
X2809Y1272D01*
X0Y1271D02*
X7Y1271D01*
X2802Y1271D02*
X2809Y1271D01*
X0Y1270D02*
X7Y1270D01*
X2802Y1270D02*
X2809Y1270D01*
X0Y1269D02*
X7Y1269D01*
X2802Y1269D02*
X2809Y1269D01*
X0Y1268D02*
X7Y1268D01*
X2802Y1268D02*
X2809Y1268D01*
X0Y1267D02*
X7Y1267D01*
X2802Y1267D02*
X2809Y1267D01*
X0Y1266D02*
X7Y1266D01*
X2802Y1266D02*
X2809Y1266D01*
X0Y1265D02*
X7Y1265D01*
X2802Y1265D02*
X2809Y1265D01*
X0Y1264D02*
X7Y1264D01*
X2802Y1264D02*
X2809Y1264D01*
X0Y1263D02*
X7Y1263D01*
X2802Y1263D02*
X2809Y1263D01*
X0Y1262D02*
X7Y1262D01*
X2802Y1262D02*
X2809Y1262D01*
X0Y1261D02*
X7Y1261D01*
X2802Y1261D02*
X2809Y1261D01*
X0Y1260D02*
X7Y1260D01*
X2802Y1260D02*
X2809Y1260D01*
X0Y1259D02*
X7Y1259D01*
X2802Y1259D02*
X2809Y1259D01*
X0Y1258D02*
X7Y1258D01*
X2802Y1258D02*
X2809Y1258D01*
X0Y1257D02*
X7Y1257D01*
X2802Y1257D02*
X2809Y1257D01*
X0Y1256D02*
X7Y1256D01*
X2802Y1256D02*
X2809Y1256D01*
X0Y1255D02*
X7Y1255D01*
X2802Y1255D02*
X2809Y1255D01*
X0Y1254D02*
X7Y1254D01*
X2802Y1254D02*
X2809Y1254D01*
X0Y1253D02*
X7Y1253D01*
X2802Y1253D02*
X2809Y1253D01*
X0Y1252D02*
X7Y1252D01*
X2802Y1252D02*
X2809Y1252D01*
X0Y1251D02*
X7Y1251D01*
X2802Y1251D02*
X2809Y1251D01*
X0Y1250D02*
X7Y1250D01*
X2802Y1250D02*
X2809Y1250D01*
X0Y1249D02*
X7Y1249D01*
X2802Y1249D02*
X2809Y1249D01*
X0Y1248D02*
X7Y1248D01*
X2802Y1248D02*
X2809Y1248D01*
X0Y1247D02*
X7Y1247D01*
X2802Y1247D02*
X2809Y1247D01*
X0Y1246D02*
X7Y1246D01*
X2802Y1246D02*
X2809Y1246D01*
X0Y1245D02*
X7Y1245D01*
X2802Y1245D02*
X2809Y1245D01*
X0Y1244D02*
X7Y1244D01*
X2802Y1244D02*
X2809Y1244D01*
X0Y1243D02*
X7Y1243D01*
X2802Y1243D02*
X2809Y1243D01*
X0Y1242D02*
X7Y1242D01*
X2802Y1242D02*
X2809Y1242D01*
X0Y1241D02*
X7Y1241D01*
X2802Y1241D02*
X2809Y1241D01*
X0Y1240D02*
X7Y1240D01*
X2802Y1240D02*
X2809Y1240D01*
X0Y1239D02*
X7Y1239D01*
X2802Y1239D02*
X2809Y1239D01*
X0Y1238D02*
X7Y1238D01*
X2802Y1238D02*
X2809Y1238D01*
X0Y1237D02*
X7Y1237D01*
X2802Y1237D02*
X2809Y1237D01*
X0Y1236D02*
X7Y1236D01*
X2802Y1236D02*
X2809Y1236D01*
X0Y1235D02*
X7Y1235D01*
X2802Y1235D02*
X2809Y1235D01*
X0Y1234D02*
X7Y1234D01*
X2802Y1234D02*
X2809Y1234D01*
X0Y1233D02*
X7Y1233D01*
X2802Y1233D02*
X2809Y1233D01*
X0Y1232D02*
X7Y1232D01*
X2802Y1232D02*
X2809Y1232D01*
X0Y1231D02*
X7Y1231D01*
X2802Y1231D02*
X2809Y1231D01*
X0Y1230D02*
X7Y1230D01*
X2802Y1230D02*
X2809Y1230D01*
X0Y1229D02*
X7Y1229D01*
X2802Y1229D02*
X2809Y1229D01*
X0Y1228D02*
X7Y1228D01*
X2802Y1228D02*
X2809Y1228D01*
X0Y1227D02*
X7Y1227D01*
X2802Y1227D02*
X2809Y1227D01*
X0Y1226D02*
X7Y1226D01*
X2802Y1226D02*
X2809Y1226D01*
X0Y1225D02*
X7Y1225D01*
X2802Y1225D02*
X2809Y1225D01*
X0Y1224D02*
X7Y1224D01*
X2802Y1224D02*
X2809Y1224D01*
X0Y1223D02*
X7Y1223D01*
X2802Y1223D02*
X2809Y1223D01*
X0Y1222D02*
X7Y1222D01*
X2802Y1222D02*
X2809Y1222D01*
X0Y1221D02*
X7Y1221D01*
X2802Y1221D02*
X2809Y1221D01*
X0Y1220D02*
X7Y1220D01*
X2802Y1220D02*
X2809Y1220D01*
X0Y1219D02*
X7Y1219D01*
X2802Y1219D02*
X2809Y1219D01*
X0Y1218D02*
X7Y1218D01*
X2802Y1218D02*
X2809Y1218D01*
X0Y1217D02*
X7Y1217D01*
X2802Y1217D02*
X2809Y1217D01*
X0Y1216D02*
X7Y1216D01*
X2802Y1216D02*
X2809Y1216D01*
X0Y1215D02*
X7Y1215D01*
X2802Y1215D02*
X2809Y1215D01*
X0Y1214D02*
X7Y1214D01*
X2802Y1214D02*
X2809Y1214D01*
X0Y1213D02*
X7Y1213D01*
X2802Y1213D02*
X2809Y1213D01*
X0Y1212D02*
X7Y1212D01*
X2802Y1212D02*
X2809Y1212D01*
X0Y1211D02*
X7Y1211D01*
X2802Y1211D02*
X2809Y1211D01*
X0Y1210D02*
X7Y1210D01*
X2802Y1210D02*
X2809Y1210D01*
X0Y1209D02*
X7Y1209D01*
X2802Y1209D02*
X2809Y1209D01*
X0Y1208D02*
X7Y1208D01*
X2802Y1208D02*
X2809Y1208D01*
X0Y1207D02*
X7Y1207D01*
X2802Y1207D02*
X2809Y1207D01*
X0Y1206D02*
X7Y1206D01*
X2802Y1206D02*
X2809Y1206D01*
X0Y1205D02*
X7Y1205D01*
X2802Y1205D02*
X2809Y1205D01*
X0Y1204D02*
X7Y1204D01*
X2802Y1204D02*
X2809Y1204D01*
X0Y1203D02*
X7Y1203D01*
X2802Y1203D02*
X2809Y1203D01*
X0Y1202D02*
X7Y1202D01*
X2802Y1202D02*
X2809Y1202D01*
X0Y1201D02*
X7Y1201D01*
X2802Y1201D02*
X2809Y1201D01*
X0Y1200D02*
X7Y1200D01*
X2802Y1200D02*
X2809Y1200D01*
X0Y1199D02*
X7Y1199D01*
X2802Y1199D02*
X2809Y1199D01*
X0Y1198D02*
X7Y1198D01*
X2802Y1198D02*
X2809Y1198D01*
X0Y1197D02*
X7Y1197D01*
X2802Y1197D02*
X2809Y1197D01*
X0Y1196D02*
X7Y1196D01*
X2802Y1196D02*
X2809Y1196D01*
X0Y1195D02*
X7Y1195D01*
X2802Y1195D02*
X2809Y1195D01*
X0Y1194D02*
X7Y1194D01*
X2802Y1194D02*
X2809Y1194D01*
X0Y1193D02*
X7Y1193D01*
X2802Y1193D02*
X2809Y1193D01*
X0Y1192D02*
X7Y1192D01*
X2802Y1192D02*
X2809Y1192D01*
X0Y1191D02*
X7Y1191D01*
X2802Y1191D02*
X2809Y1191D01*
X0Y1190D02*
X7Y1190D01*
X2802Y1190D02*
X2809Y1190D01*
X0Y1189D02*
X7Y1189D01*
X2802Y1189D02*
X2809Y1189D01*
X0Y1188D02*
X7Y1188D01*
X2802Y1188D02*
X2809Y1188D01*
X0Y1187D02*
X7Y1187D01*
X2802Y1187D02*
X2809Y1187D01*
X0Y1186D02*
X7Y1186D01*
X2802Y1186D02*
X2809Y1186D01*
X0Y1185D02*
X7Y1185D01*
X2802Y1185D02*
X2809Y1185D01*
X0Y1184D02*
X7Y1184D01*
X2802Y1184D02*
X2809Y1184D01*
X0Y1183D02*
X7Y1183D01*
X2802Y1183D02*
X2809Y1183D01*
X0Y1182D02*
X7Y1182D01*
X2802Y1182D02*
X2809Y1182D01*
X0Y1181D02*
X7Y1181D01*
X2802Y1181D02*
X2809Y1181D01*
X0Y1180D02*
X7Y1180D01*
X2802Y1180D02*
X2809Y1180D01*
X0Y1179D02*
X7Y1179D01*
X2802Y1179D02*
X2809Y1179D01*
X0Y1178D02*
X7Y1178D01*
X2802Y1178D02*
X2809Y1178D01*
X0Y1177D02*
X7Y1177D01*
X2802Y1177D02*
X2809Y1177D01*
X0Y1176D02*
X7Y1176D01*
X2802Y1176D02*
X2809Y1176D01*
X0Y1175D02*
X7Y1175D01*
X2802Y1175D02*
X2809Y1175D01*
X0Y1174D02*
X7Y1174D01*
X2802Y1174D02*
X2809Y1174D01*
X0Y1173D02*
X7Y1173D01*
X2802Y1173D02*
X2809Y1173D01*
X0Y1172D02*
X7Y1172D01*
X2802Y1172D02*
X2809Y1172D01*
X0Y1171D02*
X7Y1171D01*
X2802Y1171D02*
X2809Y1171D01*
X0Y1170D02*
X7Y1170D01*
X2802Y1170D02*
X2809Y1170D01*
X0Y1169D02*
X7Y1169D01*
X2802Y1169D02*
X2809Y1169D01*
X0Y1168D02*
X7Y1168D01*
X2802Y1168D02*
X2809Y1168D01*
X0Y1167D02*
X7Y1167D01*
X2802Y1167D02*
X2809Y1167D01*
X0Y1166D02*
X7Y1166D01*
X2802Y1166D02*
X2809Y1166D01*
X0Y1165D02*
X7Y1165D01*
X2802Y1165D02*
X2809Y1165D01*
X0Y1164D02*
X7Y1164D01*
X2802Y1164D02*
X2809Y1164D01*
X0Y1163D02*
X7Y1163D01*
X2802Y1163D02*
X2809Y1163D01*
X0Y1162D02*
X7Y1162D01*
X2802Y1162D02*
X2809Y1162D01*
X0Y1161D02*
X7Y1161D01*
X2802Y1161D02*
X2809Y1161D01*
X0Y1160D02*
X7Y1160D01*
X2802Y1160D02*
X2809Y1160D01*
X0Y1159D02*
X7Y1159D01*
X2802Y1159D02*
X2809Y1159D01*
X0Y1158D02*
X7Y1158D01*
X2802Y1158D02*
X2809Y1158D01*
X0Y1157D02*
X7Y1157D01*
X2802Y1157D02*
X2809Y1157D01*
X0Y1156D02*
X7Y1156D01*
X2802Y1156D02*
X2809Y1156D01*
X0Y1155D02*
X7Y1155D01*
X2802Y1155D02*
X2809Y1155D01*
X0Y1154D02*
X7Y1154D01*
X2802Y1154D02*
X2809Y1154D01*
X0Y1153D02*
X7Y1153D01*
X2802Y1153D02*
X2809Y1153D01*
X0Y1152D02*
X7Y1152D01*
X2802Y1152D02*
X2809Y1152D01*
X0Y1151D02*
X7Y1151D01*
X2802Y1151D02*
X2809Y1151D01*
X0Y1150D02*
X7Y1150D01*
X2802Y1150D02*
X2809Y1150D01*
X0Y1149D02*
X7Y1149D01*
X2802Y1149D02*
X2809Y1149D01*
X0Y1148D02*
X7Y1148D01*
X2802Y1148D02*
X2809Y1148D01*
X0Y1147D02*
X7Y1147D01*
X2802Y1147D02*
X2809Y1147D01*
X0Y1146D02*
X7Y1146D01*
X2802Y1146D02*
X2809Y1146D01*
X0Y1145D02*
X7Y1145D01*
X2802Y1145D02*
X2809Y1145D01*
X0Y1144D02*
X7Y1144D01*
X2802Y1144D02*
X2809Y1144D01*
X0Y1143D02*
X7Y1143D01*
X2802Y1143D02*
X2809Y1143D01*
X0Y1142D02*
X7Y1142D01*
X2802Y1142D02*
X2809Y1142D01*
X0Y1141D02*
X7Y1141D01*
X2802Y1141D02*
X2809Y1141D01*
X0Y1140D02*
X7Y1140D01*
X2802Y1140D02*
X2809Y1140D01*
X0Y1139D02*
X7Y1139D01*
X2802Y1139D02*
X2809Y1139D01*
X0Y1138D02*
X7Y1138D01*
X2802Y1138D02*
X2809Y1138D01*
X0Y1137D02*
X7Y1137D01*
X2802Y1137D02*
X2809Y1137D01*
X0Y1136D02*
X7Y1136D01*
X2802Y1136D02*
X2809Y1136D01*
X0Y1135D02*
X7Y1135D01*
X2802Y1135D02*
X2809Y1135D01*
X0Y1134D02*
X7Y1134D01*
X2802Y1134D02*
X2809Y1134D01*
X0Y1133D02*
X7Y1133D01*
X2802Y1133D02*
X2809Y1133D01*
X0Y1132D02*
X7Y1132D01*
X2802Y1132D02*
X2809Y1132D01*
X0Y1131D02*
X7Y1131D01*
X2802Y1131D02*
X2809Y1131D01*
X0Y1130D02*
X7Y1130D01*
X2802Y1130D02*
X2809Y1130D01*
X0Y1129D02*
X7Y1129D01*
X2802Y1129D02*
X2809Y1129D01*
X0Y1128D02*
X7Y1128D01*
X2802Y1128D02*
X2809Y1128D01*
X0Y1127D02*
X7Y1127D01*
X2802Y1127D02*
X2809Y1127D01*
X0Y1126D02*
X7Y1126D01*
X2802Y1126D02*
X2809Y1126D01*
X0Y1125D02*
X7Y1125D01*
X2802Y1125D02*
X2809Y1125D01*
X0Y1124D02*
X7Y1124D01*
X2802Y1124D02*
X2809Y1124D01*
X0Y1123D02*
X7Y1123D01*
X2802Y1123D02*
X2809Y1123D01*
X0Y1122D02*
X7Y1122D01*
X2802Y1122D02*
X2809Y1122D01*
X0Y1121D02*
X7Y1121D01*
X2802Y1121D02*
X2809Y1121D01*
X0Y1120D02*
X7Y1120D01*
X2802Y1120D02*
X2809Y1120D01*
X0Y1119D02*
X7Y1119D01*
X2802Y1119D02*
X2809Y1119D01*
X0Y1118D02*
X7Y1118D01*
X2802Y1118D02*
X2809Y1118D01*
X0Y1117D02*
X7Y1117D01*
X2802Y1117D02*
X2809Y1117D01*
X0Y1116D02*
X7Y1116D01*
X2802Y1116D02*
X2809Y1116D01*
X0Y1115D02*
X7Y1115D01*
X2802Y1115D02*
X2809Y1115D01*
X0Y1114D02*
X7Y1114D01*
X2802Y1114D02*
X2809Y1114D01*
X0Y1113D02*
X7Y1113D01*
X2802Y1113D02*
X2809Y1113D01*
X0Y1112D02*
X7Y1112D01*
X2802Y1112D02*
X2809Y1112D01*
X0Y1111D02*
X7Y1111D01*
X2802Y1111D02*
X2809Y1111D01*
X0Y1110D02*
X7Y1110D01*
X2802Y1110D02*
X2809Y1110D01*
X0Y1109D02*
X7Y1109D01*
X2802Y1109D02*
X2809Y1109D01*
X0Y1108D02*
X7Y1108D01*
X2802Y1108D02*
X2809Y1108D01*
X0Y1107D02*
X7Y1107D01*
X2802Y1107D02*
X2809Y1107D01*
X0Y1106D02*
X7Y1106D01*
X2802Y1106D02*
X2809Y1106D01*
X0Y1105D02*
X7Y1105D01*
X2802Y1105D02*
X2809Y1105D01*
X0Y1104D02*
X7Y1104D01*
X2802Y1104D02*
X2809Y1104D01*
X0Y1103D02*
X7Y1103D01*
X2802Y1103D02*
X2809Y1103D01*
X0Y1102D02*
X7Y1102D01*
X2802Y1102D02*
X2809Y1102D01*
X0Y1101D02*
X7Y1101D01*
X2802Y1101D02*
X2809Y1101D01*
X0Y1100D02*
X7Y1100D01*
X2802Y1100D02*
X2809Y1100D01*
X0Y1099D02*
X7Y1099D01*
X2802Y1099D02*
X2809Y1099D01*
X0Y1098D02*
X7Y1098D01*
X2802Y1098D02*
X2809Y1098D01*
X0Y1097D02*
X7Y1097D01*
X2802Y1097D02*
X2809Y1097D01*
X0Y1096D02*
X7Y1096D01*
X2802Y1096D02*
X2809Y1096D01*
X0Y1095D02*
X7Y1095D01*
X2802Y1095D02*
X2809Y1095D01*
X0Y1094D02*
X7Y1094D01*
X2802Y1094D02*
X2809Y1094D01*
X0Y1093D02*
X7Y1093D01*
X2802Y1093D02*
X2809Y1093D01*
X0Y1092D02*
X7Y1092D01*
X2802Y1092D02*
X2809Y1092D01*
X0Y1091D02*
X7Y1091D01*
X2802Y1091D02*
X2809Y1091D01*
X0Y1090D02*
X7Y1090D01*
X2802Y1090D02*
X2809Y1090D01*
X0Y1089D02*
X7Y1089D01*
X2802Y1089D02*
X2809Y1089D01*
X0Y1088D02*
X7Y1088D01*
X2802Y1088D02*
X2809Y1088D01*
X0Y1087D02*
X7Y1087D01*
X2802Y1087D02*
X2809Y1087D01*
X0Y1086D02*
X7Y1086D01*
X2802Y1086D02*
X2809Y1086D01*
X0Y1085D02*
X7Y1085D01*
X2802Y1085D02*
X2809Y1085D01*
X0Y1084D02*
X7Y1084D01*
X2802Y1084D02*
X2809Y1084D01*
X0Y1083D02*
X7Y1083D01*
X2802Y1083D02*
X2809Y1083D01*
X0Y1082D02*
X7Y1082D01*
X2074Y1082D02*
X2075Y1082D01*
X2101Y1082D02*
X2102Y1082D01*
X2802Y1082D02*
X2809Y1082D01*
X0Y1081D02*
X7Y1081D01*
X2072Y1081D02*
X2076Y1081D01*
X2100Y1081D02*
X2104Y1081D01*
X2802Y1081D02*
X2809Y1081D01*
X0Y1080D02*
X7Y1080D01*
X2072Y1080D02*
X2077Y1080D01*
X2099Y1080D02*
X2105Y1080D01*
X2802Y1080D02*
X2809Y1080D01*
X0Y1079D02*
X7Y1079D01*
X2071Y1079D02*
X2078Y1079D01*
X2098Y1079D02*
X2105Y1079D01*
X2802Y1079D02*
X2809Y1079D01*
X0Y1078D02*
X7Y1078D01*
X2071Y1078D02*
X2078Y1078D01*
X2098Y1078D02*
X2105Y1078D01*
X2802Y1078D02*
X2809Y1078D01*
X0Y1077D02*
X7Y1077D01*
X2072Y1077D02*
X2079Y1077D01*
X2097Y1077D02*
X2104Y1077D01*
X2802Y1077D02*
X2809Y1077D01*
X0Y1076D02*
X7Y1076D01*
X2072Y1076D02*
X2079Y1076D01*
X2097Y1076D02*
X2104Y1076D01*
X2802Y1076D02*
X2809Y1076D01*
X0Y1075D02*
X7Y1075D01*
X2073Y1075D02*
X2080Y1075D01*
X2096Y1075D02*
X2103Y1075D01*
X2802Y1075D02*
X2809Y1075D01*
X0Y1074D02*
X7Y1074D01*
X2073Y1074D02*
X2081Y1074D01*
X2095Y1074D02*
X2103Y1074D01*
X2802Y1074D02*
X2809Y1074D01*
X0Y1073D02*
X7Y1073D01*
X2074Y1073D02*
X2081Y1073D01*
X2095Y1073D02*
X2102Y1073D01*
X2802Y1073D02*
X2809Y1073D01*
X0Y1072D02*
X7Y1072D01*
X2075Y1072D02*
X2082Y1072D01*
X2094Y1072D02*
X2101Y1072D01*
X2802Y1072D02*
X2809Y1072D01*
X0Y1071D02*
X7Y1071D01*
X2075Y1071D02*
X2082Y1071D01*
X2094Y1071D02*
X2101Y1071D01*
X2802Y1071D02*
X2809Y1071D01*
X0Y1070D02*
X7Y1070D01*
X2076Y1070D02*
X2083Y1070D01*
X2093Y1070D02*
X2100Y1070D01*
X2802Y1070D02*
X2809Y1070D01*
X0Y1069D02*
X7Y1069D01*
X2076Y1069D02*
X2084Y1069D01*
X2093Y1069D02*
X2100Y1069D01*
X2802Y1069D02*
X2809Y1069D01*
X0Y1068D02*
X7Y1068D01*
X2077Y1068D02*
X2084Y1068D01*
X2092Y1068D02*
X2099Y1068D01*
X2802Y1068D02*
X2809Y1068D01*
X0Y1067D02*
X7Y1067D01*
X2077Y1067D02*
X2085Y1067D01*
X2091Y1067D02*
X2099Y1067D01*
X2131Y1067D02*
X2145Y1067D01*
X2173Y1067D02*
X2176Y1067D01*
X2188Y1067D02*
X2197Y1067D01*
X2232Y1067D02*
X2246Y1067D01*
X2274Y1067D02*
X2276Y1067D01*
X2288Y1067D02*
X2297Y1067D01*
X2802Y1067D02*
X2809Y1067D01*
X0Y1066D02*
X7Y1066D01*
X2078Y1066D02*
X2085Y1066D01*
X2091Y1066D02*
X2098Y1066D01*
X2129Y1066D02*
X2147Y1066D01*
X2172Y1066D02*
X2177Y1066D01*
X2186Y1066D02*
X2199Y1066D01*
X2229Y1066D02*
X2248Y1066D01*
X2273Y1066D02*
X2277Y1066D01*
X2286Y1066D02*
X2300Y1066D01*
X2802Y1066D02*
X2809Y1066D01*
X0Y1065D02*
X7Y1065D01*
X2079Y1065D02*
X2086Y1065D01*
X2090Y1065D02*
X2097Y1065D01*
X2128Y1065D02*
X2149Y1065D01*
X2172Y1065D02*
X2177Y1065D01*
X2184Y1065D02*
X2201Y1065D01*
X2228Y1065D02*
X2249Y1065D01*
X2272Y1065D02*
X2278Y1065D01*
X2284Y1065D02*
X2301Y1065D01*
X2802Y1065D02*
X2809Y1065D01*
X0Y1064D02*
X7Y1064D01*
X2079Y1064D02*
X2086Y1064D01*
X2090Y1064D02*
X2097Y1064D01*
X2126Y1064D02*
X2150Y1064D01*
X2172Y1064D02*
X2178Y1064D01*
X2182Y1064D02*
X2202Y1064D01*
X2227Y1064D02*
X2250Y1064D01*
X2272Y1064D02*
X2278Y1064D01*
X2283Y1064D02*
X2302Y1064D01*
X2802Y1064D02*
X2809Y1064D01*
X0Y1063D02*
X7Y1063D01*
X2080Y1063D02*
X2087Y1063D01*
X2089Y1063D02*
X2096Y1063D01*
X2125Y1063D02*
X2151Y1063D01*
X2172Y1063D02*
X2178Y1063D01*
X2181Y1063D02*
X2202Y1063D01*
X2226Y1063D02*
X2252Y1063D01*
X2272Y1063D02*
X2278Y1063D01*
X2281Y1063D02*
X2303Y1063D01*
X2802Y1063D02*
X2809Y1063D01*
X0Y1062D02*
X7Y1062D01*
X2080Y1062D02*
X2096Y1062D01*
X2124Y1062D02*
X2152Y1062D01*
X2172Y1062D02*
X2203Y1062D01*
X2225Y1062D02*
X2253Y1062D01*
X2272Y1062D02*
X2278Y1062D01*
X2280Y1062D02*
X2303Y1062D01*
X2802Y1062D02*
X2809Y1062D01*
X0Y1061D02*
X7Y1061D01*
X2081Y1061D02*
X2095Y1061D01*
X2124Y1061D02*
X2153Y1061D01*
X2172Y1061D02*
X2204Y1061D01*
X2224Y1061D02*
X2253Y1061D01*
X2272Y1061D02*
X2304Y1061D01*
X2802Y1061D02*
X2809Y1061D01*
X0Y1060D02*
X7Y1060D01*
X2082Y1060D02*
X2094Y1060D01*
X2123Y1060D02*
X2132Y1060D01*
X2145Y1060D02*
X2154Y1060D01*
X2172Y1060D02*
X2188Y1060D01*
X2197Y1060D02*
X2204Y1060D01*
X2223Y1060D02*
X2232Y1060D01*
X2245Y1060D02*
X2254Y1060D01*
X2272Y1060D02*
X2289Y1060D01*
X2297Y1060D02*
X2304Y1060D01*
X2802Y1060D02*
X2809Y1060D01*
X0Y1059D02*
X7Y1059D01*
X2082Y1059D02*
X2094Y1059D01*
X2122Y1059D02*
X2130Y1059D01*
X2146Y1059D02*
X2154Y1059D01*
X2172Y1059D02*
X2187Y1059D01*
X2198Y1059D02*
X2204Y1059D01*
X2223Y1059D02*
X2231Y1059D01*
X2247Y1059D02*
X2255Y1059D01*
X2272Y1059D02*
X2287Y1059D01*
X2298Y1059D02*
X2305Y1059D01*
X2802Y1059D02*
X2809Y1059D01*
X0Y1058D02*
X7Y1058D01*
X2083Y1058D02*
X2093Y1058D01*
X2122Y1058D02*
X2129Y1058D01*
X2147Y1058D02*
X2155Y1058D01*
X2172Y1058D02*
X2185Y1058D01*
X2198Y1058D02*
X2204Y1058D01*
X2222Y1058D02*
X2230Y1058D01*
X2248Y1058D02*
X2255Y1058D01*
X2272Y1058D02*
X2286Y1058D01*
X2299Y1058D02*
X2305Y1058D01*
X2802Y1058D02*
X2809Y1058D01*
X0Y1057D02*
X7Y1057D01*
X2083Y1057D02*
X2093Y1057D01*
X2122Y1057D02*
X2128Y1057D01*
X2148Y1057D02*
X2155Y1057D01*
X2172Y1057D02*
X2184Y1057D01*
X2198Y1057D02*
X2204Y1057D01*
X2222Y1057D02*
X2229Y1057D01*
X2249Y1057D02*
X2255Y1057D01*
X2272Y1057D02*
X2284Y1057D01*
X2299Y1057D02*
X2305Y1057D01*
X2802Y1057D02*
X2809Y1057D01*
X0Y1056D02*
X7Y1056D01*
X2084Y1056D02*
X2092Y1056D01*
X2122Y1056D02*
X2128Y1056D01*
X2149Y1056D02*
X2155Y1056D01*
X2172Y1056D02*
X2182Y1056D01*
X2198Y1056D02*
X2204Y1056D01*
X2222Y1056D02*
X2228Y1056D01*
X2249Y1056D02*
X2255Y1056D01*
X2272Y1056D02*
X2282Y1056D01*
X2299Y1056D02*
X2305Y1056D01*
X2802Y1056D02*
X2809Y1056D01*
X0Y1055D02*
X7Y1055D01*
X2084Y1055D02*
X2092Y1055D01*
X2121Y1055D02*
X2128Y1055D01*
X2149Y1055D02*
X2155Y1055D01*
X2172Y1055D02*
X2180Y1055D01*
X2198Y1055D02*
X2204Y1055D01*
X2222Y1055D02*
X2228Y1055D01*
X2249Y1055D02*
X2255Y1055D01*
X2272Y1055D02*
X2281Y1055D01*
X2299Y1055D02*
X2305Y1055D01*
X2802Y1055D02*
X2809Y1055D01*
X0Y1054D02*
X7Y1054D01*
X2084Y1054D02*
X2092Y1054D01*
X2121Y1054D02*
X2127Y1054D01*
X2149Y1054D02*
X2155Y1054D01*
X2172Y1054D02*
X2179Y1054D01*
X2198Y1054D02*
X2204Y1054D01*
X2222Y1054D02*
X2228Y1054D01*
X2249Y1054D02*
X2255Y1054D01*
X2272Y1054D02*
X2279Y1054D01*
X2299Y1054D02*
X2305Y1054D01*
X2802Y1054D02*
X2809Y1054D01*
X0Y1053D02*
X7Y1053D01*
X2083Y1053D02*
X2093Y1053D01*
X2121Y1053D02*
X2127Y1053D01*
X2149Y1053D02*
X2155Y1053D01*
X2172Y1053D02*
X2178Y1053D01*
X2198Y1053D02*
X2204Y1053D01*
X2222Y1053D02*
X2228Y1053D01*
X2249Y1053D02*
X2255Y1053D01*
X2272Y1053D02*
X2278Y1053D01*
X2299Y1053D02*
X2305Y1053D01*
X2802Y1053D02*
X2809Y1053D01*
X0Y1052D02*
X7Y1052D01*
X2083Y1052D02*
X2093Y1052D01*
X2121Y1052D02*
X2127Y1052D01*
X2149Y1052D02*
X2155Y1052D01*
X2172Y1052D02*
X2178Y1052D01*
X2199Y1052D02*
X2205Y1052D01*
X2222Y1052D02*
X2228Y1052D01*
X2249Y1052D02*
X2255Y1052D01*
X2272Y1052D02*
X2278Y1052D01*
X2299Y1052D02*
X2305Y1052D01*
X2802Y1052D02*
X2809Y1052D01*
X0Y1051D02*
X7Y1051D01*
X2082Y1051D02*
X2094Y1051D01*
X2121Y1051D02*
X2127Y1051D01*
X2149Y1051D02*
X2155Y1051D01*
X2172Y1051D02*
X2178Y1051D01*
X2199Y1051D02*
X2205Y1051D01*
X2222Y1051D02*
X2228Y1051D01*
X2249Y1051D02*
X2255Y1051D01*
X2272Y1051D02*
X2278Y1051D01*
X2299Y1051D02*
X2305Y1051D01*
X2802Y1051D02*
X2809Y1051D01*
X0Y1050D02*
X7Y1050D01*
X2081Y1050D02*
X2095Y1050D01*
X2121Y1050D02*
X2128Y1050D01*
X2149Y1050D02*
X2155Y1050D01*
X2172Y1050D02*
X2178Y1050D01*
X2199Y1050D02*
X2205Y1050D01*
X2222Y1050D02*
X2228Y1050D01*
X2249Y1050D02*
X2255Y1050D01*
X2272Y1050D02*
X2278Y1050D01*
X2299Y1050D02*
X2305Y1050D01*
X2802Y1050D02*
X2809Y1050D01*
X0Y1049D02*
X7Y1049D01*
X2081Y1049D02*
X2095Y1049D01*
X2121Y1049D02*
X2155Y1049D01*
X2172Y1049D02*
X2178Y1049D01*
X2199Y1049D02*
X2205Y1049D01*
X2222Y1049D02*
X2228Y1049D01*
X2249Y1049D02*
X2255Y1049D01*
X2272Y1049D02*
X2278Y1049D01*
X2299Y1049D02*
X2305Y1049D01*
X2802Y1049D02*
X2809Y1049D01*
X0Y1048D02*
X7Y1048D01*
X2080Y1048D02*
X2096Y1048D01*
X2121Y1048D02*
X2155Y1048D01*
X2172Y1048D02*
X2178Y1048D01*
X2199Y1048D02*
X2205Y1048D01*
X2222Y1048D02*
X2228Y1048D01*
X2249Y1048D02*
X2255Y1048D01*
X2272Y1048D02*
X2278Y1048D01*
X2299Y1048D02*
X2305Y1048D01*
X2802Y1048D02*
X2809Y1048D01*
X0Y1047D02*
X7Y1047D01*
X2080Y1047D02*
X2087Y1047D01*
X2089Y1047D02*
X2096Y1047D01*
X2121Y1047D02*
X2155Y1047D01*
X2172Y1047D02*
X2178Y1047D01*
X2199Y1047D02*
X2205Y1047D01*
X2222Y1047D02*
X2228Y1047D01*
X2249Y1047D02*
X2255Y1047D01*
X2272Y1047D02*
X2278Y1047D01*
X2299Y1047D02*
X2305Y1047D01*
X2802Y1047D02*
X2809Y1047D01*
X0Y1046D02*
X7Y1046D01*
X2079Y1046D02*
X2086Y1046D01*
X2090Y1046D02*
X2097Y1046D01*
X2121Y1046D02*
X2155Y1046D01*
X2172Y1046D02*
X2178Y1046D01*
X2199Y1046D02*
X2205Y1046D01*
X2222Y1046D02*
X2228Y1046D01*
X2249Y1046D02*
X2255Y1046D01*
X2272Y1046D02*
X2278Y1046D01*
X2299Y1046D02*
X2305Y1046D01*
X2802Y1046D02*
X2809Y1046D01*
X0Y1045D02*
X7Y1045D01*
X2079Y1045D02*
X2086Y1045D01*
X2090Y1045D02*
X2098Y1045D01*
X2121Y1045D02*
X2155Y1045D01*
X2172Y1045D02*
X2178Y1045D01*
X2199Y1045D02*
X2205Y1045D01*
X2222Y1045D02*
X2228Y1045D01*
X2249Y1045D02*
X2255Y1045D01*
X2272Y1045D02*
X2278Y1045D01*
X2299Y1045D02*
X2305Y1045D01*
X2802Y1045D02*
X2809Y1045D01*
X0Y1044D02*
X7Y1044D01*
X2078Y1044D02*
X2085Y1044D01*
X2091Y1044D02*
X2098Y1044D01*
X2121Y1044D02*
X2154Y1044D01*
X2172Y1044D02*
X2178Y1044D01*
X2199Y1044D02*
X2205Y1044D01*
X2222Y1044D02*
X2228Y1044D01*
X2249Y1044D02*
X2255Y1044D01*
X2272Y1044D02*
X2278Y1044D01*
X2299Y1044D02*
X2305Y1044D01*
X2802Y1044D02*
X2809Y1044D01*
X0Y1043D02*
X7Y1043D01*
X2077Y1043D02*
X2085Y1043D01*
X2092Y1043D02*
X2099Y1043D01*
X2121Y1043D02*
X2153Y1043D01*
X2172Y1043D02*
X2178Y1043D01*
X2199Y1043D02*
X2205Y1043D01*
X2222Y1043D02*
X2228Y1043D01*
X2249Y1043D02*
X2255Y1043D01*
X2272Y1043D02*
X2278Y1043D01*
X2299Y1043D02*
X2305Y1043D01*
X2802Y1043D02*
X2809Y1043D01*
X0Y1042D02*
X7Y1042D01*
X2077Y1042D02*
X2084Y1042D01*
X2092Y1042D02*
X2099Y1042D01*
X2121Y1042D02*
X2127Y1042D01*
X2172Y1042D02*
X2178Y1042D01*
X2199Y1042D02*
X2205Y1042D01*
X2222Y1042D02*
X2228Y1042D01*
X2249Y1042D02*
X2255Y1042D01*
X2272Y1042D02*
X2278Y1042D01*
X2299Y1042D02*
X2305Y1042D01*
X2802Y1042D02*
X2809Y1042D01*
X0Y1041D02*
X7Y1041D01*
X2076Y1041D02*
X2083Y1041D01*
X2093Y1041D02*
X2100Y1041D01*
X2121Y1041D02*
X2127Y1041D01*
X2172Y1041D02*
X2178Y1041D01*
X2199Y1041D02*
X2205Y1041D01*
X2222Y1041D02*
X2228Y1041D01*
X2249Y1041D02*
X2255Y1041D01*
X2272Y1041D02*
X2278Y1041D01*
X2299Y1041D02*
X2305Y1041D01*
X2802Y1041D02*
X2809Y1041D01*
X0Y1040D02*
X7Y1040D01*
X2076Y1040D02*
X2083Y1040D01*
X2093Y1040D02*
X2100Y1040D01*
X2122Y1040D02*
X2128Y1040D01*
X2172Y1040D02*
X2178Y1040D01*
X2199Y1040D02*
X2205Y1040D01*
X2222Y1040D02*
X2228Y1040D01*
X2249Y1040D02*
X2255Y1040D01*
X2272Y1040D02*
X2278Y1040D01*
X2299Y1040D02*
X2305Y1040D01*
X2802Y1040D02*
X2809Y1040D01*
X0Y1039D02*
X7Y1039D01*
X2075Y1039D02*
X2082Y1039D01*
X2094Y1039D02*
X2101Y1039D01*
X2122Y1039D02*
X2128Y1039D01*
X2172Y1039D02*
X2178Y1039D01*
X2199Y1039D02*
X2205Y1039D01*
X2222Y1039D02*
X2228Y1039D01*
X2249Y1039D02*
X2255Y1039D01*
X2272Y1039D02*
X2278Y1039D01*
X2299Y1039D02*
X2305Y1039D01*
X2802Y1039D02*
X2809Y1039D01*
X0Y1038D02*
X7Y1038D01*
X2074Y1038D02*
X2082Y1038D01*
X2094Y1038D02*
X2102Y1038D01*
X2122Y1038D02*
X2129Y1038D01*
X2172Y1038D02*
X2178Y1038D01*
X2199Y1038D02*
X2205Y1038D01*
X2222Y1038D02*
X2229Y1038D01*
X2248Y1038D02*
X2255Y1038D01*
X2272Y1038D02*
X2278Y1038D01*
X2299Y1038D02*
X2305Y1038D01*
X2802Y1038D02*
X2809Y1038D01*
X0Y1037D02*
X7Y1037D01*
X2074Y1037D02*
X2081Y1037D01*
X2095Y1037D02*
X2102Y1037D01*
X2122Y1037D02*
X2130Y1037D01*
X2172Y1037D02*
X2178Y1037D01*
X2199Y1037D02*
X2205Y1037D01*
X2222Y1037D02*
X2230Y1037D01*
X2247Y1037D02*
X2255Y1037D01*
X2272Y1037D02*
X2278Y1037D01*
X2299Y1037D02*
X2305Y1037D01*
X2802Y1037D02*
X2809Y1037D01*
X0Y1036D02*
X7Y1036D01*
X2073Y1036D02*
X2080Y1036D01*
X2096Y1036D02*
X2103Y1036D01*
X2122Y1036D02*
X2131Y1036D01*
X2172Y1036D02*
X2178Y1036D01*
X2199Y1036D02*
X2205Y1036D01*
X2223Y1036D02*
X2231Y1036D01*
X2246Y1036D02*
X2254Y1036D01*
X2272Y1036D02*
X2278Y1036D01*
X2299Y1036D02*
X2305Y1036D01*
X2802Y1036D02*
X2809Y1036D01*
X0Y1035D02*
X7Y1035D01*
X2073Y1035D02*
X2080Y1035D01*
X2096Y1035D02*
X2103Y1035D01*
X2123Y1035D02*
X2152Y1035D01*
X2172Y1035D02*
X2178Y1035D01*
X2199Y1035D02*
X2205Y1035D01*
X2223Y1035D02*
X2254Y1035D01*
X2272Y1035D02*
X2278Y1035D01*
X2299Y1035D02*
X2305Y1035D01*
X2802Y1035D02*
X2809Y1035D01*
X0Y1034D02*
X7Y1034D01*
X2072Y1034D02*
X2079Y1034D01*
X2097Y1034D02*
X2104Y1034D01*
X2124Y1034D02*
X2154Y1034D01*
X2172Y1034D02*
X2178Y1034D01*
X2199Y1034D02*
X2205Y1034D01*
X2224Y1034D02*
X2253Y1034D01*
X2272Y1034D02*
X2278Y1034D01*
X2300Y1034D02*
X2306Y1034D01*
X2802Y1034D02*
X2809Y1034D01*
X0Y1033D02*
X7Y1033D01*
X2072Y1033D02*
X2079Y1033D01*
X2097Y1033D02*
X2104Y1033D01*
X2125Y1033D02*
X2155Y1033D01*
X2172Y1033D02*
X2178Y1033D01*
X2199Y1033D02*
X2205Y1033D01*
X2225Y1033D02*
X2252Y1033D01*
X2272Y1033D02*
X2278Y1033D01*
X2300Y1033D02*
X2306Y1033D01*
X2802Y1033D02*
X2809Y1033D01*
X0Y1032D02*
X7Y1032D01*
X2071Y1032D02*
X2078Y1032D01*
X2098Y1032D02*
X2105Y1032D01*
X2126Y1032D02*
X2155Y1032D01*
X2172Y1032D02*
X2178Y1032D01*
X2199Y1032D02*
X2205Y1032D01*
X2226Y1032D02*
X2251Y1032D01*
X2272Y1032D02*
X2278Y1032D01*
X2300Y1032D02*
X2306Y1032D01*
X2802Y1032D02*
X2809Y1032D01*
X0Y1031D02*
X7Y1031D01*
X2071Y1031D02*
X2077Y1031D01*
X2099Y1031D02*
X2105Y1031D01*
X2127Y1031D02*
X2155Y1031D01*
X2172Y1031D02*
X2178Y1031D01*
X2199Y1031D02*
X2205Y1031D01*
X2227Y1031D02*
X2250Y1031D01*
X2272Y1031D02*
X2278Y1031D01*
X2300Y1031D02*
X2305Y1031D01*
X2802Y1031D02*
X2809Y1031D01*
X0Y1030D02*
X7Y1030D01*
X2072Y1030D02*
X2077Y1030D01*
X2099Y1030D02*
X2104Y1030D01*
X2128Y1030D02*
X2155Y1030D01*
X2172Y1030D02*
X2177Y1030D01*
X2200Y1030D02*
X2205Y1030D01*
X2229Y1030D02*
X2248Y1030D01*
X2272Y1030D02*
X2278Y1030D01*
X2300Y1030D02*
X2305Y1030D01*
X2802Y1030D02*
X2809Y1030D01*
X0Y1029D02*
X7Y1029D01*
X2072Y1029D02*
X2076Y1029D01*
X2100Y1029D02*
X2104Y1029D01*
X2130Y1029D02*
X2154Y1029D01*
X2173Y1029D02*
X2176Y1029D01*
X2200Y1029D02*
X2204Y1029D01*
X2231Y1029D02*
X2247Y1029D01*
X2273Y1029D02*
X2277Y1029D01*
X2301Y1029D02*
X2304Y1029D01*
X2802Y1029D02*
X2809Y1029D01*
X0Y1028D02*
X7Y1028D01*
X2802Y1028D02*
X2809Y1028D01*
X0Y1027D02*
X7Y1027D01*
X2802Y1027D02*
X2809Y1027D01*
X0Y1026D02*
X7Y1026D01*
X2802Y1026D02*
X2809Y1026D01*
X0Y1025D02*
X7Y1025D01*
X2802Y1025D02*
X2809Y1025D01*
X0Y1024D02*
X7Y1024D01*
X2802Y1024D02*
X2809Y1024D01*
X0Y1023D02*
X7Y1023D01*
X2802Y1023D02*
X2809Y1023D01*
X0Y1022D02*
X7Y1022D01*
X2802Y1022D02*
X2809Y1022D01*
X0Y1021D02*
X7Y1021D01*
X2802Y1021D02*
X2809Y1021D01*
X0Y1020D02*
X7Y1020D01*
X2802Y1020D02*
X2809Y1020D01*
X0Y1019D02*
X7Y1019D01*
X2802Y1019D02*
X2809Y1019D01*
X0Y1018D02*
X7Y1018D01*
X2802Y1018D02*
X2809Y1018D01*
X0Y1017D02*
X7Y1017D01*
X2802Y1017D02*
X2809Y1017D01*
X0Y1016D02*
X7Y1016D01*
X2802Y1016D02*
X2809Y1016D01*
X0Y1015D02*
X7Y1015D01*
X2802Y1015D02*
X2809Y1015D01*
X0Y1014D02*
X7Y1014D01*
X2802Y1014D02*
X2809Y1014D01*
X0Y1013D02*
X7Y1013D01*
X2802Y1013D02*
X2809Y1013D01*
X0Y1012D02*
X7Y1012D01*
X2802Y1012D02*
X2809Y1012D01*
X0Y1011D02*
X7Y1011D01*
X2802Y1011D02*
X2809Y1011D01*
X0Y1010D02*
X7Y1010D01*
X2802Y1010D02*
X2809Y1010D01*
X0Y1009D02*
X7Y1009D01*
X2802Y1009D02*
X2809Y1009D01*
X0Y1008D02*
X7Y1008D01*
X2802Y1008D02*
X2809Y1008D01*
X0Y1007D02*
X7Y1007D01*
X2802Y1007D02*
X2809Y1007D01*
X0Y1006D02*
X7Y1006D01*
X2802Y1006D02*
X2809Y1006D01*
X0Y1005D02*
X7Y1005D01*
X2802Y1005D02*
X2809Y1005D01*
X0Y1004D02*
X7Y1004D01*
X2802Y1004D02*
X2809Y1004D01*
X0Y1003D02*
X7Y1003D01*
X2802Y1003D02*
X2809Y1003D01*
X0Y1002D02*
X7Y1002D01*
X154Y1002D02*
X1971Y1002D01*
X2802Y1002D02*
X2809Y1002D01*
X0Y1001D02*
X7Y1001D01*
X147Y1001D02*
X1979Y1001D01*
X2802Y1001D02*
X2809Y1001D01*
X0Y1000D02*
X7Y1000D01*
X142Y1000D02*
X1984Y1000D01*
X2802Y1000D02*
X2809Y1000D01*
X0Y999D02*
X7Y999D01*
X138Y999D02*
X1988Y999D01*
X2802Y999D02*
X2809Y999D01*
X0Y998D02*
X7Y998D01*
X134Y998D02*
X1992Y998D01*
X2802Y998D02*
X2809Y998D01*
X0Y997D02*
X7Y997D01*
X131Y997D02*
X1995Y997D01*
X2802Y997D02*
X2809Y997D01*
X0Y996D02*
X7Y996D01*
X128Y996D02*
X1998Y996D01*
X2802Y996D02*
X2809Y996D01*
X0Y995D02*
X7Y995D01*
X126Y995D02*
X2000Y995D01*
X2802Y995D02*
X2809Y995D01*
X0Y994D02*
X7Y994D01*
X123Y994D02*
X153Y994D01*
X1973Y994D02*
X2002Y994D01*
X2802Y994D02*
X2809Y994D01*
X0Y993D02*
X7Y993D01*
X121Y993D02*
X146Y993D01*
X1980Y993D02*
X2005Y993D01*
X2802Y993D02*
X2809Y993D01*
X0Y992D02*
X7Y992D01*
X119Y992D02*
X141Y992D01*
X1985Y992D02*
X2007Y992D01*
X2802Y992D02*
X2809Y992D01*
X0Y991D02*
X7Y991D01*
X117Y991D02*
X137Y991D01*
X1989Y991D02*
X2009Y991D01*
X2802Y991D02*
X2809Y991D01*
X0Y990D02*
X7Y990D01*
X115Y990D02*
X134Y990D01*
X1992Y990D02*
X2011Y990D01*
X2802Y990D02*
X2809Y990D01*
X0Y989D02*
X7Y989D01*
X113Y989D02*
X131Y989D01*
X1995Y989D02*
X2012Y989D01*
X2802Y989D02*
X2809Y989D01*
X0Y988D02*
X7Y988D01*
X112Y988D02*
X128Y988D01*
X1997Y988D02*
X2014Y988D01*
X2802Y988D02*
X2809Y988D01*
X0Y987D02*
X7Y987D01*
X110Y987D02*
X126Y987D01*
X2000Y987D02*
X2016Y987D01*
X2802Y987D02*
X2809Y987D01*
X0Y986D02*
X7Y986D01*
X109Y986D02*
X124Y986D01*
X2002Y986D02*
X2017Y986D01*
X2802Y986D02*
X2809Y986D01*
X0Y985D02*
X7Y985D01*
X107Y985D02*
X122Y985D01*
X2004Y985D02*
X2019Y985D01*
X2802Y985D02*
X2809Y985D01*
X0Y984D02*
X7Y984D01*
X106Y984D02*
X120Y984D01*
X2006Y984D02*
X2020Y984D01*
X2802Y984D02*
X2809Y984D01*
X0Y983D02*
X7Y983D01*
X104Y983D02*
X118Y983D01*
X2008Y983D02*
X2022Y983D01*
X2802Y983D02*
X2809Y983D01*
X0Y982D02*
X7Y982D01*
X103Y982D02*
X116Y982D01*
X2010Y982D02*
X2023Y982D01*
X2802Y982D02*
X2809Y982D01*
X0Y981D02*
X7Y981D01*
X102Y981D02*
X115Y981D01*
X2011Y981D02*
X2024Y981D01*
X2802Y981D02*
X2809Y981D01*
X0Y980D02*
X7Y980D01*
X100Y980D02*
X113Y980D01*
X2013Y980D02*
X2026Y980D01*
X2802Y980D02*
X2809Y980D01*
X0Y979D02*
X7Y979D01*
X99Y979D02*
X111Y979D01*
X2014Y979D02*
X2027Y979D01*
X2802Y979D02*
X2809Y979D01*
X0Y978D02*
X7Y978D01*
X98Y978D02*
X110Y978D01*
X2016Y978D02*
X2028Y978D01*
X2802Y978D02*
X2809Y978D01*
X0Y977D02*
X7Y977D01*
X97Y977D02*
X109Y977D01*
X2017Y977D02*
X2029Y977D01*
X2802Y977D02*
X2809Y977D01*
X0Y976D02*
X7Y976D01*
X96Y976D02*
X107Y976D01*
X2019Y976D02*
X2030Y976D01*
X2802Y976D02*
X2809Y976D01*
X0Y975D02*
X7Y975D01*
X95Y975D02*
X106Y975D01*
X2020Y975D02*
X2031Y975D01*
X2802Y975D02*
X2809Y975D01*
X0Y974D02*
X7Y974D01*
X94Y974D02*
X105Y974D01*
X2021Y974D02*
X2032Y974D01*
X2802Y974D02*
X2809Y974D01*
X0Y973D02*
X7Y973D01*
X93Y973D02*
X103Y973D01*
X2022Y973D02*
X2033Y973D01*
X2802Y973D02*
X2809Y973D01*
X0Y972D02*
X7Y972D01*
X92Y972D02*
X102Y972D01*
X2024Y972D02*
X2034Y972D01*
X2802Y972D02*
X2809Y972D01*
X0Y971D02*
X7Y971D01*
X91Y971D02*
X101Y971D01*
X2025Y971D02*
X2035Y971D01*
X2802Y971D02*
X2809Y971D01*
X0Y970D02*
X7Y970D01*
X90Y970D02*
X100Y970D01*
X2026Y970D02*
X2036Y970D01*
X2802Y970D02*
X2809Y970D01*
X0Y969D02*
X7Y969D01*
X89Y969D02*
X99Y969D01*
X2027Y969D02*
X2037Y969D01*
X2802Y969D02*
X2809Y969D01*
X0Y968D02*
X7Y968D01*
X88Y968D02*
X98Y968D01*
X2028Y968D02*
X2038Y968D01*
X2802Y968D02*
X2809Y968D01*
X0Y967D02*
X7Y967D01*
X87Y967D02*
X97Y967D01*
X2029Y967D02*
X2039Y967D01*
X2802Y967D02*
X2809Y967D01*
X0Y966D02*
X7Y966D01*
X86Y966D02*
X96Y966D01*
X2030Y966D02*
X2040Y966D01*
X2802Y966D02*
X2809Y966D01*
X0Y965D02*
X7Y965D01*
X85Y965D02*
X95Y965D01*
X2031Y965D02*
X2040Y965D01*
X2802Y965D02*
X2809Y965D01*
X0Y964D02*
X7Y964D01*
X85Y964D02*
X94Y964D01*
X2032Y964D02*
X2041Y964D01*
X2802Y964D02*
X2809Y964D01*
X0Y963D02*
X7Y963D01*
X84Y963D02*
X93Y963D01*
X2033Y963D02*
X2042Y963D01*
X2802Y963D02*
X2809Y963D01*
X0Y962D02*
X7Y962D01*
X83Y962D02*
X92Y962D01*
X2034Y962D02*
X2043Y962D01*
X2802Y962D02*
X2809Y962D01*
X0Y961D02*
X7Y961D01*
X82Y961D02*
X91Y961D01*
X2034Y961D02*
X2043Y961D01*
X2802Y961D02*
X2809Y961D01*
X0Y960D02*
X7Y960D01*
X82Y960D02*
X91Y960D01*
X2035Y960D02*
X2044Y960D01*
X2802Y960D02*
X2809Y960D01*
X0Y959D02*
X7Y959D01*
X81Y959D02*
X90Y959D01*
X2036Y959D02*
X2045Y959D01*
X2802Y959D02*
X2809Y959D01*
X0Y958D02*
X7Y958D01*
X80Y958D02*
X89Y958D01*
X2037Y958D02*
X2046Y958D01*
X2802Y958D02*
X2809Y958D01*
X0Y957D02*
X7Y957D01*
X80Y957D02*
X88Y957D01*
X2037Y957D02*
X2046Y957D01*
X2802Y957D02*
X2809Y957D01*
X0Y956D02*
X7Y956D01*
X79Y956D02*
X88Y956D01*
X2038Y956D02*
X2047Y956D01*
X2802Y956D02*
X2809Y956D01*
X0Y955D02*
X7Y955D01*
X78Y955D02*
X87Y955D01*
X2039Y955D02*
X2047Y955D01*
X2802Y955D02*
X2809Y955D01*
X0Y954D02*
X7Y954D01*
X78Y954D02*
X86Y954D01*
X2040Y954D02*
X2048Y954D01*
X2802Y954D02*
X2809Y954D01*
X0Y953D02*
X7Y953D01*
X77Y953D02*
X86Y953D01*
X2040Y953D02*
X2049Y953D01*
X2802Y953D02*
X2809Y953D01*
X0Y952D02*
X7Y952D01*
X77Y952D02*
X85Y952D01*
X1957Y952D02*
X1968Y952D01*
X2041Y952D02*
X2049Y952D01*
X2802Y952D02*
X2809Y952D01*
X0Y951D02*
X7Y951D01*
X76Y951D02*
X84Y951D01*
X1952Y951D02*
X1974Y951D01*
X2042Y951D02*
X2050Y951D01*
X2802Y951D02*
X2809Y951D01*
X0Y950D02*
X7Y950D01*
X76Y950D02*
X84Y950D01*
X1948Y950D02*
X1978Y950D01*
X2042Y950D02*
X2050Y950D01*
X2802Y950D02*
X2809Y950D01*
X0Y949D02*
X7Y949D01*
X75Y949D02*
X83Y949D01*
X1946Y949D02*
X1980Y949D01*
X2043Y949D02*
X2051Y949D01*
X2802Y949D02*
X2809Y949D01*
X0Y948D02*
X7Y948D01*
X75Y948D02*
X83Y948D01*
X1943Y948D02*
X1983Y948D01*
X2043Y948D02*
X2051Y948D01*
X2802Y948D02*
X2809Y948D01*
X0Y947D02*
X7Y947D01*
X74Y947D02*
X82Y947D01*
X1941Y947D02*
X1985Y947D01*
X2044Y947D02*
X2052Y947D01*
X2802Y947D02*
X2809Y947D01*
X0Y946D02*
X7Y946D01*
X74Y946D02*
X81Y946D01*
X1939Y946D02*
X1987Y946D01*
X2045Y946D02*
X2052Y946D01*
X2802Y946D02*
X2809Y946D01*
X0Y945D02*
X7Y945D01*
X73Y945D02*
X81Y945D01*
X1937Y945D02*
X1988Y945D01*
X2045Y945D02*
X2053Y945D01*
X2802Y945D02*
X2809Y945D01*
X0Y944D02*
X7Y944D01*
X73Y944D02*
X80Y944D01*
X1936Y944D02*
X1957Y944D01*
X1969Y944D02*
X1990Y944D01*
X2046Y944D02*
X2053Y944D01*
X2802Y944D02*
X2809Y944D01*
X0Y943D02*
X7Y943D01*
X72Y943D02*
X80Y943D01*
X1934Y943D02*
X1952Y943D01*
X1974Y943D02*
X1991Y943D01*
X2046Y943D02*
X2054Y943D01*
X2802Y943D02*
X2809Y943D01*
X0Y942D02*
X7Y942D01*
X72Y942D02*
X79Y942D01*
X1933Y942D02*
X1948Y942D01*
X1978Y942D02*
X1993Y942D01*
X2047Y942D02*
X2054Y942D01*
X2802Y942D02*
X2809Y942D01*
X0Y941D02*
X7Y941D01*
X71Y941D02*
X79Y941D01*
X1932Y941D02*
X1946Y941D01*
X1980Y941D02*
X1994Y941D01*
X2047Y941D02*
X2055Y941D01*
X2802Y941D02*
X2809Y941D01*
X0Y940D02*
X7Y940D01*
X71Y940D02*
X79Y940D01*
X1931Y940D02*
X1944Y940D01*
X1982Y940D02*
X1995Y940D01*
X2047Y940D02*
X2055Y940D01*
X2802Y940D02*
X2809Y940D01*
X0Y939D02*
X7Y939D01*
X70Y939D02*
X78Y939D01*
X1929Y939D02*
X1942Y939D01*
X1984Y939D02*
X1996Y939D01*
X2048Y939D02*
X2055Y939D01*
X2802Y939D02*
X2809Y939D01*
X0Y938D02*
X7Y938D01*
X70Y938D02*
X78Y938D01*
X1928Y938D02*
X1940Y938D01*
X1986Y938D02*
X1998Y938D01*
X2048Y938D02*
X2056Y938D01*
X2802Y938D02*
X2809Y938D01*
X0Y937D02*
X7Y937D01*
X70Y937D02*
X77Y937D01*
X1927Y937D02*
X1939Y937D01*
X1987Y937D02*
X1998Y937D01*
X2049Y937D02*
X2056Y937D01*
X2802Y937D02*
X2809Y937D01*
X0Y936D02*
X7Y936D01*
X69Y936D02*
X77Y936D01*
X1926Y936D02*
X1937Y936D01*
X1989Y936D02*
X1999Y936D01*
X2049Y936D02*
X2057Y936D01*
X2802Y936D02*
X2809Y936D01*
X0Y935D02*
X7Y935D01*
X69Y935D02*
X76Y935D01*
X1926Y935D02*
X1936Y935D01*
X1990Y935D02*
X2000Y935D01*
X2050Y935D02*
X2057Y935D01*
X2802Y935D02*
X2809Y935D01*
X0Y934D02*
X7Y934D01*
X69Y934D02*
X76Y934D01*
X1925Y934D02*
X1935Y934D01*
X1991Y934D02*
X2001Y934D01*
X2050Y934D02*
X2057Y934D01*
X2802Y934D02*
X2809Y934D01*
X0Y933D02*
X7Y933D01*
X68Y933D02*
X76Y933D01*
X1924Y933D02*
X1934Y933D01*
X1992Y933D02*
X2002Y933D01*
X2050Y933D02*
X2058Y933D01*
X2802Y933D02*
X2809Y933D01*
X0Y932D02*
X7Y932D01*
X68Y932D02*
X75Y932D01*
X1923Y932D02*
X1933Y932D01*
X1993Y932D02*
X2003Y932D01*
X2051Y932D02*
X2058Y932D01*
X2802Y932D02*
X2809Y932D01*
X0Y931D02*
X7Y931D01*
X68Y931D02*
X75Y931D01*
X1922Y931D02*
X1932Y931D01*
X1994Y931D02*
X2003Y931D01*
X2051Y931D02*
X2058Y931D01*
X2802Y931D02*
X2809Y931D01*
X0Y930D02*
X7Y930D01*
X67Y930D02*
X75Y930D01*
X1922Y930D02*
X1931Y930D01*
X1995Y930D02*
X2004Y930D01*
X2051Y930D02*
X2059Y930D01*
X2802Y930D02*
X2809Y930D01*
X0Y929D02*
X7Y929D01*
X67Y929D02*
X74Y929D01*
X1921Y929D02*
X1930Y929D01*
X1996Y929D02*
X2005Y929D01*
X2052Y929D02*
X2059Y929D01*
X2802Y929D02*
X2809Y929D01*
X0Y928D02*
X7Y928D01*
X67Y928D02*
X74Y928D01*
X1921Y928D02*
X1929Y928D01*
X1997Y928D02*
X2005Y928D01*
X2052Y928D02*
X2059Y928D01*
X2802Y928D02*
X2809Y928D01*
X0Y927D02*
X7Y927D01*
X67Y927D02*
X74Y927D01*
X1920Y927D02*
X1928Y927D01*
X1997Y927D02*
X2006Y927D01*
X2052Y927D02*
X2059Y927D01*
X2802Y927D02*
X2809Y927D01*
X0Y926D02*
X7Y926D01*
X66Y926D02*
X73Y926D01*
X1919Y926D02*
X1928Y926D01*
X1998Y926D02*
X2006Y926D01*
X2052Y926D02*
X2060Y926D01*
X2802Y926D02*
X2809Y926D01*
X0Y925D02*
X7Y925D01*
X66Y925D02*
X73Y925D01*
X1919Y925D02*
X1927Y925D01*
X1999Y925D02*
X2007Y925D01*
X2053Y925D02*
X2060Y925D01*
X2802Y925D02*
X2809Y925D01*
X0Y924D02*
X7Y924D01*
X66Y924D02*
X73Y924D01*
X1918Y924D02*
X1926Y924D01*
X1999Y924D02*
X2007Y924D01*
X2053Y924D02*
X2060Y924D01*
X2802Y924D02*
X2809Y924D01*
X0Y923D02*
X7Y923D01*
X66Y923D02*
X73Y923D01*
X1918Y923D02*
X1926Y923D01*
X2000Y923D02*
X2008Y923D01*
X2053Y923D02*
X2060Y923D01*
X2802Y923D02*
X2809Y923D01*
X0Y922D02*
X7Y922D01*
X65Y922D02*
X73Y922D01*
X1917Y922D02*
X1925Y922D01*
X2001Y922D02*
X2008Y922D01*
X2053Y922D02*
X2060Y922D01*
X2802Y922D02*
X2809Y922D01*
X0Y921D02*
X7Y921D01*
X65Y921D02*
X72Y921D01*
X1917Y921D02*
X1925Y921D01*
X2001Y921D02*
X2009Y921D01*
X2054Y921D02*
X2061Y921D01*
X2802Y921D02*
X2809Y921D01*
X0Y920D02*
X7Y920D01*
X65Y920D02*
X72Y920D01*
X1917Y920D02*
X1924Y920D01*
X2002Y920D02*
X2009Y920D01*
X2054Y920D02*
X2061Y920D01*
X2802Y920D02*
X2809Y920D01*
X0Y919D02*
X7Y919D01*
X65Y919D02*
X72Y919D01*
X1916Y919D02*
X1924Y919D01*
X2002Y919D02*
X2009Y919D01*
X2054Y919D02*
X2061Y919D01*
X2802Y919D02*
X2809Y919D01*
X0Y918D02*
X7Y918D01*
X65Y918D02*
X72Y918D01*
X1916Y918D02*
X1923Y918D01*
X2002Y918D02*
X2010Y918D01*
X2054Y918D02*
X2061Y918D01*
X2802Y918D02*
X2809Y918D01*
X0Y917D02*
X7Y917D01*
X65Y917D02*
X72Y917D01*
X1916Y917D02*
X1923Y917D01*
X2003Y917D02*
X2010Y917D01*
X2054Y917D02*
X2061Y917D01*
X2802Y917D02*
X2809Y917D01*
X0Y916D02*
X7Y916D01*
X64Y916D02*
X71Y916D01*
X1915Y916D02*
X1923Y916D01*
X2003Y916D02*
X2010Y916D01*
X2054Y916D02*
X2061Y916D01*
X2802Y916D02*
X2809Y916D01*
X0Y915D02*
X7Y915D01*
X64Y915D02*
X71Y915D01*
X1915Y915D02*
X1922Y915D01*
X2004Y915D02*
X2011Y915D01*
X2055Y915D02*
X2062Y915D01*
X2802Y915D02*
X2809Y915D01*
X0Y914D02*
X7Y914D01*
X64Y914D02*
X71Y914D01*
X1915Y914D02*
X1922Y914D01*
X2004Y914D02*
X2011Y914D01*
X2055Y914D02*
X2062Y914D01*
X2802Y914D02*
X2809Y914D01*
X0Y913D02*
X7Y913D01*
X64Y913D02*
X71Y913D01*
X1915Y913D02*
X1922Y913D01*
X2004Y913D02*
X2011Y913D01*
X2055Y913D02*
X2062Y913D01*
X2802Y913D02*
X2809Y913D01*
X0Y912D02*
X7Y912D01*
X64Y912D02*
X71Y912D01*
X1914Y912D02*
X1922Y912D01*
X2004Y912D02*
X2011Y912D01*
X2055Y912D02*
X2062Y912D01*
X2802Y912D02*
X2809Y912D01*
X0Y911D02*
X7Y911D01*
X64Y911D02*
X71Y911D01*
X1914Y911D02*
X1921Y911D01*
X2005Y911D02*
X2012Y911D01*
X2055Y911D02*
X2062Y911D01*
X2802Y911D02*
X2809Y911D01*
X0Y910D02*
X7Y910D01*
X64Y910D02*
X71Y910D01*
X1914Y910D02*
X1921Y910D01*
X2005Y910D02*
X2012Y910D01*
X2055Y910D02*
X2062Y910D01*
X2802Y910D02*
X2809Y910D01*
X0Y909D02*
X7Y909D01*
X64Y909D02*
X71Y909D01*
X1914Y909D02*
X1921Y909D01*
X2005Y909D02*
X2012Y909D01*
X2055Y909D02*
X2062Y909D01*
X2802Y909D02*
X2809Y909D01*
X0Y908D02*
X7Y908D01*
X64Y908D02*
X71Y908D01*
X1914Y908D02*
X1921Y908D01*
X2005Y908D02*
X2012Y908D01*
X2055Y908D02*
X2062Y908D01*
X2802Y908D02*
X2809Y908D01*
X0Y907D02*
X7Y907D01*
X64Y907D02*
X71Y907D01*
X1914Y907D02*
X1921Y907D01*
X2005Y907D02*
X2012Y907D01*
X2055Y907D02*
X2062Y907D01*
X2802Y907D02*
X2809Y907D01*
X0Y906D02*
X7Y906D01*
X64Y906D02*
X71Y906D01*
X1914Y906D02*
X1921Y906D01*
X2005Y906D02*
X2012Y906D01*
X2055Y906D02*
X2062Y906D01*
X2802Y906D02*
X2809Y906D01*
X0Y905D02*
X7Y905D01*
X64Y905D02*
X71Y905D01*
X1914Y905D02*
X1921Y905D01*
X2005Y905D02*
X2012Y905D01*
X2055Y905D02*
X2062Y905D01*
X2802Y905D02*
X2809Y905D01*
X0Y904D02*
X7Y904D01*
X63Y904D02*
X70Y904D01*
X1913Y904D02*
X1920Y904D01*
X2005Y904D02*
X2012Y904D01*
X2055Y904D02*
X2062Y904D01*
X2802Y904D02*
X2809Y904D01*
X0Y903D02*
X7Y903D01*
X64Y903D02*
X70Y903D01*
X1913Y903D02*
X1920Y903D01*
X2005Y903D02*
X2012Y903D01*
X2055Y903D02*
X2062Y903D01*
X2802Y903D02*
X2809Y903D01*
X0Y902D02*
X7Y902D01*
X64Y902D02*
X70Y902D01*
X1913Y902D02*
X1920Y902D01*
X2005Y902D02*
X2012Y902D01*
X2055Y902D02*
X2062Y902D01*
X2802Y902D02*
X2809Y902D01*
X0Y901D02*
X7Y901D01*
X64Y901D02*
X71Y901D01*
X1913Y901D02*
X1920Y901D01*
X2005Y901D02*
X2012Y901D01*
X2055Y901D02*
X2062Y901D01*
X2802Y901D02*
X2809Y901D01*
X0Y900D02*
X7Y900D01*
X64Y900D02*
X71Y900D01*
X1914Y900D02*
X1921Y900D01*
X2005Y900D02*
X2012Y900D01*
X2055Y900D02*
X2062Y900D01*
X2802Y900D02*
X2809Y900D01*
X0Y899D02*
X7Y899D01*
X63Y899D02*
X71Y899D01*
X1914Y899D02*
X1921Y899D01*
X2005Y899D02*
X2012Y899D01*
X2055Y899D02*
X2062Y899D01*
X2802Y899D02*
X2809Y899D01*
X0Y898D02*
X7Y898D01*
X64Y898D02*
X71Y898D01*
X1914Y898D02*
X1921Y898D01*
X2005Y898D02*
X2012Y898D01*
X2055Y898D02*
X2062Y898D01*
X2802Y898D02*
X2809Y898D01*
X0Y897D02*
X7Y897D01*
X64Y897D02*
X71Y897D01*
X1914Y897D02*
X1921Y897D01*
X2005Y897D02*
X2012Y897D01*
X2055Y897D02*
X2062Y897D01*
X2802Y897D02*
X2809Y897D01*
X0Y896D02*
X7Y896D01*
X64Y896D02*
X71Y896D01*
X1914Y896D02*
X1921Y896D01*
X2005Y896D02*
X2012Y896D01*
X2055Y896D02*
X2062Y896D01*
X2802Y896D02*
X2809Y896D01*
X0Y895D02*
X7Y895D01*
X64Y895D02*
X71Y895D01*
X1914Y895D02*
X1921Y895D01*
X2005Y895D02*
X2012Y895D01*
X2055Y895D02*
X2062Y895D01*
X2802Y895D02*
X2809Y895D01*
X0Y894D02*
X7Y894D01*
X64Y894D02*
X71Y894D01*
X1914Y894D02*
X1921Y894D01*
X2005Y894D02*
X2012Y894D01*
X2055Y894D02*
X2062Y894D01*
X2802Y894D02*
X2809Y894D01*
X0Y893D02*
X7Y893D01*
X64Y893D02*
X71Y893D01*
X1914Y893D02*
X1921Y893D01*
X2004Y893D02*
X2011Y893D01*
X2055Y893D02*
X2062Y893D01*
X2802Y893D02*
X2809Y893D01*
X0Y892D02*
X7Y892D01*
X64Y892D02*
X71Y892D01*
X1915Y892D02*
X1922Y892D01*
X2004Y892D02*
X2011Y892D01*
X2055Y892D02*
X2062Y892D01*
X2802Y892D02*
X2809Y892D01*
X0Y891D02*
X7Y891D01*
X64Y891D02*
X71Y891D01*
X1915Y891D02*
X1922Y891D01*
X2004Y891D02*
X2011Y891D01*
X2055Y891D02*
X2062Y891D01*
X2802Y891D02*
X2809Y891D01*
X0Y890D02*
X7Y890D01*
X64Y890D02*
X71Y890D01*
X1915Y890D02*
X1922Y890D01*
X2004Y890D02*
X2011Y890D01*
X2055Y890D02*
X2062Y890D01*
X2802Y890D02*
X2809Y890D01*
X0Y889D02*
X7Y889D01*
X64Y889D02*
X71Y889D01*
X1915Y889D02*
X1923Y889D01*
X2003Y889D02*
X2010Y889D01*
X2055Y889D02*
X2062Y889D01*
X2802Y889D02*
X2809Y889D01*
X0Y888D02*
X7Y888D01*
X64Y888D02*
X71Y888D01*
X1916Y888D02*
X1923Y888D01*
X2003Y888D02*
X2010Y888D01*
X2055Y888D02*
X2062Y888D01*
X2802Y888D02*
X2809Y888D01*
X0Y887D02*
X7Y887D01*
X64Y887D02*
X71Y887D01*
X1916Y887D02*
X1923Y887D01*
X2003Y887D02*
X2010Y887D01*
X2055Y887D02*
X2062Y887D01*
X2802Y887D02*
X2809Y887D01*
X0Y886D02*
X7Y886D01*
X64Y886D02*
X71Y886D01*
X1916Y886D02*
X1924Y886D01*
X2002Y886D02*
X2010Y886D01*
X2055Y886D02*
X2062Y886D01*
X2802Y886D02*
X2809Y886D01*
X0Y885D02*
X7Y885D01*
X64Y885D02*
X71Y885D01*
X1917Y885D02*
X1924Y885D01*
X2002Y885D02*
X2009Y885D01*
X2055Y885D02*
X2062Y885D01*
X2802Y885D02*
X2809Y885D01*
X0Y884D02*
X7Y884D01*
X64Y884D02*
X71Y884D01*
X1917Y884D02*
X1925Y884D01*
X2001Y884D02*
X2009Y884D01*
X2055Y884D02*
X2062Y884D01*
X2802Y884D02*
X2809Y884D01*
X0Y883D02*
X7Y883D01*
X64Y883D02*
X71Y883D01*
X1917Y883D02*
X1925Y883D01*
X2001Y883D02*
X2008Y883D01*
X2055Y883D02*
X2062Y883D01*
X2802Y883D02*
X2809Y883D01*
X0Y882D02*
X7Y882D01*
X64Y882D02*
X71Y882D01*
X1918Y882D02*
X1926Y882D01*
X2000Y882D02*
X2008Y882D01*
X2055Y882D02*
X2062Y882D01*
X2802Y882D02*
X2809Y882D01*
X0Y881D02*
X7Y881D01*
X64Y881D02*
X71Y881D01*
X1918Y881D02*
X1926Y881D01*
X2000Y881D02*
X2007Y881D01*
X2055Y881D02*
X2062Y881D01*
X2802Y881D02*
X2809Y881D01*
X0Y880D02*
X7Y880D01*
X64Y880D02*
X71Y880D01*
X1919Y880D02*
X1927Y880D01*
X1999Y880D02*
X2007Y880D01*
X2055Y880D02*
X2062Y880D01*
X2802Y880D02*
X2809Y880D01*
X0Y879D02*
X7Y879D01*
X64Y879D02*
X71Y879D01*
X1919Y879D02*
X1928Y879D01*
X1998Y879D02*
X2006Y879D01*
X2055Y879D02*
X2062Y879D01*
X2802Y879D02*
X2809Y879D01*
X0Y878D02*
X7Y878D01*
X64Y878D02*
X71Y878D01*
X1920Y878D02*
X1928Y878D01*
X1998Y878D02*
X2006Y878D01*
X2055Y878D02*
X2062Y878D01*
X2802Y878D02*
X2809Y878D01*
X0Y877D02*
X7Y877D01*
X64Y877D02*
X71Y877D01*
X1921Y877D02*
X1929Y877D01*
X1997Y877D02*
X2005Y877D01*
X2055Y877D02*
X2062Y877D01*
X2802Y877D02*
X2809Y877D01*
X0Y876D02*
X7Y876D01*
X64Y876D02*
X71Y876D01*
X1921Y876D02*
X1930Y876D01*
X1996Y876D02*
X2005Y876D01*
X2055Y876D02*
X2062Y876D01*
X2802Y876D02*
X2809Y876D01*
X0Y875D02*
X7Y875D01*
X64Y875D02*
X71Y875D01*
X1922Y875D02*
X1931Y875D01*
X1995Y875D02*
X2004Y875D01*
X2055Y875D02*
X2062Y875D01*
X2802Y875D02*
X2809Y875D01*
X0Y874D02*
X7Y874D01*
X64Y874D02*
X71Y874D01*
X1922Y874D02*
X1932Y874D01*
X1994Y874D02*
X2003Y874D01*
X2055Y874D02*
X2062Y874D01*
X2802Y874D02*
X2809Y874D01*
X0Y873D02*
X7Y873D01*
X64Y873D02*
X71Y873D01*
X1923Y873D02*
X1932Y873D01*
X1993Y873D02*
X2003Y873D01*
X2055Y873D02*
X2062Y873D01*
X2802Y873D02*
X2809Y873D01*
X0Y872D02*
X7Y872D01*
X64Y872D02*
X71Y872D01*
X1924Y872D02*
X1934Y872D01*
X1992Y872D02*
X2002Y872D01*
X2055Y872D02*
X2062Y872D01*
X2802Y872D02*
X2809Y872D01*
X0Y871D02*
X7Y871D01*
X64Y871D02*
X71Y871D01*
X1925Y871D02*
X1935Y871D01*
X1991Y871D02*
X2001Y871D01*
X2055Y871D02*
X2062Y871D01*
X2802Y871D02*
X2809Y871D01*
X0Y870D02*
X7Y870D01*
X64Y870D02*
X71Y870D01*
X1925Y870D02*
X1936Y870D01*
X1990Y870D02*
X2000Y870D01*
X2055Y870D02*
X2062Y870D01*
X2802Y870D02*
X2809Y870D01*
X0Y869D02*
X7Y869D01*
X64Y869D02*
X71Y869D01*
X1926Y869D02*
X1937Y869D01*
X1989Y869D02*
X1999Y869D01*
X2055Y869D02*
X2062Y869D01*
X2802Y869D02*
X2809Y869D01*
X0Y868D02*
X7Y868D01*
X64Y868D02*
X71Y868D01*
X1927Y868D02*
X1938Y868D01*
X1987Y868D02*
X1999Y868D01*
X2055Y868D02*
X2062Y868D01*
X2802Y868D02*
X2809Y868D01*
X0Y867D02*
X7Y867D01*
X64Y867D02*
X71Y867D01*
X1928Y867D02*
X1940Y867D01*
X1986Y867D02*
X1998Y867D01*
X2055Y867D02*
X2062Y867D01*
X2802Y867D02*
X2809Y867D01*
X0Y866D02*
X7Y866D01*
X64Y866D02*
X71Y866D01*
X1929Y866D02*
X1942Y866D01*
X1984Y866D02*
X1997Y866D01*
X2055Y866D02*
X2062Y866D01*
X2802Y866D02*
X2809Y866D01*
X0Y865D02*
X7Y865D01*
X64Y865D02*
X71Y865D01*
X1930Y865D02*
X1943Y865D01*
X1982Y865D02*
X1995Y865D01*
X2055Y865D02*
X2062Y865D01*
X2802Y865D02*
X2809Y865D01*
X0Y864D02*
X7Y864D01*
X64Y864D02*
X71Y864D01*
X1932Y864D02*
X1945Y864D01*
X1980Y864D02*
X1994Y864D01*
X2055Y864D02*
X2062Y864D01*
X2802Y864D02*
X2809Y864D01*
X0Y863D02*
X7Y863D01*
X64Y863D02*
X71Y863D01*
X1933Y863D02*
X1948Y863D01*
X1978Y863D02*
X1993Y863D01*
X2055Y863D02*
X2062Y863D01*
X2802Y863D02*
X2809Y863D01*
X0Y862D02*
X7Y862D01*
X64Y862D02*
X71Y862D01*
X1934Y862D02*
X1951Y862D01*
X1975Y862D02*
X1992Y862D01*
X2055Y862D02*
X2062Y862D01*
X2802Y862D02*
X2809Y862D01*
X0Y861D02*
X7Y861D01*
X64Y861D02*
X71Y861D01*
X1936Y861D02*
X1956Y861D01*
X1970Y861D02*
X1990Y861D01*
X2055Y861D02*
X2062Y861D01*
X2802Y861D02*
X2809Y861D01*
X0Y860D02*
X7Y860D01*
X64Y860D02*
X71Y860D01*
X1937Y860D02*
X1989Y860D01*
X2055Y860D02*
X2062Y860D01*
X2802Y860D02*
X2809Y860D01*
X0Y859D02*
X7Y859D01*
X64Y859D02*
X71Y859D01*
X1939Y859D02*
X1987Y859D01*
X2055Y859D02*
X2062Y859D01*
X2802Y859D02*
X2809Y859D01*
X0Y858D02*
X7Y858D01*
X64Y858D02*
X71Y858D01*
X1941Y858D02*
X1985Y858D01*
X2055Y858D02*
X2062Y858D01*
X2802Y858D02*
X2809Y858D01*
X0Y857D02*
X7Y857D01*
X64Y857D02*
X71Y857D01*
X1943Y857D02*
X1983Y857D01*
X2055Y857D02*
X2062Y857D01*
X2802Y857D02*
X2809Y857D01*
X0Y856D02*
X7Y856D01*
X64Y856D02*
X71Y856D01*
X1945Y856D02*
X1981Y856D01*
X2055Y856D02*
X2062Y856D01*
X2802Y856D02*
X2809Y856D01*
X0Y855D02*
X7Y855D01*
X64Y855D02*
X71Y855D01*
X1948Y855D02*
X1978Y855D01*
X2055Y855D02*
X2062Y855D01*
X2802Y855D02*
X2809Y855D01*
X0Y854D02*
X7Y854D01*
X64Y854D02*
X71Y854D01*
X1952Y854D02*
X1974Y854D01*
X2055Y854D02*
X2062Y854D01*
X2802Y854D02*
X2809Y854D01*
X0Y853D02*
X7Y853D01*
X64Y853D02*
X71Y853D01*
X1957Y853D02*
X1969Y853D01*
X2055Y853D02*
X2062Y853D01*
X2802Y853D02*
X2809Y853D01*
X0Y852D02*
X7Y852D01*
X64Y852D02*
X71Y852D01*
X2055Y852D02*
X2062Y852D01*
X2802Y852D02*
X2809Y852D01*
X0Y851D02*
X7Y851D01*
X64Y851D02*
X71Y851D01*
X2055Y851D02*
X2062Y851D01*
X2802Y851D02*
X2809Y851D01*
X0Y850D02*
X7Y850D01*
X64Y850D02*
X71Y850D01*
X2055Y850D02*
X2062Y850D01*
X2802Y850D02*
X2809Y850D01*
X0Y849D02*
X7Y849D01*
X64Y849D02*
X71Y849D01*
X2055Y849D02*
X2062Y849D01*
X2802Y849D02*
X2809Y849D01*
X0Y848D02*
X7Y848D01*
X64Y848D02*
X71Y848D01*
X2055Y848D02*
X2062Y848D01*
X2802Y848D02*
X2809Y848D01*
X0Y847D02*
X7Y847D01*
X64Y847D02*
X71Y847D01*
X2055Y847D02*
X2062Y847D01*
X2802Y847D02*
X2809Y847D01*
X0Y846D02*
X7Y846D01*
X64Y846D02*
X71Y846D01*
X2055Y846D02*
X2062Y846D01*
X2802Y846D02*
X2809Y846D01*
X0Y845D02*
X7Y845D01*
X64Y845D02*
X71Y845D01*
X2055Y845D02*
X2062Y845D01*
X2802Y845D02*
X2809Y845D01*
X0Y844D02*
X7Y844D01*
X64Y844D02*
X71Y844D01*
X2055Y844D02*
X2062Y844D01*
X2802Y844D02*
X2809Y844D01*
X0Y843D02*
X7Y843D01*
X64Y843D02*
X71Y843D01*
X2055Y843D02*
X2062Y843D01*
X2802Y843D02*
X2809Y843D01*
X0Y842D02*
X7Y842D01*
X64Y842D02*
X71Y842D01*
X2055Y842D02*
X2062Y842D01*
X2802Y842D02*
X2809Y842D01*
X0Y841D02*
X7Y841D01*
X64Y841D02*
X71Y841D01*
X2055Y841D02*
X2062Y841D01*
X2802Y841D02*
X2809Y841D01*
X0Y840D02*
X7Y840D01*
X64Y840D02*
X71Y840D01*
X2055Y840D02*
X2062Y840D01*
X2802Y840D02*
X2809Y840D01*
X0Y839D02*
X7Y839D01*
X64Y839D02*
X71Y839D01*
X2055Y839D02*
X2062Y839D01*
X2802Y839D02*
X2809Y839D01*
X0Y838D02*
X7Y838D01*
X64Y838D02*
X71Y838D01*
X2055Y838D02*
X2062Y838D01*
X2802Y838D02*
X2809Y838D01*
X0Y837D02*
X7Y837D01*
X64Y837D02*
X71Y837D01*
X2055Y837D02*
X2062Y837D01*
X2802Y837D02*
X2809Y837D01*
X0Y836D02*
X7Y836D01*
X64Y836D02*
X71Y836D01*
X2055Y836D02*
X2062Y836D01*
X2802Y836D02*
X2809Y836D01*
X0Y835D02*
X7Y835D01*
X64Y835D02*
X71Y835D01*
X2055Y835D02*
X2062Y835D01*
X2802Y835D02*
X2809Y835D01*
X0Y834D02*
X7Y834D01*
X64Y834D02*
X71Y834D01*
X2055Y834D02*
X2062Y834D01*
X2802Y834D02*
X2809Y834D01*
X0Y833D02*
X7Y833D01*
X64Y833D02*
X71Y833D01*
X2055Y833D02*
X2062Y833D01*
X2802Y833D02*
X2809Y833D01*
X0Y832D02*
X7Y832D01*
X64Y832D02*
X71Y832D01*
X2055Y832D02*
X2062Y832D01*
X2802Y832D02*
X2809Y832D01*
X0Y831D02*
X7Y831D01*
X64Y831D02*
X71Y831D01*
X2055Y831D02*
X2062Y831D01*
X2802Y831D02*
X2809Y831D01*
X0Y830D02*
X7Y830D01*
X64Y830D02*
X71Y830D01*
X2055Y830D02*
X2062Y830D01*
X2802Y830D02*
X2809Y830D01*
X0Y829D02*
X7Y829D01*
X64Y829D02*
X71Y829D01*
X2055Y829D02*
X2062Y829D01*
X2802Y829D02*
X2809Y829D01*
X0Y828D02*
X7Y828D01*
X64Y828D02*
X71Y828D01*
X2055Y828D02*
X2062Y828D01*
X2802Y828D02*
X2809Y828D01*
X0Y827D02*
X7Y827D01*
X64Y827D02*
X71Y827D01*
X2055Y827D02*
X2062Y827D01*
X2802Y827D02*
X2809Y827D01*
X0Y826D02*
X7Y826D01*
X64Y826D02*
X71Y826D01*
X2055Y826D02*
X2062Y826D01*
X2802Y826D02*
X2809Y826D01*
X0Y825D02*
X7Y825D01*
X64Y825D02*
X71Y825D01*
X2055Y825D02*
X2062Y825D01*
X2802Y825D02*
X2809Y825D01*
X0Y824D02*
X7Y824D01*
X64Y824D02*
X71Y824D01*
X2055Y824D02*
X2062Y824D01*
X2802Y824D02*
X2809Y824D01*
X0Y823D02*
X7Y823D01*
X64Y823D02*
X71Y823D01*
X2055Y823D02*
X2062Y823D01*
X2802Y823D02*
X2809Y823D01*
X0Y822D02*
X7Y822D01*
X64Y822D02*
X71Y822D01*
X2055Y822D02*
X2062Y822D01*
X2802Y822D02*
X2809Y822D01*
X0Y821D02*
X7Y821D01*
X64Y821D02*
X71Y821D01*
X2055Y821D02*
X2062Y821D01*
X2802Y821D02*
X2809Y821D01*
X0Y820D02*
X7Y820D01*
X64Y820D02*
X71Y820D01*
X2055Y820D02*
X2062Y820D01*
X2802Y820D02*
X2809Y820D01*
X0Y819D02*
X7Y819D01*
X64Y819D02*
X71Y819D01*
X2055Y819D02*
X2062Y819D01*
X2802Y819D02*
X2809Y819D01*
X0Y818D02*
X7Y818D01*
X64Y818D02*
X71Y818D01*
X2055Y818D02*
X2062Y818D01*
X2802Y818D02*
X2809Y818D01*
X0Y817D02*
X7Y817D01*
X64Y817D02*
X71Y817D01*
X2055Y817D02*
X2062Y817D01*
X2802Y817D02*
X2809Y817D01*
X0Y816D02*
X7Y816D01*
X64Y816D02*
X71Y816D01*
X2055Y816D02*
X2062Y816D01*
X2802Y816D02*
X2809Y816D01*
X0Y815D02*
X7Y815D01*
X64Y815D02*
X71Y815D01*
X2055Y815D02*
X2062Y815D01*
X2802Y815D02*
X2809Y815D01*
X0Y814D02*
X7Y814D01*
X64Y814D02*
X71Y814D01*
X2055Y814D02*
X2062Y814D01*
X2802Y814D02*
X2809Y814D01*
X0Y813D02*
X7Y813D01*
X64Y813D02*
X71Y813D01*
X2055Y813D02*
X2062Y813D01*
X2802Y813D02*
X2809Y813D01*
X0Y812D02*
X7Y812D01*
X64Y812D02*
X71Y812D01*
X2055Y812D02*
X2062Y812D01*
X2802Y812D02*
X2809Y812D01*
X0Y811D02*
X7Y811D01*
X64Y811D02*
X71Y811D01*
X2055Y811D02*
X2062Y811D01*
X2802Y811D02*
X2809Y811D01*
X0Y810D02*
X7Y810D01*
X64Y810D02*
X71Y810D01*
X1608Y810D02*
X1612Y810D01*
X1614Y810D02*
X1617Y810D01*
X2055Y810D02*
X2062Y810D01*
X2802Y810D02*
X2809Y810D01*
X0Y809D02*
X7Y809D01*
X64Y809D02*
X71Y809D01*
X1608Y809D02*
X1617Y809D01*
X2055Y809D02*
X2062Y809D01*
X2802Y809D02*
X2809Y809D01*
X0Y808D02*
X7Y808D01*
X64Y808D02*
X71Y808D01*
X1608Y808D02*
X1617Y808D01*
X2055Y808D02*
X2062Y808D01*
X2802Y808D02*
X2809Y808D01*
X0Y807D02*
X7Y807D01*
X64Y807D02*
X71Y807D01*
X1608Y807D02*
X1617Y807D01*
X2055Y807D02*
X2062Y807D01*
X2802Y807D02*
X2809Y807D01*
X0Y806D02*
X7Y806D01*
X64Y806D02*
X71Y806D01*
X1608Y806D02*
X1617Y806D01*
X2055Y806D02*
X2062Y806D01*
X2802Y806D02*
X2809Y806D01*
X0Y805D02*
X7Y805D01*
X64Y805D02*
X71Y805D01*
X1608Y805D02*
X1617Y805D01*
X2055Y805D02*
X2062Y805D01*
X2802Y805D02*
X2809Y805D01*
X0Y804D02*
X7Y804D01*
X64Y804D02*
X71Y804D01*
X1608Y804D02*
X1617Y804D01*
X2055Y804D02*
X2062Y804D01*
X2802Y804D02*
X2809Y804D01*
X0Y803D02*
X7Y803D01*
X64Y803D02*
X71Y803D01*
X1608Y803D02*
X1617Y803D01*
X2055Y803D02*
X2062Y803D01*
X2802Y803D02*
X2809Y803D01*
X0Y802D02*
X7Y802D01*
X64Y802D02*
X71Y802D01*
X1608Y802D02*
X1617Y802D01*
X2055Y802D02*
X2062Y802D01*
X2153Y802D02*
X2622Y802D01*
X2802Y802D02*
X2809Y802D01*
X0Y801D02*
X7Y801D01*
X64Y801D02*
X71Y801D01*
X1608Y801D02*
X1617Y801D01*
X2055Y801D02*
X2062Y801D01*
X2146Y801D02*
X2630Y801D01*
X2802Y801D02*
X2809Y801D01*
X0Y800D02*
X7Y800D01*
X64Y800D02*
X71Y800D01*
X1608Y800D02*
X1617Y800D01*
X2055Y800D02*
X2062Y800D01*
X2141Y800D02*
X2635Y800D01*
X2802Y800D02*
X2809Y800D01*
X0Y799D02*
X7Y799D01*
X64Y799D02*
X71Y799D01*
X1608Y799D02*
X1617Y799D01*
X2055Y799D02*
X2062Y799D01*
X2137Y799D02*
X2638Y799D01*
X2802Y799D02*
X2809Y799D01*
X0Y798D02*
X7Y798D01*
X64Y798D02*
X71Y798D01*
X1608Y798D02*
X1617Y798D01*
X2055Y798D02*
X2062Y798D01*
X2134Y798D02*
X2642Y798D01*
X2802Y798D02*
X2809Y798D01*
X0Y797D02*
X7Y797D01*
X64Y797D02*
X71Y797D01*
X1608Y797D02*
X1617Y797D01*
X2055Y797D02*
X2062Y797D01*
X2131Y797D02*
X2645Y797D01*
X2802Y797D02*
X2809Y797D01*
X0Y796D02*
X7Y796D01*
X64Y796D02*
X71Y796D01*
X1608Y796D02*
X1617Y796D01*
X2055Y796D02*
X2062Y796D01*
X2128Y796D02*
X2648Y796D01*
X2802Y796D02*
X2809Y796D01*
X0Y795D02*
X7Y795D01*
X64Y795D02*
X71Y795D01*
X1608Y795D02*
X1617Y795D01*
X2055Y795D02*
X2062Y795D01*
X2126Y795D02*
X2650Y795D01*
X2802Y795D02*
X2809Y795D01*
X0Y794D02*
X7Y794D01*
X64Y794D02*
X71Y794D01*
X1608Y794D02*
X1617Y794D01*
X2055Y794D02*
X2062Y794D01*
X2123Y794D02*
X2152Y794D01*
X2623Y794D02*
X2653Y794D01*
X2802Y794D02*
X2809Y794D01*
X0Y793D02*
X7Y793D01*
X64Y793D02*
X71Y793D01*
X1608Y793D02*
X1617Y793D01*
X2055Y793D02*
X2062Y793D01*
X2121Y793D02*
X2145Y793D01*
X2630Y793D02*
X2655Y793D01*
X2802Y793D02*
X2809Y793D01*
X0Y792D02*
X7Y792D01*
X64Y792D02*
X71Y792D01*
X1608Y792D02*
X1617Y792D01*
X2055Y792D02*
X2062Y792D01*
X2119Y792D02*
X2141Y792D01*
X2635Y792D02*
X2657Y792D01*
X2802Y792D02*
X2809Y792D01*
X0Y791D02*
X7Y791D01*
X64Y791D02*
X71Y791D01*
X1608Y791D02*
X1617Y791D01*
X2055Y791D02*
X2062Y791D01*
X2117Y791D02*
X2137Y791D01*
X2639Y791D02*
X2659Y791D01*
X2802Y791D02*
X2809Y791D01*
X0Y790D02*
X7Y790D01*
X64Y790D02*
X71Y790D01*
X1608Y790D02*
X1617Y790D01*
X2055Y790D02*
X2062Y790D01*
X2115Y790D02*
X2134Y790D01*
X2642Y790D02*
X2661Y790D01*
X2802Y790D02*
X2809Y790D01*
X0Y789D02*
X7Y789D01*
X64Y789D02*
X71Y789D01*
X1608Y789D02*
X1617Y789D01*
X2055Y789D02*
X2062Y789D01*
X2113Y789D02*
X2131Y789D01*
X2645Y789D02*
X2662Y789D01*
X2802Y789D02*
X2809Y789D01*
X0Y788D02*
X7Y788D01*
X64Y788D02*
X71Y788D01*
X1608Y788D02*
X1617Y788D01*
X2055Y788D02*
X2062Y788D01*
X2112Y788D02*
X2128Y788D01*
X2648Y788D02*
X2664Y788D01*
X2802Y788D02*
X2809Y788D01*
X0Y787D02*
X7Y787D01*
X64Y787D02*
X71Y787D01*
X1608Y787D02*
X1617Y787D01*
X2055Y787D02*
X2062Y787D01*
X2110Y787D02*
X2126Y787D01*
X2650Y787D02*
X2666Y787D01*
X2802Y787D02*
X2809Y787D01*
X0Y786D02*
X7Y786D01*
X64Y786D02*
X71Y786D01*
X1608Y786D02*
X1617Y786D01*
X2055Y786D02*
X2062Y786D01*
X2108Y786D02*
X2124Y786D01*
X2652Y786D02*
X2667Y786D01*
X2802Y786D02*
X2809Y786D01*
X0Y785D02*
X7Y785D01*
X64Y785D02*
X71Y785D01*
X1608Y785D02*
X1617Y785D01*
X2055Y785D02*
X2062Y785D01*
X2107Y785D02*
X2122Y785D01*
X2654Y785D02*
X2669Y785D01*
X2802Y785D02*
X2809Y785D01*
X0Y784D02*
X7Y784D01*
X64Y784D02*
X71Y784D01*
X1608Y784D02*
X1617Y784D01*
X2055Y784D02*
X2062Y784D01*
X2106Y784D02*
X2119Y784D01*
X2656Y784D02*
X2670Y784D01*
X2802Y784D02*
X2809Y784D01*
X0Y783D02*
X7Y783D01*
X64Y783D02*
X71Y783D01*
X1608Y783D02*
X1617Y783D01*
X2055Y783D02*
X2062Y783D01*
X2104Y783D02*
X2118Y783D01*
X2658Y783D02*
X2672Y783D01*
X2802Y783D02*
X2809Y783D01*
X0Y782D02*
X7Y782D01*
X64Y782D02*
X71Y782D01*
X1608Y782D02*
X1617Y782D01*
X2055Y782D02*
X2062Y782D01*
X2103Y782D02*
X2116Y782D01*
X2660Y782D02*
X2673Y782D01*
X2802Y782D02*
X2809Y782D01*
X0Y781D02*
X7Y781D01*
X64Y781D02*
X71Y781D01*
X1608Y781D02*
X1617Y781D01*
X2055Y781D02*
X2062Y781D01*
X2101Y781D02*
X2114Y781D01*
X2661Y781D02*
X2674Y781D01*
X2802Y781D02*
X2809Y781D01*
X0Y780D02*
X7Y780D01*
X64Y780D02*
X71Y780D01*
X1608Y780D02*
X1617Y780D01*
X2055Y780D02*
X2062Y780D01*
X2100Y780D02*
X2113Y780D01*
X2663Y780D02*
X2676Y780D01*
X2802Y780D02*
X2809Y780D01*
X0Y779D02*
X7Y779D01*
X64Y779D02*
X71Y779D01*
X1608Y779D02*
X1617Y779D01*
X2055Y779D02*
X2062Y779D01*
X2099Y779D02*
X2111Y779D01*
X2665Y779D02*
X2677Y779D01*
X2802Y779D02*
X2809Y779D01*
X0Y778D02*
X7Y778D01*
X64Y778D02*
X71Y778D01*
X1608Y778D02*
X1617Y778D01*
X2055Y778D02*
X2062Y778D01*
X2098Y778D02*
X2110Y778D01*
X2666Y778D02*
X2678Y778D01*
X2802Y778D02*
X2809Y778D01*
X0Y777D02*
X7Y777D01*
X64Y777D02*
X71Y777D01*
X1608Y777D02*
X1617Y777D01*
X2055Y777D02*
X2062Y777D01*
X2097Y777D02*
X2108Y777D01*
X2667Y777D02*
X2679Y777D01*
X2802Y777D02*
X2809Y777D01*
X0Y776D02*
X7Y776D01*
X64Y776D02*
X71Y776D01*
X1608Y776D02*
X1617Y776D01*
X2055Y776D02*
X2062Y776D01*
X2096Y776D02*
X2107Y776D01*
X2669Y776D02*
X2680Y776D01*
X2802Y776D02*
X2809Y776D01*
X0Y775D02*
X7Y775D01*
X64Y775D02*
X71Y775D01*
X1608Y775D02*
X1617Y775D01*
X1859Y775D02*
X1884Y775D01*
X1911Y775D02*
X1938Y775D01*
X2055Y775D02*
X2062Y775D01*
X2094Y775D02*
X2106Y775D01*
X2670Y775D02*
X2681Y775D01*
X2802Y775D02*
X2809Y775D01*
X0Y774D02*
X7Y774D01*
X64Y774D02*
X71Y774D01*
X1608Y774D02*
X1617Y774D01*
X1859Y774D02*
X1887Y774D01*
X1910Y774D02*
X1940Y774D01*
X2055Y774D02*
X2062Y774D01*
X2093Y774D02*
X2104Y774D01*
X2671Y774D02*
X2682Y774D01*
X2802Y774D02*
X2809Y774D01*
X0Y773D02*
X7Y773D01*
X64Y773D02*
X71Y773D01*
X1608Y773D02*
X1617Y773D01*
X1859Y773D02*
X1888Y773D01*
X1909Y773D02*
X1941Y773D01*
X2055Y773D02*
X2062Y773D01*
X2092Y773D02*
X2103Y773D01*
X2672Y773D02*
X2683Y773D01*
X2802Y773D02*
X2809Y773D01*
X0Y772D02*
X7Y772D01*
X64Y772D02*
X71Y772D01*
X1608Y772D02*
X1617Y772D01*
X1859Y772D02*
X1889Y772D01*
X1909Y772D02*
X1941Y772D01*
X2055Y772D02*
X2062Y772D01*
X2091Y772D02*
X2102Y772D01*
X2674Y772D02*
X2684Y772D01*
X2802Y772D02*
X2809Y772D01*
X0Y771D02*
X7Y771D01*
X64Y771D02*
X71Y771D01*
X1608Y771D02*
X1617Y771D01*
X1859Y771D02*
X1890Y771D01*
X1909Y771D02*
X1942Y771D01*
X2055Y771D02*
X2062Y771D01*
X2090Y771D02*
X2101Y771D01*
X2675Y771D02*
X2685Y771D01*
X2802Y771D02*
X2809Y771D01*
X0Y770D02*
X7Y770D01*
X64Y770D02*
X71Y770D01*
X1608Y770D02*
X1617Y770D01*
X1859Y770D02*
X1891Y770D01*
X1910Y770D02*
X1942Y770D01*
X2055Y770D02*
X2062Y770D01*
X2090Y770D02*
X2100Y770D01*
X2676Y770D02*
X2686Y770D01*
X2802Y770D02*
X2809Y770D01*
X0Y769D02*
X7Y769D01*
X64Y769D02*
X71Y769D01*
X1608Y769D02*
X1617Y769D01*
X1859Y769D02*
X1891Y769D01*
X1911Y769D02*
X1942Y769D01*
X2055Y769D02*
X2062Y769D01*
X2089Y769D02*
X2099Y769D01*
X2677Y769D02*
X2687Y769D01*
X2802Y769D02*
X2809Y769D01*
X0Y768D02*
X7Y768D01*
X64Y768D02*
X71Y768D01*
X1608Y768D02*
X1617Y768D01*
X1859Y768D02*
X1865Y768D01*
X1884Y768D02*
X1892Y768D01*
X1936Y768D02*
X1943Y768D01*
X2055Y768D02*
X2062Y768D01*
X2088Y768D02*
X2098Y768D01*
X2678Y768D02*
X2688Y768D01*
X2802Y768D02*
X2809Y768D01*
X0Y767D02*
X7Y767D01*
X64Y767D02*
X71Y767D01*
X1608Y767D02*
X1617Y767D01*
X1859Y767D02*
X1865Y767D01*
X1885Y767D02*
X1892Y767D01*
X1937Y767D02*
X1943Y767D01*
X2055Y767D02*
X2062Y767D01*
X2087Y767D02*
X2097Y767D01*
X2679Y767D02*
X2689Y767D01*
X2802Y767D02*
X2809Y767D01*
X0Y766D02*
X7Y766D01*
X64Y766D02*
X71Y766D01*
X1608Y766D02*
X1617Y766D01*
X1859Y766D02*
X1865Y766D01*
X1886Y766D02*
X1892Y766D01*
X1937Y766D02*
X1943Y766D01*
X2055Y766D02*
X2062Y766D01*
X2086Y766D02*
X2096Y766D01*
X2680Y766D02*
X2690Y766D01*
X2802Y766D02*
X2809Y766D01*
X0Y765D02*
X7Y765D01*
X64Y765D02*
X71Y765D01*
X1608Y765D02*
X1617Y765D01*
X1859Y765D02*
X1865Y765D01*
X1886Y765D02*
X1892Y765D01*
X1937Y765D02*
X1943Y765D01*
X2055Y765D02*
X2062Y765D01*
X2085Y765D02*
X2095Y765D01*
X2681Y765D02*
X2690Y765D01*
X2802Y765D02*
X2809Y765D01*
X0Y764D02*
X7Y764D01*
X64Y764D02*
X71Y764D01*
X1608Y764D02*
X1617Y764D01*
X1859Y764D02*
X1865Y764D01*
X1886Y764D02*
X1892Y764D01*
X1937Y764D02*
X1943Y764D01*
X2055Y764D02*
X2062Y764D01*
X2085Y764D02*
X2094Y764D01*
X2682Y764D02*
X2691Y764D01*
X2802Y764D02*
X2809Y764D01*
X0Y763D02*
X7Y763D01*
X64Y763D02*
X71Y763D01*
X1608Y763D02*
X1617Y763D01*
X1859Y763D02*
X1865Y763D01*
X1886Y763D02*
X1892Y763D01*
X1937Y763D02*
X1943Y763D01*
X2055Y763D02*
X2062Y763D01*
X2084Y763D02*
X2093Y763D01*
X2683Y763D02*
X2692Y763D01*
X2802Y763D02*
X2809Y763D01*
X0Y762D02*
X7Y762D01*
X64Y762D02*
X71Y762D01*
X1608Y762D02*
X1617Y762D01*
X1859Y762D02*
X1865Y762D01*
X1886Y762D02*
X1892Y762D01*
X1937Y762D02*
X1943Y762D01*
X2055Y762D02*
X2062Y762D01*
X2083Y762D02*
X2092Y762D01*
X2684Y762D02*
X2693Y762D01*
X2802Y762D02*
X2809Y762D01*
X0Y761D02*
X7Y761D01*
X64Y761D02*
X71Y761D01*
X1608Y761D02*
X1617Y761D01*
X1859Y761D02*
X1865Y761D01*
X1886Y761D02*
X1892Y761D01*
X1937Y761D02*
X1943Y761D01*
X2055Y761D02*
X2062Y761D01*
X2082Y761D02*
X2091Y761D01*
X2684Y761D02*
X2693Y761D01*
X2802Y761D02*
X2809Y761D01*
X0Y760D02*
X7Y760D01*
X64Y760D02*
X71Y760D01*
X1608Y760D02*
X1617Y760D01*
X1859Y760D02*
X1865Y760D01*
X1886Y760D02*
X1892Y760D01*
X1937Y760D02*
X1943Y760D01*
X2055Y760D02*
X2062Y760D01*
X2082Y760D02*
X2091Y760D01*
X2685Y760D02*
X2694Y760D01*
X2802Y760D02*
X2809Y760D01*
X0Y759D02*
X7Y759D01*
X64Y759D02*
X71Y759D01*
X1608Y759D02*
X1617Y759D01*
X1859Y759D02*
X1865Y759D01*
X1885Y759D02*
X1892Y759D01*
X1937Y759D02*
X1943Y759D01*
X2055Y759D02*
X2062Y759D01*
X2081Y759D02*
X2090Y759D01*
X2686Y759D02*
X2695Y759D01*
X2802Y759D02*
X2809Y759D01*
X0Y758D02*
X7Y758D01*
X64Y758D02*
X71Y758D01*
X1608Y758D02*
X1617Y758D01*
X1859Y758D02*
X1865Y758D01*
X1884Y758D02*
X1892Y758D01*
X1937Y758D02*
X1943Y758D01*
X2055Y758D02*
X2062Y758D01*
X2080Y758D02*
X2089Y758D01*
X2687Y758D02*
X2696Y758D01*
X2802Y758D02*
X2809Y758D01*
X0Y757D02*
X7Y757D01*
X64Y757D02*
X71Y757D01*
X1608Y757D02*
X1617Y757D01*
X1859Y757D02*
X1891Y757D01*
X1937Y757D02*
X1943Y757D01*
X2055Y757D02*
X2062Y757D01*
X2080Y757D02*
X2088Y757D01*
X2687Y757D02*
X2696Y757D01*
X2802Y757D02*
X2809Y757D01*
X0Y756D02*
X7Y756D01*
X64Y756D02*
X71Y756D01*
X1608Y756D02*
X1617Y756D01*
X1859Y756D02*
X1891Y756D01*
X1937Y756D02*
X1943Y756D01*
X2055Y756D02*
X2062Y756D01*
X2079Y756D02*
X2088Y756D01*
X2688Y756D02*
X2697Y756D01*
X2802Y756D02*
X2809Y756D01*
X0Y755D02*
X7Y755D01*
X64Y755D02*
X71Y755D01*
X1608Y755D02*
X1617Y755D01*
X1859Y755D02*
X1890Y755D01*
X1937Y755D02*
X1943Y755D01*
X2055Y755D02*
X2062Y755D01*
X2078Y755D02*
X2087Y755D01*
X2689Y755D02*
X2697Y755D01*
X2802Y755D02*
X2809Y755D01*
X0Y754D02*
X7Y754D01*
X64Y754D02*
X71Y754D01*
X1608Y754D02*
X1617Y754D01*
X1859Y754D02*
X1889Y754D01*
X1937Y754D02*
X1943Y754D01*
X2055Y754D02*
X2062Y754D01*
X2078Y754D02*
X2086Y754D01*
X2690Y754D02*
X2698Y754D01*
X2802Y754D02*
X2809Y754D01*
X0Y753D02*
X7Y753D01*
X64Y753D02*
X71Y753D01*
X1608Y753D02*
X1617Y753D01*
X1859Y753D02*
X1888Y753D01*
X1937Y753D02*
X1943Y753D01*
X2055Y753D02*
X2062Y753D01*
X2077Y753D02*
X2085Y753D01*
X2690Y753D02*
X2699Y753D01*
X2802Y753D02*
X2809Y753D01*
X0Y752D02*
X7Y752D01*
X64Y752D02*
X71Y752D01*
X1608Y752D02*
X1617Y752D01*
X1859Y752D02*
X1887Y752D01*
X1936Y752D02*
X1943Y752D01*
X2055Y752D02*
X2062Y752D01*
X2077Y752D02*
X2085Y752D01*
X2691Y752D02*
X2699Y752D01*
X2802Y752D02*
X2809Y752D01*
X0Y751D02*
X7Y751D01*
X64Y751D02*
X71Y751D01*
X1608Y751D02*
X1617Y751D01*
X1859Y751D02*
X1884Y751D01*
X1913Y751D02*
X1942Y751D01*
X2055Y751D02*
X2062Y751D01*
X2076Y751D02*
X2084Y751D01*
X2692Y751D02*
X2700Y751D01*
X2802Y751D02*
X2809Y751D01*
X0Y750D02*
X7Y750D01*
X64Y750D02*
X71Y750D01*
X1608Y750D02*
X1617Y750D01*
X1859Y750D02*
X1865Y750D01*
X1871Y750D02*
X1878Y750D01*
X1911Y750D02*
X1942Y750D01*
X2055Y750D02*
X2062Y750D01*
X2075Y750D02*
X2084Y750D01*
X2692Y750D02*
X2700Y750D01*
X2802Y750D02*
X2809Y750D01*
X0Y749D02*
X7Y749D01*
X64Y749D02*
X71Y749D01*
X1608Y749D02*
X1617Y749D01*
X1859Y749D02*
X1865Y749D01*
X1872Y749D02*
X1879Y749D01*
X1910Y749D02*
X1942Y749D01*
X2055Y749D02*
X2062Y749D01*
X2075Y749D02*
X2083Y749D01*
X2693Y749D02*
X2701Y749D01*
X2802Y749D02*
X2809Y749D01*
X0Y748D02*
X7Y748D01*
X64Y748D02*
X71Y748D01*
X1608Y748D02*
X1617Y748D01*
X1859Y748D02*
X1865Y748D01*
X1872Y748D02*
X1879Y748D01*
X1910Y748D02*
X1941Y748D01*
X2055Y748D02*
X2062Y748D01*
X2074Y748D02*
X2082Y748D01*
X2693Y748D02*
X2701Y748D01*
X2802Y748D02*
X2809Y748D01*
X0Y747D02*
X7Y747D01*
X64Y747D02*
X71Y747D01*
X1608Y747D02*
X1617Y747D01*
X1859Y747D02*
X1865Y747D01*
X1873Y747D02*
X1880Y747D01*
X1909Y747D02*
X1941Y747D01*
X2055Y747D02*
X2062Y747D01*
X2074Y747D02*
X2082Y747D01*
X2694Y747D02*
X2702Y747D01*
X2802Y747D02*
X2809Y747D01*
X0Y746D02*
X7Y746D01*
X64Y746D02*
X71Y746D01*
X1608Y746D02*
X1617Y746D01*
X1859Y746D02*
X1865Y746D01*
X1873Y746D02*
X1880Y746D01*
X1909Y746D02*
X1939Y746D01*
X2055Y746D02*
X2062Y746D01*
X2073Y746D02*
X2081Y746D01*
X2695Y746D02*
X2702Y746D01*
X2802Y746D02*
X2809Y746D01*
X0Y745D02*
X7Y745D01*
X64Y745D02*
X71Y745D01*
X1608Y745D02*
X1617Y745D01*
X1859Y745D02*
X1865Y745D01*
X1874Y745D02*
X1881Y745D01*
X1909Y745D02*
X1937Y745D01*
X2055Y745D02*
X2062Y745D01*
X2073Y745D02*
X2081Y745D01*
X2695Y745D02*
X2703Y745D01*
X2802Y745D02*
X2809Y745D01*
X0Y744D02*
X7Y744D01*
X64Y744D02*
X71Y744D01*
X1608Y744D02*
X1617Y744D01*
X1859Y744D02*
X1865Y744D01*
X1874Y744D02*
X1882Y744D01*
X1909Y744D02*
X1915Y744D01*
X2055Y744D02*
X2062Y744D01*
X2072Y744D02*
X2080Y744D01*
X2696Y744D02*
X2703Y744D01*
X2802Y744D02*
X2809Y744D01*
X0Y743D02*
X7Y743D01*
X64Y743D02*
X71Y743D01*
X1859Y743D02*
X1865Y743D01*
X1875Y743D02*
X1882Y743D01*
X1909Y743D02*
X1915Y743D01*
X2055Y743D02*
X2062Y743D01*
X2072Y743D02*
X2080Y743D01*
X2696Y743D02*
X2704Y743D01*
X2802Y743D02*
X2809Y743D01*
X0Y742D02*
X7Y742D01*
X64Y742D02*
X71Y742D01*
X1859Y742D02*
X1865Y742D01*
X1876Y742D02*
X1883Y742D01*
X1909Y742D02*
X1915Y742D01*
X2055Y742D02*
X2062Y742D01*
X2072Y742D02*
X2079Y742D01*
X2696Y742D02*
X2704Y742D01*
X2802Y742D02*
X2809Y742D01*
X0Y741D02*
X7Y741D01*
X64Y741D02*
X71Y741D01*
X1859Y741D02*
X1865Y741D01*
X1876Y741D02*
X1883Y741D01*
X1909Y741D02*
X1915Y741D01*
X2055Y741D02*
X2062Y741D01*
X2071Y741D02*
X2079Y741D01*
X2697Y741D02*
X2705Y741D01*
X2802Y741D02*
X2809Y741D01*
X0Y740D02*
X7Y740D01*
X64Y740D02*
X71Y740D01*
X1859Y740D02*
X1865Y740D01*
X1877Y740D02*
X1884Y740D01*
X1909Y740D02*
X1915Y740D01*
X2055Y740D02*
X2062Y740D01*
X2071Y740D02*
X2078Y740D01*
X2697Y740D02*
X2705Y740D01*
X2802Y740D02*
X2809Y740D01*
X0Y739D02*
X7Y739D01*
X64Y739D02*
X71Y739D01*
X1859Y739D02*
X1865Y739D01*
X1877Y739D02*
X1885Y739D01*
X1909Y739D02*
X1915Y739D01*
X2055Y739D02*
X2062Y739D01*
X2070Y739D02*
X2078Y739D01*
X2698Y739D02*
X2705Y739D01*
X2802Y739D02*
X2809Y739D01*
X0Y738D02*
X7Y738D01*
X64Y738D02*
X71Y738D01*
X1859Y738D02*
X1865Y738D01*
X1878Y738D02*
X1885Y738D01*
X1909Y738D02*
X1915Y738D01*
X2055Y738D02*
X2062Y738D01*
X2070Y738D02*
X2077Y738D01*
X2698Y738D02*
X2706Y738D01*
X2802Y738D02*
X2809Y738D01*
X0Y737D02*
X7Y737D01*
X64Y737D02*
X71Y737D01*
X1859Y737D02*
X1865Y737D01*
X1879Y737D02*
X1886Y737D01*
X1909Y737D02*
X1915Y737D01*
X2055Y737D02*
X2062Y737D01*
X2070Y737D02*
X2077Y737D01*
X2699Y737D02*
X2706Y737D01*
X2802Y737D02*
X2809Y737D01*
X0Y736D02*
X7Y736D01*
X64Y736D02*
X71Y736D01*
X1859Y736D02*
X1865Y736D01*
X1879Y736D02*
X1886Y736D01*
X1909Y736D02*
X1915Y736D01*
X2055Y736D02*
X2062Y736D01*
X2069Y736D02*
X2077Y736D01*
X2699Y736D02*
X2707Y736D01*
X2802Y736D02*
X2809Y736D01*
X0Y735D02*
X7Y735D01*
X64Y735D02*
X71Y735D01*
X1859Y735D02*
X1865Y735D01*
X1880Y735D02*
X1887Y735D01*
X1909Y735D02*
X1915Y735D01*
X2055Y735D02*
X2062Y735D01*
X2069Y735D02*
X2076Y735D01*
X2700Y735D02*
X2707Y735D01*
X2802Y735D02*
X2809Y735D01*
X0Y734D02*
X7Y734D01*
X64Y734D02*
X71Y734D01*
X1859Y734D02*
X1865Y734D01*
X1880Y734D02*
X1887Y734D01*
X1909Y734D02*
X1915Y734D01*
X2055Y734D02*
X2062Y734D01*
X2069Y734D02*
X2076Y734D01*
X2700Y734D02*
X2707Y734D01*
X2802Y734D02*
X2809Y734D01*
X0Y733D02*
X7Y733D01*
X64Y733D02*
X71Y733D01*
X1859Y733D02*
X1865Y733D01*
X1881Y733D02*
X1888Y733D01*
X1909Y733D02*
X1915Y733D01*
X2055Y733D02*
X2062Y733D01*
X2068Y733D02*
X2075Y733D01*
X2700Y733D02*
X2708Y733D01*
X2802Y733D02*
X2809Y733D01*
X0Y732D02*
X7Y732D01*
X64Y732D02*
X71Y732D01*
X1859Y732D02*
X1865Y732D01*
X1881Y732D02*
X1889Y732D01*
X1909Y732D02*
X1915Y732D01*
X2055Y732D02*
X2062Y732D01*
X2068Y732D02*
X2075Y732D01*
X2701Y732D02*
X2708Y732D01*
X2802Y732D02*
X2809Y732D01*
X0Y731D02*
X7Y731D01*
X64Y731D02*
X71Y731D01*
X1859Y731D02*
X1865Y731D01*
X1882Y731D02*
X1889Y731D01*
X1909Y731D02*
X1915Y731D01*
X2055Y731D02*
X2062Y731D01*
X2068Y731D02*
X2075Y731D01*
X2701Y731D02*
X2708Y731D01*
X2802Y731D02*
X2809Y731D01*
X0Y730D02*
X7Y730D01*
X64Y730D02*
X71Y730D01*
X1859Y730D02*
X1865Y730D01*
X1883Y730D02*
X1890Y730D01*
X1909Y730D02*
X1915Y730D01*
X2055Y730D02*
X2062Y730D01*
X2067Y730D02*
X2074Y730D01*
X2701Y730D02*
X2708Y730D01*
X2802Y730D02*
X2809Y730D01*
X0Y729D02*
X7Y729D01*
X64Y729D02*
X71Y729D01*
X1859Y729D02*
X1865Y729D01*
X1883Y729D02*
X1890Y729D01*
X1909Y729D02*
X1915Y729D01*
X2055Y729D02*
X2062Y729D01*
X2067Y729D02*
X2074Y729D01*
X2702Y729D02*
X2709Y729D01*
X2802Y729D02*
X2809Y729D01*
X0Y728D02*
X7Y728D01*
X64Y728D02*
X71Y728D01*
X1859Y728D02*
X1865Y728D01*
X1884Y728D02*
X1891Y728D01*
X1909Y728D02*
X1940Y728D01*
X2055Y728D02*
X2062Y728D01*
X2067Y728D02*
X2074Y728D01*
X2702Y728D02*
X2709Y728D01*
X2802Y728D02*
X2809Y728D01*
X0Y727D02*
X7Y727D01*
X64Y727D02*
X71Y727D01*
X1859Y727D02*
X1865Y727D01*
X1884Y727D02*
X1892Y727D01*
X1909Y727D02*
X1942Y727D01*
X2055Y727D02*
X2062Y727D01*
X2066Y727D02*
X2074Y727D01*
X2702Y727D02*
X2709Y727D01*
X2802Y727D02*
X2809Y727D01*
X0Y726D02*
X7Y726D01*
X64Y726D02*
X71Y726D01*
X1859Y726D02*
X1865Y726D01*
X1885Y726D02*
X1892Y726D01*
X1909Y726D02*
X1942Y726D01*
X2055Y726D02*
X2062Y726D01*
X2066Y726D02*
X2073Y726D01*
X2702Y726D02*
X2710Y726D01*
X2802Y726D02*
X2809Y726D01*
X0Y725D02*
X7Y725D01*
X64Y725D02*
X71Y725D01*
X1859Y725D02*
X1865Y725D01*
X1886Y725D02*
X1892Y725D01*
X1909Y725D02*
X1942Y725D01*
X2055Y725D02*
X2062Y725D01*
X2066Y725D02*
X2073Y725D01*
X2703Y725D02*
X2710Y725D01*
X2802Y725D02*
X2809Y725D01*
X0Y724D02*
X7Y724D01*
X64Y724D02*
X71Y724D01*
X1859Y724D02*
X1865Y724D01*
X1886Y724D02*
X1892Y724D01*
X1909Y724D02*
X1942Y724D01*
X2055Y724D02*
X2062Y724D01*
X2066Y724D02*
X2073Y724D01*
X2703Y724D02*
X2710Y724D01*
X2802Y724D02*
X2809Y724D01*
X0Y723D02*
X7Y723D01*
X64Y723D02*
X71Y723D01*
X1859Y723D02*
X1864Y723D01*
X1887Y723D02*
X1892Y723D01*
X1909Y723D02*
X1942Y723D01*
X2055Y723D02*
X2062Y723D01*
X2066Y723D02*
X2073Y723D01*
X2703Y723D02*
X2710Y723D01*
X2802Y723D02*
X2809Y723D01*
X0Y722D02*
X7Y722D01*
X64Y722D02*
X71Y722D01*
X1860Y722D02*
X1863Y722D01*
X1888Y722D02*
X1891Y722D01*
X1909Y722D02*
X1941Y722D01*
X2055Y722D02*
X2062Y722D01*
X2065Y722D02*
X2072Y722D01*
X2703Y722D02*
X2710Y722D01*
X2802Y722D02*
X2809Y722D01*
X0Y721D02*
X7Y721D01*
X64Y721D02*
X71Y721D01*
X2055Y721D02*
X2062Y721D01*
X2065Y721D02*
X2072Y721D01*
X2704Y721D02*
X2711Y721D01*
X2802Y721D02*
X2809Y721D01*
X0Y720D02*
X7Y720D01*
X64Y720D02*
X71Y720D01*
X2055Y720D02*
X2062Y720D01*
X2065Y720D02*
X2072Y720D01*
X2704Y720D02*
X2711Y720D01*
X2802Y720D02*
X2809Y720D01*
X0Y719D02*
X7Y719D01*
X64Y719D02*
X71Y719D01*
X2055Y719D02*
X2062Y719D01*
X2065Y719D02*
X2072Y719D01*
X2704Y719D02*
X2711Y719D01*
X2802Y719D02*
X2809Y719D01*
X0Y718D02*
X7Y718D01*
X64Y718D02*
X71Y718D01*
X2055Y718D02*
X2062Y718D01*
X2065Y718D02*
X2072Y718D01*
X2704Y718D02*
X2711Y718D01*
X2802Y718D02*
X2809Y718D01*
X0Y717D02*
X7Y717D01*
X64Y717D02*
X71Y717D01*
X2055Y717D02*
X2062Y717D01*
X2064Y717D02*
X2071Y717D01*
X2704Y717D02*
X2711Y717D01*
X2802Y717D02*
X2809Y717D01*
X0Y716D02*
X7Y716D01*
X64Y716D02*
X71Y716D01*
X2055Y716D02*
X2062Y716D01*
X2064Y716D02*
X2071Y716D01*
X2704Y716D02*
X2711Y716D01*
X2802Y716D02*
X2809Y716D01*
X0Y715D02*
X7Y715D01*
X64Y715D02*
X71Y715D01*
X2055Y715D02*
X2062Y715D01*
X2064Y715D02*
X2071Y715D01*
X2705Y715D02*
X2712Y715D01*
X2802Y715D02*
X2809Y715D01*
X0Y714D02*
X7Y714D01*
X64Y714D02*
X71Y714D01*
X2055Y714D02*
X2062Y714D01*
X2064Y714D02*
X2071Y714D01*
X2705Y714D02*
X2712Y714D01*
X2802Y714D02*
X2809Y714D01*
X0Y713D02*
X7Y713D01*
X64Y713D02*
X71Y713D01*
X2055Y713D02*
X2062Y713D01*
X2064Y713D02*
X2071Y713D01*
X2705Y713D02*
X2712Y713D01*
X2802Y713D02*
X2809Y713D01*
X0Y712D02*
X7Y712D01*
X64Y712D02*
X71Y712D01*
X2055Y712D02*
X2062Y712D01*
X2064Y712D02*
X2071Y712D01*
X2705Y712D02*
X2712Y712D01*
X2802Y712D02*
X2809Y712D01*
X0Y711D02*
X7Y711D01*
X64Y711D02*
X71Y711D01*
X2055Y711D02*
X2062Y711D01*
X2064Y711D02*
X2071Y711D01*
X2705Y711D02*
X2712Y711D01*
X2802Y711D02*
X2809Y711D01*
X0Y710D02*
X7Y710D01*
X64Y710D02*
X71Y710D01*
X2055Y710D02*
X2062Y710D01*
X2064Y710D02*
X2071Y710D01*
X2705Y710D02*
X2712Y710D01*
X2802Y710D02*
X2809Y710D01*
X0Y709D02*
X7Y709D01*
X64Y709D02*
X71Y709D01*
X2055Y709D02*
X2062Y709D01*
X2064Y709D02*
X2071Y709D01*
X2705Y709D02*
X2712Y709D01*
X2802Y709D02*
X2809Y709D01*
X0Y708D02*
X7Y708D01*
X64Y708D02*
X71Y708D01*
X2055Y708D02*
X2062Y708D01*
X2064Y708D02*
X2071Y708D01*
X2705Y708D02*
X2712Y708D01*
X2802Y708D02*
X2809Y708D01*
X0Y707D02*
X7Y707D01*
X64Y707D02*
X71Y707D01*
X2055Y707D02*
X2070Y707D01*
X2705Y707D02*
X2712Y707D01*
X2802Y707D02*
X2809Y707D01*
X0Y706D02*
X7Y706D01*
X64Y706D02*
X71Y706D01*
X2055Y706D02*
X2070Y706D01*
X2705Y706D02*
X2712Y706D01*
X2802Y706D02*
X2809Y706D01*
X0Y705D02*
X7Y705D01*
X64Y705D02*
X71Y705D01*
X2055Y705D02*
X2070Y705D01*
X2705Y705D02*
X2712Y705D01*
X2802Y705D02*
X2809Y705D01*
X0Y704D02*
X7Y704D01*
X64Y704D02*
X71Y704D01*
X2055Y704D02*
X2070Y704D01*
X2705Y704D02*
X2712Y704D01*
X2802Y704D02*
X2809Y704D01*
X0Y703D02*
X7Y703D01*
X64Y703D02*
X71Y703D01*
X2055Y703D02*
X2070Y703D01*
X2705Y703D02*
X2712Y703D01*
X2802Y703D02*
X2809Y703D01*
X0Y702D02*
X7Y702D01*
X64Y702D02*
X71Y702D01*
X2055Y702D02*
X2070Y702D01*
X2705Y702D02*
X2712Y702D01*
X2802Y702D02*
X2809Y702D01*
X0Y701D02*
X7Y701D01*
X64Y701D02*
X71Y701D01*
X2055Y701D02*
X2070Y701D01*
X2705Y701D02*
X2712Y701D01*
X2802Y701D02*
X2809Y701D01*
X0Y700D02*
X7Y700D01*
X64Y700D02*
X71Y700D01*
X2055Y700D02*
X2070Y700D01*
X2705Y700D02*
X2712Y700D01*
X2802Y700D02*
X2809Y700D01*
X0Y699D02*
X7Y699D01*
X64Y699D02*
X71Y699D01*
X2055Y699D02*
X2070Y699D01*
X2705Y699D02*
X2712Y699D01*
X2802Y699D02*
X2809Y699D01*
X0Y698D02*
X7Y698D01*
X64Y698D02*
X71Y698D01*
X2055Y698D02*
X2070Y698D01*
X2705Y698D02*
X2712Y698D01*
X2802Y698D02*
X2809Y698D01*
X0Y697D02*
X7Y697D01*
X64Y697D02*
X71Y697D01*
X2055Y697D02*
X2070Y697D01*
X2705Y697D02*
X2712Y697D01*
X2802Y697D02*
X2809Y697D01*
X0Y696D02*
X7Y696D01*
X64Y696D02*
X71Y696D01*
X2055Y696D02*
X2070Y696D01*
X2705Y696D02*
X2712Y696D01*
X2802Y696D02*
X2809Y696D01*
X0Y695D02*
X7Y695D01*
X64Y695D02*
X71Y695D01*
X2055Y695D02*
X2070Y695D01*
X2705Y695D02*
X2712Y695D01*
X2802Y695D02*
X2809Y695D01*
X0Y694D02*
X7Y694D01*
X64Y694D02*
X71Y694D01*
X2055Y694D02*
X2070Y694D01*
X2705Y694D02*
X2712Y694D01*
X2802Y694D02*
X2809Y694D01*
X0Y693D02*
X7Y693D01*
X64Y693D02*
X71Y693D01*
X2055Y693D02*
X2070Y693D01*
X2705Y693D02*
X2712Y693D01*
X2802Y693D02*
X2809Y693D01*
X0Y692D02*
X7Y692D01*
X64Y692D02*
X71Y692D01*
X2055Y692D02*
X2070Y692D01*
X2705Y692D02*
X2712Y692D01*
X2802Y692D02*
X2809Y692D01*
X0Y691D02*
X7Y691D01*
X64Y691D02*
X71Y691D01*
X2055Y691D02*
X2070Y691D01*
X2705Y691D02*
X2712Y691D01*
X2802Y691D02*
X2809Y691D01*
X0Y690D02*
X7Y690D01*
X64Y690D02*
X71Y690D01*
X2055Y690D02*
X2070Y690D01*
X2705Y690D02*
X2712Y690D01*
X2802Y690D02*
X2809Y690D01*
X0Y689D02*
X7Y689D01*
X64Y689D02*
X71Y689D01*
X2055Y689D02*
X2070Y689D01*
X2705Y689D02*
X2712Y689D01*
X2802Y689D02*
X2809Y689D01*
X0Y688D02*
X7Y688D01*
X64Y688D02*
X71Y688D01*
X2055Y688D02*
X2070Y688D01*
X2705Y688D02*
X2712Y688D01*
X2802Y688D02*
X2809Y688D01*
X0Y687D02*
X7Y687D01*
X64Y687D02*
X71Y687D01*
X2055Y687D02*
X2070Y687D01*
X2705Y687D02*
X2712Y687D01*
X2802Y687D02*
X2809Y687D01*
X0Y686D02*
X7Y686D01*
X64Y686D02*
X71Y686D01*
X2055Y686D02*
X2070Y686D01*
X2705Y686D02*
X2712Y686D01*
X2802Y686D02*
X2809Y686D01*
X0Y685D02*
X7Y685D01*
X64Y685D02*
X71Y685D01*
X2055Y685D02*
X2070Y685D01*
X2705Y685D02*
X2712Y685D01*
X2802Y685D02*
X2809Y685D01*
X0Y684D02*
X7Y684D01*
X64Y684D02*
X71Y684D01*
X2055Y684D02*
X2070Y684D01*
X2705Y684D02*
X2712Y684D01*
X2802Y684D02*
X2809Y684D01*
X0Y683D02*
X7Y683D01*
X64Y683D02*
X71Y683D01*
X2055Y683D02*
X2070Y683D01*
X2705Y683D02*
X2712Y683D01*
X2802Y683D02*
X2809Y683D01*
X0Y682D02*
X7Y682D01*
X64Y682D02*
X71Y682D01*
X2055Y682D02*
X2070Y682D01*
X2705Y682D02*
X2712Y682D01*
X2802Y682D02*
X2809Y682D01*
X0Y681D02*
X7Y681D01*
X64Y681D02*
X71Y681D01*
X2055Y681D02*
X2070Y681D01*
X2705Y681D02*
X2712Y681D01*
X2802Y681D02*
X2809Y681D01*
X0Y680D02*
X7Y680D01*
X64Y680D02*
X71Y680D01*
X2055Y680D02*
X2070Y680D01*
X2705Y680D02*
X2712Y680D01*
X2802Y680D02*
X2809Y680D01*
X0Y679D02*
X7Y679D01*
X64Y679D02*
X71Y679D01*
X2055Y679D02*
X2070Y679D01*
X2705Y679D02*
X2712Y679D01*
X2802Y679D02*
X2809Y679D01*
X0Y678D02*
X7Y678D01*
X64Y678D02*
X71Y678D01*
X2055Y678D02*
X2070Y678D01*
X2705Y678D02*
X2712Y678D01*
X2802Y678D02*
X2809Y678D01*
X0Y677D02*
X7Y677D01*
X64Y677D02*
X71Y677D01*
X2055Y677D02*
X2070Y677D01*
X2705Y677D02*
X2712Y677D01*
X2802Y677D02*
X2809Y677D01*
X0Y676D02*
X7Y676D01*
X64Y676D02*
X71Y676D01*
X2055Y676D02*
X2070Y676D01*
X2705Y676D02*
X2712Y676D01*
X2802Y676D02*
X2809Y676D01*
X0Y675D02*
X7Y675D01*
X64Y675D02*
X71Y675D01*
X2055Y675D02*
X2070Y675D01*
X2705Y675D02*
X2712Y675D01*
X2802Y675D02*
X2809Y675D01*
X0Y674D02*
X7Y674D01*
X64Y674D02*
X71Y674D01*
X2055Y674D02*
X2070Y674D01*
X2705Y674D02*
X2712Y674D01*
X2802Y674D02*
X2809Y674D01*
X0Y673D02*
X7Y673D01*
X64Y673D02*
X71Y673D01*
X2055Y673D02*
X2070Y673D01*
X2705Y673D02*
X2712Y673D01*
X2802Y673D02*
X2809Y673D01*
X0Y672D02*
X7Y672D01*
X64Y672D02*
X71Y672D01*
X2055Y672D02*
X2070Y672D01*
X2705Y672D02*
X2712Y672D01*
X2802Y672D02*
X2809Y672D01*
X0Y671D02*
X7Y671D01*
X64Y671D02*
X71Y671D01*
X2055Y671D02*
X2070Y671D01*
X2705Y671D02*
X2712Y671D01*
X2802Y671D02*
X2809Y671D01*
X0Y670D02*
X7Y670D01*
X64Y670D02*
X71Y670D01*
X2055Y670D02*
X2070Y670D01*
X2705Y670D02*
X2712Y670D01*
X2802Y670D02*
X2809Y670D01*
X0Y669D02*
X7Y669D01*
X64Y669D02*
X71Y669D01*
X2055Y669D02*
X2070Y669D01*
X2705Y669D02*
X2712Y669D01*
X2802Y669D02*
X2809Y669D01*
X0Y668D02*
X7Y668D01*
X64Y668D02*
X71Y668D01*
X2055Y668D02*
X2070Y668D01*
X2705Y668D02*
X2712Y668D01*
X2802Y668D02*
X2809Y668D01*
X0Y667D02*
X7Y667D01*
X64Y667D02*
X71Y667D01*
X2055Y667D02*
X2070Y667D01*
X2705Y667D02*
X2712Y667D01*
X2802Y667D02*
X2809Y667D01*
X0Y666D02*
X7Y666D01*
X64Y666D02*
X71Y666D01*
X2055Y666D02*
X2070Y666D01*
X2705Y666D02*
X2712Y666D01*
X2802Y666D02*
X2809Y666D01*
X0Y665D02*
X7Y665D01*
X64Y665D02*
X71Y665D01*
X2055Y665D02*
X2070Y665D01*
X2705Y665D02*
X2712Y665D01*
X2802Y665D02*
X2809Y665D01*
X0Y664D02*
X7Y664D01*
X64Y664D02*
X71Y664D01*
X2055Y664D02*
X2070Y664D01*
X2705Y664D02*
X2712Y664D01*
X2802Y664D02*
X2809Y664D01*
X0Y663D02*
X7Y663D01*
X64Y663D02*
X71Y663D01*
X2055Y663D02*
X2070Y663D01*
X2705Y663D02*
X2712Y663D01*
X2802Y663D02*
X2809Y663D01*
X0Y662D02*
X7Y662D01*
X64Y662D02*
X71Y662D01*
X2055Y662D02*
X2070Y662D01*
X2705Y662D02*
X2712Y662D01*
X2802Y662D02*
X2809Y662D01*
X0Y661D02*
X7Y661D01*
X64Y661D02*
X71Y661D01*
X2055Y661D02*
X2070Y661D01*
X2705Y661D02*
X2712Y661D01*
X2802Y661D02*
X2809Y661D01*
X0Y660D02*
X7Y660D01*
X64Y660D02*
X71Y660D01*
X2055Y660D02*
X2070Y660D01*
X2705Y660D02*
X2712Y660D01*
X2802Y660D02*
X2809Y660D01*
X0Y659D02*
X7Y659D01*
X64Y659D02*
X71Y659D01*
X2055Y659D02*
X2070Y659D01*
X2705Y659D02*
X2712Y659D01*
X2802Y659D02*
X2809Y659D01*
X0Y658D02*
X7Y658D01*
X64Y658D02*
X71Y658D01*
X2055Y658D02*
X2070Y658D01*
X2705Y658D02*
X2712Y658D01*
X2802Y658D02*
X2809Y658D01*
X0Y657D02*
X7Y657D01*
X64Y657D02*
X71Y657D01*
X2055Y657D02*
X2070Y657D01*
X2705Y657D02*
X2712Y657D01*
X2802Y657D02*
X2809Y657D01*
X0Y656D02*
X7Y656D01*
X64Y656D02*
X71Y656D01*
X2055Y656D02*
X2070Y656D01*
X2705Y656D02*
X2712Y656D01*
X2802Y656D02*
X2809Y656D01*
X0Y655D02*
X7Y655D01*
X64Y655D02*
X71Y655D01*
X2055Y655D02*
X2070Y655D01*
X2705Y655D02*
X2712Y655D01*
X2802Y655D02*
X2809Y655D01*
X0Y654D02*
X7Y654D01*
X64Y654D02*
X71Y654D01*
X2055Y654D02*
X2070Y654D01*
X2705Y654D02*
X2712Y654D01*
X2802Y654D02*
X2809Y654D01*
X0Y653D02*
X7Y653D01*
X64Y653D02*
X71Y653D01*
X282Y653D02*
X282Y653D01*
X2055Y653D02*
X2070Y653D01*
X2705Y653D02*
X2712Y653D01*
X2802Y653D02*
X2809Y653D01*
X0Y652D02*
X7Y652D01*
X64Y652D02*
X71Y652D01*
X280Y652D02*
X283Y652D01*
X2055Y652D02*
X2070Y652D01*
X2705Y652D02*
X2712Y652D01*
X2802Y652D02*
X2809Y652D01*
X0Y651D02*
X7Y651D01*
X64Y651D02*
X71Y651D01*
X279Y651D02*
X283Y651D01*
X2055Y651D02*
X2070Y651D01*
X2705Y651D02*
X2712Y651D01*
X2802Y651D02*
X2809Y651D01*
X0Y650D02*
X7Y650D01*
X64Y650D02*
X71Y650D01*
X279Y650D02*
X283Y650D01*
X2055Y650D02*
X2070Y650D01*
X2705Y650D02*
X2712Y650D01*
X2802Y650D02*
X2809Y650D01*
X0Y649D02*
X7Y649D01*
X64Y649D02*
X71Y649D01*
X279Y649D02*
X283Y649D01*
X2055Y649D02*
X2070Y649D01*
X2705Y649D02*
X2712Y649D01*
X2802Y649D02*
X2809Y649D01*
X0Y648D02*
X7Y648D01*
X64Y648D02*
X71Y648D01*
X279Y648D02*
X283Y648D01*
X2055Y648D02*
X2070Y648D01*
X2705Y648D02*
X2712Y648D01*
X2802Y648D02*
X2809Y648D01*
X0Y647D02*
X7Y647D01*
X64Y647D02*
X71Y647D01*
X279Y647D02*
X283Y647D01*
X1032Y647D02*
X1036Y647D01*
X2055Y647D02*
X2070Y647D01*
X2705Y647D02*
X2712Y647D01*
X2802Y647D02*
X2809Y647D01*
X0Y646D02*
X7Y646D01*
X64Y646D02*
X71Y646D01*
X279Y646D02*
X283Y646D01*
X1028Y646D02*
X1040Y646D01*
X2055Y646D02*
X2070Y646D01*
X2705Y646D02*
X2712Y646D01*
X2802Y646D02*
X2809Y646D01*
X0Y645D02*
X7Y645D01*
X64Y645D02*
X71Y645D01*
X279Y645D02*
X283Y645D01*
X1026Y645D02*
X1042Y645D01*
X2055Y645D02*
X2070Y645D01*
X2705Y645D02*
X2712Y645D01*
X2802Y645D02*
X2809Y645D01*
X0Y644D02*
X7Y644D01*
X64Y644D02*
X71Y644D01*
X279Y644D02*
X283Y644D01*
X1024Y644D02*
X1044Y644D01*
X2055Y644D02*
X2070Y644D01*
X2705Y644D02*
X2712Y644D01*
X2802Y644D02*
X2809Y644D01*
X0Y643D02*
X7Y643D01*
X64Y643D02*
X71Y643D01*
X237Y643D02*
X239Y643D01*
X279Y643D02*
X283Y643D01*
X1022Y643D02*
X1046Y643D01*
X2055Y643D02*
X2070Y643D01*
X2705Y643D02*
X2712Y643D01*
X2802Y643D02*
X2809Y643D01*
X0Y642D02*
X7Y642D01*
X64Y642D02*
X72Y642D01*
X233Y642D02*
X243Y642D01*
X279Y642D02*
X283Y642D01*
X1021Y642D02*
X1047Y642D01*
X2055Y642D02*
X2070Y642D01*
X2705Y642D02*
X2712Y642D01*
X2802Y642D02*
X2809Y642D01*
X0Y641D02*
X7Y641D01*
X64Y641D02*
X73Y641D01*
X231Y641D02*
X245Y641D01*
X279Y641D02*
X283Y641D01*
X1020Y641D02*
X1048Y641D01*
X2055Y641D02*
X2070Y641D01*
X2705Y641D02*
X2712Y641D01*
X2802Y641D02*
X2809Y641D01*
X0Y640D02*
X7Y640D01*
X64Y640D02*
X74Y640D01*
X230Y640D02*
X246Y640D01*
X279Y640D02*
X283Y640D01*
X1019Y640D02*
X1049Y640D01*
X2055Y640D02*
X2070Y640D01*
X2705Y640D02*
X2712Y640D01*
X2802Y640D02*
X2809Y640D01*
X0Y639D02*
X7Y639D01*
X65Y639D02*
X75Y639D01*
X229Y639D02*
X247Y639D01*
X279Y639D02*
X283Y639D01*
X1019Y639D02*
X1031Y639D01*
X1037Y639D02*
X1049Y639D01*
X2055Y639D02*
X2070Y639D01*
X2705Y639D02*
X2712Y639D01*
X2802Y639D02*
X2809Y639D01*
X0Y638D02*
X7Y638D01*
X66Y638D02*
X76Y638D01*
X228Y638D02*
X248Y638D01*
X279Y638D02*
X283Y638D01*
X1018Y638D02*
X1028Y638D01*
X1040Y638D02*
X1050Y638D01*
X2055Y638D02*
X2070Y638D01*
X2705Y638D02*
X2712Y638D01*
X2802Y638D02*
X2809Y638D01*
X0Y637D02*
X7Y637D01*
X67Y637D02*
X77Y637D01*
X227Y637D02*
X249Y637D01*
X279Y637D02*
X283Y637D01*
X1017Y637D02*
X1027Y637D01*
X1041Y637D02*
X1051Y637D01*
X2055Y637D02*
X2070Y637D01*
X2705Y637D02*
X2712Y637D01*
X2802Y637D02*
X2809Y637D01*
X0Y636D02*
X7Y636D01*
X68Y636D02*
X78Y636D01*
X227Y636D02*
X250Y636D01*
X279Y636D02*
X283Y636D01*
X1017Y636D02*
X1025Y636D01*
X1043Y636D02*
X1051Y636D01*
X2055Y636D02*
X2070Y636D01*
X2705Y636D02*
X2712Y636D01*
X2802Y636D02*
X2809Y636D01*
X0Y635D02*
X7Y635D01*
X69Y635D02*
X79Y635D01*
X226Y635D02*
X236Y635D01*
X240Y635D02*
X250Y635D01*
X279Y635D02*
X283Y635D01*
X1016Y635D02*
X1025Y635D01*
X1043Y635D02*
X1052Y635D01*
X2055Y635D02*
X2070Y635D01*
X2705Y635D02*
X2712Y635D01*
X2802Y635D02*
X2809Y635D01*
X0Y634D02*
X7Y634D01*
X70Y634D02*
X80Y634D01*
X226Y634D02*
X234Y634D01*
X242Y634D02*
X250Y634D01*
X279Y634D02*
X283Y634D01*
X1016Y634D02*
X1024Y634D01*
X1044Y634D02*
X1052Y634D01*
X2055Y634D02*
X2070Y634D01*
X2705Y634D02*
X2712Y634D01*
X2802Y634D02*
X2809Y634D01*
X0Y633D02*
X7Y633D01*
X71Y633D02*
X81Y633D01*
X225Y633D02*
X233Y633D01*
X243Y633D02*
X251Y633D01*
X279Y633D02*
X283Y633D01*
X1016Y633D02*
X1023Y633D01*
X1045Y633D02*
X1052Y633D01*
X2055Y633D02*
X2070Y633D01*
X2705Y633D02*
X2712Y633D01*
X2802Y633D02*
X2809Y633D01*
X0Y632D02*
X7Y632D01*
X72Y632D02*
X82Y632D01*
X225Y632D02*
X232Y632D01*
X244Y632D02*
X251Y632D01*
X279Y632D02*
X283Y632D01*
X1015Y632D02*
X1023Y632D01*
X1045Y632D02*
X1053Y632D01*
X2055Y632D02*
X2070Y632D01*
X2705Y632D02*
X2712Y632D01*
X2802Y632D02*
X2809Y632D01*
X0Y631D02*
X7Y631D01*
X73Y631D02*
X83Y631D01*
X225Y631D02*
X232Y631D01*
X244Y631D02*
X251Y631D01*
X279Y631D02*
X283Y631D01*
X1015Y631D02*
X1022Y631D01*
X1046Y631D02*
X1053Y631D01*
X2055Y631D02*
X2070Y631D01*
X2705Y631D02*
X2712Y631D01*
X2802Y631D02*
X2809Y631D01*
X0Y630D02*
X7Y630D01*
X74Y630D02*
X84Y630D01*
X225Y630D02*
X232Y630D01*
X244Y630D02*
X251Y630D01*
X279Y630D02*
X283Y630D01*
X1015Y630D02*
X1022Y630D01*
X1046Y630D02*
X1053Y630D01*
X2055Y630D02*
X2070Y630D01*
X2705Y630D02*
X2712Y630D01*
X2802Y630D02*
X2809Y630D01*
X0Y629D02*
X7Y629D01*
X75Y629D02*
X85Y629D01*
X225Y629D02*
X232Y629D01*
X244Y629D02*
X251Y629D01*
X279Y629D02*
X283Y629D01*
X1015Y629D02*
X1022Y629D01*
X1046Y629D02*
X1053Y629D01*
X2055Y629D02*
X2070Y629D01*
X2705Y629D02*
X2712Y629D01*
X2802Y629D02*
X2809Y629D01*
X0Y628D02*
X7Y628D01*
X76Y628D02*
X86Y628D01*
X225Y628D02*
X232Y628D01*
X244Y628D02*
X251Y628D01*
X279Y628D02*
X283Y628D01*
X1015Y628D02*
X1022Y628D01*
X1046Y628D02*
X1053Y628D01*
X2055Y628D02*
X2070Y628D01*
X2705Y628D02*
X2712Y628D01*
X2802Y628D02*
X2809Y628D01*
X0Y627D02*
X7Y627D01*
X77Y627D02*
X87Y627D01*
X225Y627D02*
X232Y627D01*
X244Y627D02*
X251Y627D01*
X279Y627D02*
X283Y627D01*
X1015Y627D02*
X1022Y627D01*
X1046Y627D02*
X1053Y627D01*
X2055Y627D02*
X2070Y627D01*
X2705Y627D02*
X2712Y627D01*
X2802Y627D02*
X2809Y627D01*
X0Y626D02*
X7Y626D01*
X78Y626D02*
X88Y626D01*
X225Y626D02*
X233Y626D01*
X243Y626D02*
X251Y626D01*
X279Y626D02*
X283Y626D01*
X1015Y626D02*
X1022Y626D01*
X1046Y626D02*
X1053Y626D01*
X2055Y626D02*
X2070Y626D01*
X2705Y626D02*
X2712Y626D01*
X2802Y626D02*
X2809Y626D01*
X0Y625D02*
X7Y625D01*
X79Y625D02*
X89Y625D01*
X226Y625D02*
X234Y625D01*
X242Y625D02*
X251Y625D01*
X279Y625D02*
X283Y625D01*
X1015Y625D02*
X1022Y625D01*
X1046Y625D02*
X1053Y625D01*
X2055Y625D02*
X2070Y625D01*
X2705Y625D02*
X2712Y625D01*
X2802Y625D02*
X2809Y625D01*
X0Y624D02*
X7Y624D01*
X80Y624D02*
X90Y624D01*
X226Y624D02*
X235Y624D01*
X241Y624D02*
X250Y624D01*
X279Y624D02*
X283Y624D01*
X1015Y624D02*
X1022Y624D01*
X1046Y624D02*
X1053Y624D01*
X2055Y624D02*
X2070Y624D01*
X2705Y624D02*
X2712Y624D01*
X2802Y624D02*
X2809Y624D01*
X0Y623D02*
X7Y623D01*
X81Y623D02*
X90Y623D01*
X226Y623D02*
X250Y623D01*
X279Y623D02*
X283Y623D01*
X1015Y623D02*
X1023Y623D01*
X1045Y623D02*
X1053Y623D01*
X2055Y623D02*
X2070Y623D01*
X2705Y623D02*
X2712Y623D01*
X2802Y623D02*
X2809Y623D01*
X0Y622D02*
X7Y622D01*
X82Y622D02*
X90Y622D01*
X227Y622D02*
X249Y622D01*
X279Y622D02*
X283Y622D01*
X1016Y622D02*
X1023Y622D01*
X1045Y622D02*
X1052Y622D01*
X2055Y622D02*
X2070Y622D01*
X2705Y622D02*
X2712Y622D01*
X2802Y622D02*
X2809Y622D01*
X0Y621D02*
X7Y621D01*
X83Y621D02*
X90Y621D01*
X228Y621D02*
X248Y621D01*
X279Y621D02*
X283Y621D01*
X1016Y621D02*
X1024Y621D01*
X1044Y621D02*
X1052Y621D01*
X2055Y621D02*
X2070Y621D01*
X2705Y621D02*
X2712Y621D01*
X2802Y621D02*
X2809Y621D01*
X0Y620D02*
X7Y620D01*
X83Y620D02*
X90Y620D01*
X229Y620D02*
X248Y620D01*
X279Y620D02*
X283Y620D01*
X1016Y620D02*
X1025Y620D01*
X1043Y620D02*
X1052Y620D01*
X2055Y620D02*
X2070Y620D01*
X2705Y620D02*
X2712Y620D01*
X2802Y620D02*
X2809Y620D01*
X0Y619D02*
X7Y619D01*
X83Y619D02*
X90Y619D01*
X230Y619D02*
X247Y619D01*
X279Y619D02*
X283Y619D01*
X1017Y619D02*
X1026Y619D01*
X1042Y619D02*
X1051Y619D01*
X2055Y619D02*
X2070Y619D01*
X2705Y619D02*
X2712Y619D01*
X2802Y619D02*
X2809Y619D01*
X0Y618D02*
X7Y618D01*
X83Y618D02*
X90Y618D01*
X231Y618D02*
X245Y618D01*
X280Y618D02*
X283Y618D01*
X1017Y618D02*
X1027Y618D01*
X1041Y618D02*
X1051Y618D01*
X2055Y618D02*
X2070Y618D01*
X2705Y618D02*
X2712Y618D01*
X2802Y618D02*
X2809Y618D01*
X0Y617D02*
X7Y617D01*
X83Y617D02*
X90Y617D01*
X233Y617D02*
X243Y617D01*
X1018Y617D02*
X1028Y617D01*
X1040Y617D02*
X1050Y617D01*
X2055Y617D02*
X2070Y617D01*
X2705Y617D02*
X2712Y617D01*
X2802Y617D02*
X2809Y617D01*
X0Y616D02*
X7Y616D01*
X83Y616D02*
X90Y616D01*
X236Y616D02*
X241Y616D01*
X1019Y616D02*
X1033Y616D01*
X1035Y616D02*
X1049Y616D01*
X2055Y616D02*
X2070Y616D01*
X2705Y616D02*
X2712Y616D01*
X2802Y616D02*
X2809Y616D01*
X0Y615D02*
X7Y615D01*
X83Y615D02*
X90Y615D01*
X1019Y615D02*
X1048Y615D01*
X2055Y615D02*
X2070Y615D01*
X2705Y615D02*
X2712Y615D01*
X2802Y615D02*
X2809Y615D01*
X0Y614D02*
X7Y614D01*
X83Y614D02*
X90Y614D01*
X1020Y614D02*
X1048Y614D01*
X2055Y614D02*
X2070Y614D01*
X2705Y614D02*
X2712Y614D01*
X2802Y614D02*
X2809Y614D01*
X0Y613D02*
X7Y613D01*
X83Y613D02*
X90Y613D01*
X1021Y613D02*
X1047Y613D01*
X2055Y613D02*
X2070Y613D01*
X2705Y613D02*
X2712Y613D01*
X2802Y613D02*
X2809Y613D01*
X0Y612D02*
X7Y612D01*
X83Y612D02*
X90Y612D01*
X1023Y612D02*
X1045Y612D01*
X2055Y612D02*
X2070Y612D01*
X2705Y612D02*
X2712Y612D01*
X2802Y612D02*
X2809Y612D01*
X0Y611D02*
X7Y611D01*
X83Y611D02*
X90Y611D01*
X1024Y611D02*
X1044Y611D01*
X2055Y611D02*
X2070Y611D01*
X2705Y611D02*
X2712Y611D01*
X2802Y611D02*
X2809Y611D01*
X0Y610D02*
X7Y610D01*
X83Y610D02*
X90Y610D01*
X1026Y610D02*
X1042Y610D01*
X2055Y610D02*
X2070Y610D01*
X2705Y610D02*
X2712Y610D01*
X2802Y610D02*
X2809Y610D01*
X0Y609D02*
X7Y609D01*
X83Y609D02*
X90Y609D01*
X1029Y609D02*
X1039Y609D01*
X2055Y609D02*
X2070Y609D01*
X2705Y609D02*
X2712Y609D01*
X2802Y609D02*
X2809Y609D01*
X0Y608D02*
X7Y608D01*
X83Y608D02*
X90Y608D01*
X1033Y608D02*
X1035Y608D01*
X2055Y608D02*
X2070Y608D01*
X2705Y608D02*
X2712Y608D01*
X2802Y608D02*
X2809Y608D01*
X0Y607D02*
X7Y607D01*
X83Y607D02*
X90Y607D01*
X2055Y607D02*
X2070Y607D01*
X2705Y607D02*
X2712Y607D01*
X2802Y607D02*
X2809Y607D01*
X0Y606D02*
X7Y606D01*
X83Y606D02*
X90Y606D01*
X2055Y606D02*
X2070Y606D01*
X2705Y606D02*
X2712Y606D01*
X2802Y606D02*
X2809Y606D01*
X0Y605D02*
X7Y605D01*
X83Y605D02*
X90Y605D01*
X2055Y605D02*
X2070Y605D01*
X2705Y605D02*
X2712Y605D01*
X2802Y605D02*
X2809Y605D01*
X0Y604D02*
X7Y604D01*
X83Y604D02*
X90Y604D01*
X2055Y604D02*
X2070Y604D01*
X2705Y604D02*
X2712Y604D01*
X2802Y604D02*
X2809Y604D01*
X0Y603D02*
X7Y603D01*
X83Y603D02*
X90Y603D01*
X2055Y603D02*
X2070Y603D01*
X2705Y603D02*
X2712Y603D01*
X2802Y603D02*
X2809Y603D01*
X0Y602D02*
X7Y602D01*
X83Y602D02*
X90Y602D01*
X2055Y602D02*
X2070Y602D01*
X2705Y602D02*
X2712Y602D01*
X2802Y602D02*
X2809Y602D01*
X0Y601D02*
X7Y601D01*
X83Y601D02*
X90Y601D01*
X2055Y601D02*
X2070Y601D01*
X2705Y601D02*
X2712Y601D01*
X2802Y601D02*
X2809Y601D01*
X0Y600D02*
X7Y600D01*
X83Y600D02*
X90Y600D01*
X2055Y600D02*
X2070Y600D01*
X2705Y600D02*
X2712Y600D01*
X2802Y600D02*
X2809Y600D01*
X0Y599D02*
X7Y599D01*
X83Y599D02*
X90Y599D01*
X2055Y599D02*
X2070Y599D01*
X2705Y599D02*
X2712Y599D01*
X2802Y599D02*
X2809Y599D01*
X0Y598D02*
X7Y598D01*
X83Y598D02*
X90Y598D01*
X2055Y598D02*
X2070Y598D01*
X2705Y598D02*
X2712Y598D01*
X2802Y598D02*
X2809Y598D01*
X0Y597D02*
X7Y597D01*
X83Y597D02*
X90Y597D01*
X2055Y597D02*
X2070Y597D01*
X2705Y597D02*
X2712Y597D01*
X2802Y597D02*
X2809Y597D01*
X0Y596D02*
X7Y596D01*
X83Y596D02*
X90Y596D01*
X2055Y596D02*
X2070Y596D01*
X2705Y596D02*
X2712Y596D01*
X2802Y596D02*
X2809Y596D01*
X0Y595D02*
X7Y595D01*
X83Y595D02*
X90Y595D01*
X2055Y595D02*
X2070Y595D01*
X2705Y595D02*
X2712Y595D01*
X2802Y595D02*
X2809Y595D01*
X0Y594D02*
X7Y594D01*
X83Y594D02*
X90Y594D01*
X2055Y594D02*
X2070Y594D01*
X2705Y594D02*
X2712Y594D01*
X2802Y594D02*
X2809Y594D01*
X0Y593D02*
X7Y593D01*
X83Y593D02*
X90Y593D01*
X2055Y593D02*
X2070Y593D01*
X2705Y593D02*
X2712Y593D01*
X2802Y593D02*
X2809Y593D01*
X0Y592D02*
X7Y592D01*
X83Y592D02*
X90Y592D01*
X2055Y592D02*
X2070Y592D01*
X2705Y592D02*
X2712Y592D01*
X2802Y592D02*
X2809Y592D01*
X0Y591D02*
X7Y591D01*
X83Y591D02*
X90Y591D01*
X2055Y591D02*
X2070Y591D01*
X2705Y591D02*
X2712Y591D01*
X2802Y591D02*
X2809Y591D01*
X0Y590D02*
X7Y590D01*
X83Y590D02*
X90Y590D01*
X2055Y590D02*
X2070Y590D01*
X2705Y590D02*
X2712Y590D01*
X2802Y590D02*
X2809Y590D01*
X0Y589D02*
X7Y589D01*
X83Y589D02*
X90Y589D01*
X2055Y589D02*
X2070Y589D01*
X2705Y589D02*
X2712Y589D01*
X2802Y589D02*
X2809Y589D01*
X0Y588D02*
X7Y588D01*
X83Y588D02*
X90Y588D01*
X2055Y588D02*
X2070Y588D01*
X2705Y588D02*
X2712Y588D01*
X2802Y588D02*
X2809Y588D01*
X0Y587D02*
X7Y587D01*
X83Y587D02*
X90Y587D01*
X2055Y587D02*
X2070Y587D01*
X2705Y587D02*
X2712Y587D01*
X2802Y587D02*
X2809Y587D01*
X0Y586D02*
X7Y586D01*
X83Y586D02*
X90Y586D01*
X2055Y586D02*
X2070Y586D01*
X2705Y586D02*
X2712Y586D01*
X2802Y586D02*
X2809Y586D01*
X0Y585D02*
X7Y585D01*
X83Y585D02*
X90Y585D01*
X2055Y585D02*
X2070Y585D01*
X2705Y585D02*
X2712Y585D01*
X2802Y585D02*
X2809Y585D01*
X0Y584D02*
X7Y584D01*
X83Y584D02*
X90Y584D01*
X2055Y584D02*
X2070Y584D01*
X2705Y584D02*
X2712Y584D01*
X2802Y584D02*
X2809Y584D01*
X0Y583D02*
X7Y583D01*
X83Y583D02*
X90Y583D01*
X2055Y583D02*
X2070Y583D01*
X2705Y583D02*
X2712Y583D01*
X2802Y583D02*
X2809Y583D01*
X0Y582D02*
X7Y582D01*
X83Y582D02*
X90Y582D01*
X2055Y582D02*
X2070Y582D01*
X2705Y582D02*
X2712Y582D01*
X2802Y582D02*
X2809Y582D01*
X0Y581D02*
X7Y581D01*
X83Y581D02*
X90Y581D01*
X2055Y581D02*
X2070Y581D01*
X2705Y581D02*
X2712Y581D01*
X2802Y581D02*
X2809Y581D01*
X0Y580D02*
X7Y580D01*
X83Y580D02*
X90Y580D01*
X2055Y580D02*
X2070Y580D01*
X2705Y580D02*
X2712Y580D01*
X2802Y580D02*
X2809Y580D01*
X0Y579D02*
X7Y579D01*
X83Y579D02*
X90Y579D01*
X2055Y579D02*
X2070Y579D01*
X2705Y579D02*
X2712Y579D01*
X2802Y579D02*
X2809Y579D01*
X0Y578D02*
X7Y578D01*
X83Y578D02*
X90Y578D01*
X2055Y578D02*
X2070Y578D01*
X2705Y578D02*
X2712Y578D01*
X2802Y578D02*
X2809Y578D01*
X0Y577D02*
X7Y577D01*
X83Y577D02*
X90Y577D01*
X2055Y577D02*
X2070Y577D01*
X2705Y577D02*
X2712Y577D01*
X2802Y577D02*
X2809Y577D01*
X0Y576D02*
X7Y576D01*
X83Y576D02*
X90Y576D01*
X2055Y576D02*
X2070Y576D01*
X2705Y576D02*
X2712Y576D01*
X2802Y576D02*
X2809Y576D01*
X0Y575D02*
X7Y575D01*
X83Y575D02*
X90Y575D01*
X2055Y575D02*
X2070Y575D01*
X2705Y575D02*
X2712Y575D01*
X2802Y575D02*
X2809Y575D01*
X0Y574D02*
X7Y574D01*
X83Y574D02*
X90Y574D01*
X2055Y574D02*
X2070Y574D01*
X2705Y574D02*
X2712Y574D01*
X2802Y574D02*
X2809Y574D01*
X0Y573D02*
X7Y573D01*
X83Y573D02*
X90Y573D01*
X2055Y573D02*
X2070Y573D01*
X2705Y573D02*
X2712Y573D01*
X2802Y573D02*
X2809Y573D01*
X0Y572D02*
X7Y572D01*
X83Y572D02*
X90Y572D01*
X2055Y572D02*
X2070Y572D01*
X2705Y572D02*
X2712Y572D01*
X2802Y572D02*
X2809Y572D01*
X0Y571D02*
X7Y571D01*
X83Y571D02*
X90Y571D01*
X2055Y571D02*
X2070Y571D01*
X2705Y571D02*
X2712Y571D01*
X2802Y571D02*
X2809Y571D01*
X0Y570D02*
X7Y570D01*
X83Y570D02*
X90Y570D01*
X2055Y570D02*
X2070Y570D01*
X2705Y570D02*
X2712Y570D01*
X2802Y570D02*
X2809Y570D01*
X0Y569D02*
X7Y569D01*
X83Y569D02*
X90Y569D01*
X2055Y569D02*
X2070Y569D01*
X2705Y569D02*
X2712Y569D01*
X2802Y569D02*
X2809Y569D01*
X0Y568D02*
X7Y568D01*
X83Y568D02*
X90Y568D01*
X2055Y568D02*
X2070Y568D01*
X2705Y568D02*
X2712Y568D01*
X2802Y568D02*
X2809Y568D01*
X0Y567D02*
X7Y567D01*
X83Y567D02*
X90Y567D01*
X2055Y567D02*
X2070Y567D01*
X2705Y567D02*
X2712Y567D01*
X2802Y567D02*
X2809Y567D01*
X0Y566D02*
X7Y566D01*
X83Y566D02*
X90Y566D01*
X2055Y566D02*
X2070Y566D01*
X2705Y566D02*
X2712Y566D01*
X2802Y566D02*
X2809Y566D01*
X0Y565D02*
X7Y565D01*
X83Y565D02*
X90Y565D01*
X2055Y565D02*
X2070Y565D01*
X2705Y565D02*
X2712Y565D01*
X2802Y565D02*
X2809Y565D01*
X0Y564D02*
X7Y564D01*
X83Y564D02*
X90Y564D01*
X2055Y564D02*
X2070Y564D01*
X2705Y564D02*
X2712Y564D01*
X2802Y564D02*
X2809Y564D01*
X0Y563D02*
X7Y563D01*
X83Y563D02*
X90Y563D01*
X2055Y563D02*
X2070Y563D01*
X2705Y563D02*
X2712Y563D01*
X2802Y563D02*
X2809Y563D01*
X0Y562D02*
X7Y562D01*
X83Y562D02*
X90Y562D01*
X2055Y562D02*
X2070Y562D01*
X2705Y562D02*
X2712Y562D01*
X2802Y562D02*
X2809Y562D01*
X0Y561D02*
X7Y561D01*
X83Y561D02*
X90Y561D01*
X2055Y561D02*
X2070Y561D01*
X2705Y561D02*
X2712Y561D01*
X2802Y561D02*
X2809Y561D01*
X0Y560D02*
X7Y560D01*
X83Y560D02*
X90Y560D01*
X2055Y560D02*
X2070Y560D01*
X2705Y560D02*
X2712Y560D01*
X2802Y560D02*
X2809Y560D01*
X0Y559D02*
X7Y559D01*
X83Y559D02*
X90Y559D01*
X2055Y559D02*
X2070Y559D01*
X2705Y559D02*
X2712Y559D01*
X2802Y559D02*
X2809Y559D01*
X0Y558D02*
X7Y558D01*
X83Y558D02*
X90Y558D01*
X2055Y558D02*
X2070Y558D01*
X2705Y558D02*
X2712Y558D01*
X2802Y558D02*
X2809Y558D01*
X0Y557D02*
X7Y557D01*
X83Y557D02*
X90Y557D01*
X2055Y557D02*
X2070Y557D01*
X2705Y557D02*
X2712Y557D01*
X2802Y557D02*
X2809Y557D01*
X0Y556D02*
X7Y556D01*
X83Y556D02*
X90Y556D01*
X2055Y556D02*
X2070Y556D01*
X2705Y556D02*
X2712Y556D01*
X2802Y556D02*
X2809Y556D01*
X0Y555D02*
X7Y555D01*
X83Y555D02*
X90Y555D01*
X2055Y555D02*
X2070Y555D01*
X2705Y555D02*
X2712Y555D01*
X2802Y555D02*
X2809Y555D01*
X0Y554D02*
X7Y554D01*
X83Y554D02*
X90Y554D01*
X2055Y554D02*
X2070Y554D01*
X2705Y554D02*
X2712Y554D01*
X2802Y554D02*
X2809Y554D01*
X0Y553D02*
X7Y553D01*
X83Y553D02*
X90Y553D01*
X2055Y553D02*
X2070Y553D01*
X2705Y553D02*
X2712Y553D01*
X2802Y553D02*
X2809Y553D01*
X0Y552D02*
X7Y552D01*
X83Y552D02*
X90Y552D01*
X2055Y552D02*
X2070Y552D01*
X2705Y552D02*
X2712Y552D01*
X2802Y552D02*
X2809Y552D01*
X0Y551D02*
X7Y551D01*
X83Y551D02*
X90Y551D01*
X2055Y551D02*
X2070Y551D01*
X2705Y551D02*
X2712Y551D01*
X2802Y551D02*
X2809Y551D01*
X0Y550D02*
X7Y550D01*
X83Y550D02*
X90Y550D01*
X2055Y550D02*
X2070Y550D01*
X2705Y550D02*
X2712Y550D01*
X2802Y550D02*
X2809Y550D01*
X0Y549D02*
X7Y549D01*
X83Y549D02*
X90Y549D01*
X2055Y549D02*
X2070Y549D01*
X2705Y549D02*
X2712Y549D01*
X2802Y549D02*
X2809Y549D01*
X0Y548D02*
X7Y548D01*
X83Y548D02*
X90Y548D01*
X2055Y548D02*
X2070Y548D01*
X2705Y548D02*
X2712Y548D01*
X2802Y548D02*
X2809Y548D01*
X0Y547D02*
X7Y547D01*
X83Y547D02*
X90Y547D01*
X2055Y547D02*
X2070Y547D01*
X2705Y547D02*
X2712Y547D01*
X2802Y547D02*
X2809Y547D01*
X0Y546D02*
X7Y546D01*
X83Y546D02*
X90Y546D01*
X2055Y546D02*
X2070Y546D01*
X2705Y546D02*
X2712Y546D01*
X2802Y546D02*
X2809Y546D01*
X0Y545D02*
X7Y545D01*
X83Y545D02*
X90Y545D01*
X2055Y545D02*
X2070Y545D01*
X2705Y545D02*
X2712Y545D01*
X2802Y545D02*
X2809Y545D01*
X0Y544D02*
X7Y544D01*
X83Y544D02*
X90Y544D01*
X2055Y544D02*
X2070Y544D01*
X2705Y544D02*
X2712Y544D01*
X2802Y544D02*
X2809Y544D01*
X0Y543D02*
X7Y543D01*
X83Y543D02*
X90Y543D01*
X1609Y543D02*
X1617Y543D01*
X2055Y543D02*
X2070Y543D01*
X2705Y543D02*
X2712Y543D01*
X2802Y543D02*
X2809Y543D01*
X0Y542D02*
X7Y542D01*
X83Y542D02*
X90Y542D01*
X1608Y542D02*
X1617Y542D01*
X2055Y542D02*
X2070Y542D01*
X2705Y542D02*
X2712Y542D01*
X2802Y542D02*
X2809Y542D01*
X0Y541D02*
X7Y541D01*
X83Y541D02*
X90Y541D01*
X1608Y541D02*
X1617Y541D01*
X2055Y541D02*
X2070Y541D01*
X2705Y541D02*
X2712Y541D01*
X2802Y541D02*
X2809Y541D01*
X0Y540D02*
X7Y540D01*
X83Y540D02*
X90Y540D01*
X1608Y540D02*
X1617Y540D01*
X2055Y540D02*
X2070Y540D01*
X2705Y540D02*
X2712Y540D01*
X2802Y540D02*
X2809Y540D01*
X0Y539D02*
X7Y539D01*
X83Y539D02*
X90Y539D01*
X1608Y539D02*
X1617Y539D01*
X2055Y539D02*
X2070Y539D01*
X2705Y539D02*
X2712Y539D01*
X2802Y539D02*
X2809Y539D01*
X0Y538D02*
X7Y538D01*
X83Y538D02*
X90Y538D01*
X1608Y538D02*
X1617Y538D01*
X2055Y538D02*
X2070Y538D01*
X2705Y538D02*
X2712Y538D01*
X2802Y538D02*
X2809Y538D01*
X0Y537D02*
X7Y537D01*
X83Y537D02*
X90Y537D01*
X1608Y537D02*
X1617Y537D01*
X2055Y537D02*
X2070Y537D01*
X2705Y537D02*
X2712Y537D01*
X2802Y537D02*
X2809Y537D01*
X0Y536D02*
X7Y536D01*
X83Y536D02*
X90Y536D01*
X1608Y536D02*
X1617Y536D01*
X2055Y536D02*
X2070Y536D01*
X2705Y536D02*
X2712Y536D01*
X2802Y536D02*
X2809Y536D01*
X0Y535D02*
X7Y535D01*
X83Y535D02*
X90Y535D01*
X1608Y535D02*
X1617Y535D01*
X2055Y535D02*
X2070Y535D01*
X2705Y535D02*
X2712Y535D01*
X2802Y535D02*
X2809Y535D01*
X0Y534D02*
X7Y534D01*
X83Y534D02*
X90Y534D01*
X1608Y534D02*
X1617Y534D01*
X2055Y534D02*
X2070Y534D01*
X2705Y534D02*
X2712Y534D01*
X2802Y534D02*
X2809Y534D01*
X0Y533D02*
X7Y533D01*
X83Y533D02*
X90Y533D01*
X1608Y533D02*
X1617Y533D01*
X2055Y533D02*
X2070Y533D01*
X2705Y533D02*
X2712Y533D01*
X2802Y533D02*
X2809Y533D01*
X0Y532D02*
X7Y532D01*
X83Y532D02*
X90Y532D01*
X1608Y532D02*
X1617Y532D01*
X2055Y532D02*
X2070Y532D01*
X2705Y532D02*
X2712Y532D01*
X2802Y532D02*
X2809Y532D01*
X0Y531D02*
X7Y531D01*
X83Y531D02*
X90Y531D01*
X1608Y531D02*
X1617Y531D01*
X2055Y531D02*
X2070Y531D01*
X2705Y531D02*
X2712Y531D01*
X2802Y531D02*
X2809Y531D01*
X0Y530D02*
X7Y530D01*
X83Y530D02*
X90Y530D01*
X1608Y530D02*
X1617Y530D01*
X2055Y530D02*
X2070Y530D01*
X2705Y530D02*
X2712Y530D01*
X2802Y530D02*
X2809Y530D01*
X0Y529D02*
X7Y529D01*
X83Y529D02*
X90Y529D01*
X1608Y529D02*
X1617Y529D01*
X2055Y529D02*
X2070Y529D01*
X2705Y529D02*
X2712Y529D01*
X2802Y529D02*
X2809Y529D01*
X0Y528D02*
X7Y528D01*
X83Y528D02*
X90Y528D01*
X1608Y528D02*
X1617Y528D01*
X2055Y528D02*
X2070Y528D01*
X2705Y528D02*
X2712Y528D01*
X2802Y528D02*
X2809Y528D01*
X0Y527D02*
X7Y527D01*
X83Y527D02*
X90Y527D01*
X1608Y527D02*
X1617Y527D01*
X2055Y527D02*
X2070Y527D01*
X2705Y527D02*
X2712Y527D01*
X2802Y527D02*
X2809Y527D01*
X0Y526D02*
X7Y526D01*
X83Y526D02*
X90Y526D01*
X1608Y526D02*
X1617Y526D01*
X2055Y526D02*
X2070Y526D01*
X2705Y526D02*
X2712Y526D01*
X2802Y526D02*
X2809Y526D01*
X0Y525D02*
X7Y525D01*
X83Y525D02*
X90Y525D01*
X1608Y525D02*
X1617Y525D01*
X2055Y525D02*
X2070Y525D01*
X2705Y525D02*
X2712Y525D01*
X2802Y525D02*
X2809Y525D01*
X0Y524D02*
X7Y524D01*
X83Y524D02*
X90Y524D01*
X1608Y524D02*
X1617Y524D01*
X2055Y524D02*
X2070Y524D01*
X2705Y524D02*
X2712Y524D01*
X2802Y524D02*
X2809Y524D01*
X0Y523D02*
X7Y523D01*
X83Y523D02*
X90Y523D01*
X1608Y523D02*
X1617Y523D01*
X2055Y523D02*
X2070Y523D01*
X2705Y523D02*
X2712Y523D01*
X2802Y523D02*
X2809Y523D01*
X0Y522D02*
X7Y522D01*
X83Y522D02*
X90Y522D01*
X1608Y522D02*
X1617Y522D01*
X2055Y522D02*
X2070Y522D01*
X2705Y522D02*
X2712Y522D01*
X2802Y522D02*
X2809Y522D01*
X0Y521D02*
X7Y521D01*
X83Y521D02*
X90Y521D01*
X1608Y521D02*
X1617Y521D01*
X2055Y521D02*
X2070Y521D01*
X2705Y521D02*
X2712Y521D01*
X2802Y521D02*
X2809Y521D01*
X0Y520D02*
X7Y520D01*
X83Y520D02*
X90Y520D01*
X1608Y520D02*
X1617Y520D01*
X2055Y520D02*
X2070Y520D01*
X2705Y520D02*
X2712Y520D01*
X2802Y520D02*
X2809Y520D01*
X0Y519D02*
X7Y519D01*
X83Y519D02*
X90Y519D01*
X1608Y519D02*
X1617Y519D01*
X2055Y519D02*
X2070Y519D01*
X2705Y519D02*
X2712Y519D01*
X2802Y519D02*
X2809Y519D01*
X0Y518D02*
X7Y518D01*
X83Y518D02*
X90Y518D01*
X1608Y518D02*
X1617Y518D01*
X2055Y518D02*
X2070Y518D01*
X2705Y518D02*
X2712Y518D01*
X2802Y518D02*
X2809Y518D01*
X0Y517D02*
X7Y517D01*
X83Y517D02*
X90Y517D01*
X1608Y517D02*
X1617Y517D01*
X2055Y517D02*
X2070Y517D01*
X2705Y517D02*
X2712Y517D01*
X2802Y517D02*
X2809Y517D01*
X0Y516D02*
X7Y516D01*
X83Y516D02*
X90Y516D01*
X1608Y516D02*
X1617Y516D01*
X2055Y516D02*
X2070Y516D01*
X2705Y516D02*
X2712Y516D01*
X2802Y516D02*
X2809Y516D01*
X0Y515D02*
X7Y515D01*
X83Y515D02*
X90Y515D01*
X1608Y515D02*
X1617Y515D01*
X2055Y515D02*
X2070Y515D01*
X2705Y515D02*
X2712Y515D01*
X2802Y515D02*
X2809Y515D01*
X0Y514D02*
X7Y514D01*
X83Y514D02*
X90Y514D01*
X1608Y514D02*
X1617Y514D01*
X2055Y514D02*
X2070Y514D01*
X2705Y514D02*
X2712Y514D01*
X2802Y514D02*
X2809Y514D01*
X0Y513D02*
X7Y513D01*
X83Y513D02*
X90Y513D01*
X1608Y513D02*
X1617Y513D01*
X2055Y513D02*
X2070Y513D01*
X2705Y513D02*
X2712Y513D01*
X2802Y513D02*
X2809Y513D01*
X0Y512D02*
X7Y512D01*
X83Y512D02*
X90Y512D01*
X1608Y512D02*
X1617Y512D01*
X2055Y512D02*
X2070Y512D01*
X2705Y512D02*
X2712Y512D01*
X2802Y512D02*
X2809Y512D01*
X0Y511D02*
X7Y511D01*
X83Y511D02*
X90Y511D01*
X1608Y511D02*
X1617Y511D01*
X2055Y511D02*
X2070Y511D01*
X2705Y511D02*
X2712Y511D01*
X2802Y511D02*
X2809Y511D01*
X0Y510D02*
X7Y510D01*
X83Y510D02*
X90Y510D01*
X1608Y510D02*
X1617Y510D01*
X2055Y510D02*
X2070Y510D01*
X2705Y510D02*
X2712Y510D01*
X2802Y510D02*
X2809Y510D01*
X0Y509D02*
X7Y509D01*
X83Y509D02*
X90Y509D01*
X1608Y509D02*
X1617Y509D01*
X2055Y509D02*
X2070Y509D01*
X2705Y509D02*
X2712Y509D01*
X2802Y509D02*
X2809Y509D01*
X0Y508D02*
X7Y508D01*
X83Y508D02*
X90Y508D01*
X1608Y508D02*
X1617Y508D01*
X2055Y508D02*
X2070Y508D01*
X2705Y508D02*
X2712Y508D01*
X2802Y508D02*
X2809Y508D01*
X0Y507D02*
X7Y507D01*
X83Y507D02*
X90Y507D01*
X1608Y507D02*
X1617Y507D01*
X2055Y507D02*
X2070Y507D01*
X2705Y507D02*
X2712Y507D01*
X2802Y507D02*
X2809Y507D01*
X0Y506D02*
X7Y506D01*
X83Y506D02*
X90Y506D01*
X1608Y506D02*
X1617Y506D01*
X2055Y506D02*
X2070Y506D01*
X2705Y506D02*
X2712Y506D01*
X2802Y506D02*
X2809Y506D01*
X0Y505D02*
X7Y505D01*
X83Y505D02*
X90Y505D01*
X1608Y505D02*
X1617Y505D01*
X2055Y505D02*
X2070Y505D01*
X2705Y505D02*
X2712Y505D01*
X2802Y505D02*
X2809Y505D01*
X0Y504D02*
X7Y504D01*
X83Y504D02*
X90Y504D01*
X1608Y504D02*
X1617Y504D01*
X2055Y504D02*
X2070Y504D01*
X2705Y504D02*
X2712Y504D01*
X2802Y504D02*
X2809Y504D01*
X0Y503D02*
X7Y503D01*
X83Y503D02*
X90Y503D01*
X1608Y503D02*
X1617Y503D01*
X2055Y503D02*
X2070Y503D01*
X2705Y503D02*
X2712Y503D01*
X2802Y503D02*
X2809Y503D01*
X0Y502D02*
X7Y502D01*
X83Y502D02*
X90Y502D01*
X1608Y502D02*
X1617Y502D01*
X2055Y502D02*
X2070Y502D01*
X2705Y502D02*
X2712Y502D01*
X2802Y502D02*
X2809Y502D01*
X0Y501D02*
X7Y501D01*
X83Y501D02*
X90Y501D01*
X1608Y501D02*
X1617Y501D01*
X2055Y501D02*
X2070Y501D01*
X2705Y501D02*
X2712Y501D01*
X2802Y501D02*
X2809Y501D01*
X0Y500D02*
X7Y500D01*
X83Y500D02*
X90Y500D01*
X1608Y500D02*
X1617Y500D01*
X2055Y500D02*
X2070Y500D01*
X2705Y500D02*
X2712Y500D01*
X2802Y500D02*
X2809Y500D01*
X0Y499D02*
X7Y499D01*
X83Y499D02*
X90Y499D01*
X1608Y499D02*
X1617Y499D01*
X2055Y499D02*
X2070Y499D01*
X2705Y499D02*
X2712Y499D01*
X2802Y499D02*
X2809Y499D01*
X0Y498D02*
X7Y498D01*
X83Y498D02*
X90Y498D01*
X1608Y498D02*
X1617Y498D01*
X2055Y498D02*
X2070Y498D01*
X2705Y498D02*
X2712Y498D01*
X2802Y498D02*
X2809Y498D01*
X0Y497D02*
X7Y497D01*
X83Y497D02*
X90Y497D01*
X1031Y497D02*
X1037Y497D01*
X1608Y497D02*
X1617Y497D01*
X2055Y497D02*
X2070Y497D01*
X2705Y497D02*
X2712Y497D01*
X2802Y497D02*
X2809Y497D01*
X0Y496D02*
X7Y496D01*
X83Y496D02*
X90Y496D01*
X1028Y496D02*
X1040Y496D01*
X1608Y496D02*
X1617Y496D01*
X2055Y496D02*
X2070Y496D01*
X2705Y496D02*
X2712Y496D01*
X2802Y496D02*
X2809Y496D01*
X0Y495D02*
X7Y495D01*
X83Y495D02*
X90Y495D01*
X1026Y495D02*
X1042Y495D01*
X1608Y495D02*
X1610Y495D01*
X1616Y495D02*
X1617Y495D01*
X2055Y495D02*
X2070Y495D01*
X2705Y495D02*
X2712Y495D01*
X2802Y495D02*
X2809Y495D01*
X0Y494D02*
X7Y494D01*
X83Y494D02*
X90Y494D01*
X1024Y494D02*
X1044Y494D01*
X2055Y494D02*
X2070Y494D01*
X2705Y494D02*
X2712Y494D01*
X2802Y494D02*
X2809Y494D01*
X0Y493D02*
X7Y493D01*
X83Y493D02*
X90Y493D01*
X1022Y493D02*
X1046Y493D01*
X2055Y493D02*
X2070Y493D01*
X2705Y493D02*
X2712Y493D01*
X2802Y493D02*
X2809Y493D01*
X0Y492D02*
X7Y492D01*
X83Y492D02*
X90Y492D01*
X1021Y492D02*
X1047Y492D01*
X2055Y492D02*
X2070Y492D01*
X2705Y492D02*
X2712Y492D01*
X2802Y492D02*
X2809Y492D01*
X0Y491D02*
X7Y491D01*
X83Y491D02*
X90Y491D01*
X1020Y491D02*
X1048Y491D01*
X2055Y491D02*
X2070Y491D01*
X2705Y491D02*
X2712Y491D01*
X2802Y491D02*
X2809Y491D01*
X0Y490D02*
X7Y490D01*
X83Y490D02*
X90Y490D01*
X1019Y490D02*
X1049Y490D01*
X2055Y490D02*
X2070Y490D01*
X2705Y490D02*
X2712Y490D01*
X2802Y490D02*
X2809Y490D01*
X0Y489D02*
X7Y489D01*
X83Y489D02*
X90Y489D01*
X235Y489D02*
X241Y489D01*
X1018Y489D02*
X1031Y489D01*
X1037Y489D02*
X1050Y489D01*
X2055Y489D02*
X2070Y489D01*
X2705Y489D02*
X2712Y489D01*
X2802Y489D02*
X2809Y489D01*
X0Y488D02*
X7Y488D01*
X83Y488D02*
X90Y488D01*
X232Y488D02*
X244Y488D01*
X281Y488D02*
X282Y488D01*
X1018Y488D02*
X1028Y488D01*
X1040Y488D02*
X1050Y488D01*
X2055Y488D02*
X2070Y488D01*
X2705Y488D02*
X2712Y488D01*
X2802Y488D02*
X2809Y488D01*
X0Y487D02*
X7Y487D01*
X83Y487D02*
X90Y487D01*
X231Y487D02*
X246Y487D01*
X280Y487D02*
X283Y487D01*
X1017Y487D02*
X1027Y487D01*
X1041Y487D02*
X1051Y487D01*
X2055Y487D02*
X2070Y487D01*
X2705Y487D02*
X2712Y487D01*
X2802Y487D02*
X2809Y487D01*
X0Y486D02*
X7Y486D01*
X83Y486D02*
X90Y486D01*
X229Y486D02*
X247Y486D01*
X279Y486D02*
X283Y486D01*
X1017Y486D02*
X1025Y486D01*
X1043Y486D02*
X1051Y486D01*
X2055Y486D02*
X2070Y486D01*
X2705Y486D02*
X2712Y486D01*
X2802Y486D02*
X2809Y486D01*
X0Y485D02*
X7Y485D01*
X83Y485D02*
X90Y485D01*
X228Y485D02*
X248Y485D01*
X279Y485D02*
X283Y485D01*
X1016Y485D02*
X1024Y485D01*
X1044Y485D02*
X1052Y485D01*
X2055Y485D02*
X2070Y485D01*
X2705Y485D02*
X2712Y485D01*
X2802Y485D02*
X2809Y485D01*
X0Y484D02*
X7Y484D01*
X82Y484D02*
X90Y484D01*
X228Y484D02*
X249Y484D01*
X279Y484D02*
X283Y484D01*
X1016Y484D02*
X1024Y484D01*
X1044Y484D02*
X1052Y484D01*
X2055Y484D02*
X2070Y484D01*
X2705Y484D02*
X2712Y484D01*
X2802Y484D02*
X2809Y484D01*
X0Y483D02*
X7Y483D01*
X81Y483D02*
X90Y483D01*
X227Y483D02*
X249Y483D01*
X279Y483D02*
X283Y483D01*
X1016Y483D02*
X1023Y483D01*
X1045Y483D02*
X1052Y483D01*
X2055Y483D02*
X2070Y483D01*
X2705Y483D02*
X2712Y483D01*
X2802Y483D02*
X2809Y483D01*
X0Y482D02*
X7Y482D01*
X80Y482D02*
X90Y482D01*
X226Y482D02*
X250Y482D01*
X279Y482D02*
X283Y482D01*
X1015Y482D02*
X1023Y482D01*
X1045Y482D02*
X1053Y482D01*
X2055Y482D02*
X2070Y482D01*
X2705Y482D02*
X2712Y482D01*
X2802Y482D02*
X2809Y482D01*
X0Y481D02*
X7Y481D01*
X79Y481D02*
X90Y481D01*
X226Y481D02*
X235Y481D01*
X241Y481D02*
X250Y481D01*
X279Y481D02*
X283Y481D01*
X1015Y481D02*
X1022Y481D01*
X1046Y481D02*
X1053Y481D01*
X2055Y481D02*
X2070Y481D01*
X2705Y481D02*
X2712Y481D01*
X2802Y481D02*
X2809Y481D01*
X0Y480D02*
X7Y480D01*
X78Y480D02*
X89Y480D01*
X226Y480D02*
X234Y480D01*
X243Y480D02*
X251Y480D01*
X279Y480D02*
X283Y480D01*
X1015Y480D02*
X1022Y480D01*
X1046Y480D02*
X1053Y480D01*
X2055Y480D02*
X2070Y480D01*
X2705Y480D02*
X2712Y480D01*
X2802Y480D02*
X2809Y480D01*
X0Y479D02*
X7Y479D01*
X77Y479D02*
X88Y479D01*
X225Y479D02*
X233Y479D01*
X243Y479D02*
X251Y479D01*
X279Y479D02*
X283Y479D01*
X1015Y479D02*
X1022Y479D01*
X1046Y479D02*
X1053Y479D01*
X2055Y479D02*
X2070Y479D01*
X2705Y479D02*
X2712Y479D01*
X2802Y479D02*
X2809Y479D01*
X0Y478D02*
X7Y478D01*
X76Y478D02*
X87Y478D01*
X225Y478D02*
X232Y478D01*
X244Y478D02*
X251Y478D01*
X279Y478D02*
X283Y478D01*
X1015Y478D02*
X1022Y478D01*
X1046Y478D02*
X1053Y478D01*
X2055Y478D02*
X2070Y478D01*
X2705Y478D02*
X2712Y478D01*
X2802Y478D02*
X2809Y478D01*
X0Y477D02*
X7Y477D01*
X75Y477D02*
X86Y477D01*
X225Y477D02*
X232Y477D01*
X244Y477D02*
X251Y477D01*
X279Y477D02*
X283Y477D01*
X1015Y477D02*
X1022Y477D01*
X1046Y477D02*
X1053Y477D01*
X2055Y477D02*
X2070Y477D01*
X2705Y477D02*
X2712Y477D01*
X2802Y477D02*
X2809Y477D01*
X0Y476D02*
X7Y476D01*
X74Y476D02*
X85Y476D01*
X225Y476D02*
X232Y476D01*
X244Y476D02*
X251Y476D01*
X279Y476D02*
X283Y476D01*
X1015Y476D02*
X1022Y476D01*
X1046Y476D02*
X1053Y476D01*
X2055Y476D02*
X2070Y476D01*
X2705Y476D02*
X2712Y476D01*
X2802Y476D02*
X2809Y476D01*
X0Y475D02*
X7Y475D01*
X73Y475D02*
X84Y475D01*
X225Y475D02*
X232Y475D01*
X244Y475D02*
X251Y475D01*
X279Y475D02*
X283Y475D01*
X1015Y475D02*
X1022Y475D01*
X1046Y475D02*
X1053Y475D01*
X2055Y475D02*
X2070Y475D01*
X2705Y475D02*
X2712Y475D01*
X2802Y475D02*
X2809Y475D01*
X0Y474D02*
X7Y474D01*
X72Y474D02*
X83Y474D01*
X225Y474D02*
X232Y474D01*
X244Y474D02*
X251Y474D01*
X279Y474D02*
X283Y474D01*
X1015Y474D02*
X1022Y474D01*
X1046Y474D02*
X1053Y474D01*
X2055Y474D02*
X2070Y474D01*
X2705Y474D02*
X2712Y474D01*
X2802Y474D02*
X2809Y474D01*
X0Y473D02*
X7Y473D01*
X71Y473D02*
X82Y473D01*
X225Y473D02*
X233Y473D01*
X244Y473D02*
X251Y473D01*
X279Y473D02*
X283Y473D01*
X1015Y473D02*
X1023Y473D01*
X1045Y473D02*
X1053Y473D01*
X2055Y473D02*
X2070Y473D01*
X2705Y473D02*
X2712Y473D01*
X2802Y473D02*
X2809Y473D01*
X0Y472D02*
X7Y472D01*
X70Y472D02*
X81Y472D01*
X225Y472D02*
X233Y472D01*
X243Y472D02*
X251Y472D01*
X279Y472D02*
X283Y472D01*
X1016Y472D02*
X1023Y472D01*
X1045Y472D02*
X1052Y472D01*
X2055Y472D02*
X2070Y472D01*
X2705Y472D02*
X2712Y472D01*
X2802Y472D02*
X2809Y472D01*
X0Y471D02*
X7Y471D01*
X69Y471D02*
X80Y471D01*
X226Y471D02*
X235Y471D01*
X242Y471D02*
X250Y471D01*
X279Y471D02*
X283Y471D01*
X1016Y471D02*
X1024Y471D01*
X1044Y471D02*
X1052Y471D01*
X2055Y471D02*
X2070Y471D01*
X2705Y471D02*
X2712Y471D01*
X2802Y471D02*
X2809Y471D01*
X0Y470D02*
X7Y470D01*
X68Y470D02*
X79Y470D01*
X226Y470D02*
X250Y470D01*
X279Y470D02*
X283Y470D01*
X1016Y470D02*
X1025Y470D01*
X1043Y470D02*
X1052Y470D01*
X2055Y470D02*
X2070Y470D01*
X2705Y470D02*
X2712Y470D01*
X2802Y470D02*
X2809Y470D01*
X0Y469D02*
X7Y469D01*
X67Y469D02*
X78Y469D01*
X227Y469D02*
X249Y469D01*
X279Y469D02*
X283Y469D01*
X1017Y469D02*
X1026Y469D01*
X1042Y469D02*
X1051Y469D01*
X2055Y469D02*
X2070Y469D01*
X2705Y469D02*
X2712Y469D01*
X2802Y469D02*
X2809Y469D01*
X0Y468D02*
X7Y468D01*
X66Y468D02*
X77Y468D01*
X227Y468D02*
X249Y468D01*
X279Y468D02*
X283Y468D01*
X1018Y468D02*
X1027Y468D01*
X1041Y468D02*
X1050Y468D01*
X2055Y468D02*
X2070Y468D01*
X2705Y468D02*
X2712Y468D01*
X2802Y468D02*
X2809Y468D01*
X0Y467D02*
X7Y467D01*
X65Y467D02*
X76Y467D01*
X228Y467D02*
X248Y467D01*
X279Y467D02*
X283Y467D01*
X1018Y467D02*
X1029Y467D01*
X1039Y467D02*
X1050Y467D01*
X2055Y467D02*
X2070Y467D01*
X2705Y467D02*
X2712Y467D01*
X2802Y467D02*
X2809Y467D01*
X0Y466D02*
X7Y466D01*
X64Y466D02*
X75Y466D01*
X229Y466D02*
X247Y466D01*
X279Y466D02*
X283Y466D01*
X1019Y466D02*
X1049Y466D01*
X2055Y466D02*
X2070Y466D01*
X2705Y466D02*
X2712Y466D01*
X2802Y466D02*
X2809Y466D01*
X0Y465D02*
X7Y465D01*
X64Y465D02*
X74Y465D01*
X230Y465D02*
X246Y465D01*
X279Y465D02*
X283Y465D01*
X1020Y465D02*
X1048Y465D01*
X2055Y465D02*
X2070Y465D01*
X2705Y465D02*
X2712Y465D01*
X2802Y465D02*
X2809Y465D01*
X0Y464D02*
X7Y464D01*
X64Y464D02*
X73Y464D01*
X232Y464D02*
X244Y464D01*
X279Y464D02*
X283Y464D01*
X1020Y464D02*
X1048Y464D01*
X2055Y464D02*
X2070Y464D01*
X2705Y464D02*
X2712Y464D01*
X2802Y464D02*
X2809Y464D01*
X0Y463D02*
X7Y463D01*
X64Y463D02*
X72Y463D01*
X234Y463D02*
X242Y463D01*
X279Y463D02*
X283Y463D01*
X1022Y463D02*
X1046Y463D01*
X2055Y463D02*
X2070Y463D01*
X2705Y463D02*
X2712Y463D01*
X2802Y463D02*
X2809Y463D01*
X0Y462D02*
X7Y462D01*
X64Y462D02*
X71Y462D01*
X279Y462D02*
X283Y462D01*
X1023Y462D02*
X1045Y462D01*
X2055Y462D02*
X2070Y462D01*
X2705Y462D02*
X2712Y462D01*
X2802Y462D02*
X2809Y462D01*
X0Y461D02*
X7Y461D01*
X64Y461D02*
X71Y461D01*
X279Y461D02*
X283Y461D01*
X1024Y461D02*
X1044Y461D01*
X2055Y461D02*
X2070Y461D01*
X2705Y461D02*
X2712Y461D01*
X2802Y461D02*
X2809Y461D01*
X0Y460D02*
X7Y460D01*
X64Y460D02*
X71Y460D01*
X279Y460D02*
X283Y460D01*
X1026Y460D02*
X1042Y460D01*
X2055Y460D02*
X2070Y460D01*
X2705Y460D02*
X2712Y460D01*
X2802Y460D02*
X2809Y460D01*
X0Y459D02*
X7Y459D01*
X64Y459D02*
X71Y459D01*
X279Y459D02*
X283Y459D01*
X1029Y459D02*
X1039Y459D01*
X2055Y459D02*
X2070Y459D01*
X2705Y459D02*
X2712Y459D01*
X2802Y459D02*
X2809Y459D01*
X0Y458D02*
X7Y458D01*
X64Y458D02*
X71Y458D01*
X279Y458D02*
X283Y458D01*
X2055Y458D02*
X2070Y458D01*
X2705Y458D02*
X2712Y458D01*
X2802Y458D02*
X2809Y458D01*
X0Y457D02*
X7Y457D01*
X64Y457D02*
X71Y457D01*
X279Y457D02*
X283Y457D01*
X2055Y457D02*
X2070Y457D01*
X2705Y457D02*
X2712Y457D01*
X2802Y457D02*
X2809Y457D01*
X0Y456D02*
X7Y456D01*
X64Y456D02*
X71Y456D01*
X279Y456D02*
X283Y456D01*
X2055Y456D02*
X2070Y456D01*
X2705Y456D02*
X2712Y456D01*
X2802Y456D02*
X2809Y456D01*
X0Y455D02*
X7Y455D01*
X64Y455D02*
X71Y455D01*
X279Y455D02*
X283Y455D01*
X2055Y455D02*
X2070Y455D01*
X2705Y455D02*
X2712Y455D01*
X2802Y455D02*
X2809Y455D01*
X0Y454D02*
X7Y454D01*
X64Y454D02*
X71Y454D01*
X279Y454D02*
X283Y454D01*
X2055Y454D02*
X2070Y454D01*
X2705Y454D02*
X2712Y454D01*
X2802Y454D02*
X2809Y454D01*
X0Y453D02*
X7Y453D01*
X64Y453D02*
X71Y453D01*
X280Y453D02*
X283Y453D01*
X2055Y453D02*
X2070Y453D01*
X2705Y453D02*
X2712Y453D01*
X2802Y453D02*
X2809Y453D01*
X0Y452D02*
X7Y452D01*
X64Y452D02*
X71Y452D01*
X2055Y452D02*
X2070Y452D01*
X2705Y452D02*
X2712Y452D01*
X2802Y452D02*
X2809Y452D01*
X0Y451D02*
X7Y451D01*
X64Y451D02*
X71Y451D01*
X2055Y451D02*
X2070Y451D01*
X2705Y451D02*
X2712Y451D01*
X2802Y451D02*
X2809Y451D01*
X0Y450D02*
X7Y450D01*
X64Y450D02*
X71Y450D01*
X2055Y450D02*
X2070Y450D01*
X2705Y450D02*
X2712Y450D01*
X2802Y450D02*
X2809Y450D01*
X0Y449D02*
X7Y449D01*
X64Y449D02*
X71Y449D01*
X2055Y449D02*
X2070Y449D01*
X2705Y449D02*
X2712Y449D01*
X2802Y449D02*
X2809Y449D01*
X0Y448D02*
X7Y448D01*
X64Y448D02*
X71Y448D01*
X2055Y448D02*
X2070Y448D01*
X2705Y448D02*
X2712Y448D01*
X2802Y448D02*
X2809Y448D01*
X0Y447D02*
X7Y447D01*
X64Y447D02*
X71Y447D01*
X2055Y447D02*
X2070Y447D01*
X2705Y447D02*
X2712Y447D01*
X2802Y447D02*
X2809Y447D01*
X0Y446D02*
X7Y446D01*
X64Y446D02*
X71Y446D01*
X2055Y446D02*
X2070Y446D01*
X2705Y446D02*
X2712Y446D01*
X2802Y446D02*
X2809Y446D01*
X0Y445D02*
X7Y445D01*
X64Y445D02*
X71Y445D01*
X2055Y445D02*
X2070Y445D01*
X2705Y445D02*
X2712Y445D01*
X2802Y445D02*
X2809Y445D01*
X0Y444D02*
X7Y444D01*
X64Y444D02*
X71Y444D01*
X2055Y444D02*
X2070Y444D01*
X2705Y444D02*
X2712Y444D01*
X2802Y444D02*
X2809Y444D01*
X0Y443D02*
X7Y443D01*
X64Y443D02*
X71Y443D01*
X2055Y443D02*
X2070Y443D01*
X2705Y443D02*
X2712Y443D01*
X2802Y443D02*
X2809Y443D01*
X0Y442D02*
X7Y442D01*
X64Y442D02*
X71Y442D01*
X2055Y442D02*
X2070Y442D01*
X2705Y442D02*
X2712Y442D01*
X2802Y442D02*
X2809Y442D01*
X0Y441D02*
X7Y441D01*
X64Y441D02*
X71Y441D01*
X2055Y441D02*
X2070Y441D01*
X2705Y441D02*
X2712Y441D01*
X2802Y441D02*
X2809Y441D01*
X0Y440D02*
X7Y440D01*
X64Y440D02*
X71Y440D01*
X2055Y440D02*
X2070Y440D01*
X2705Y440D02*
X2712Y440D01*
X2802Y440D02*
X2809Y440D01*
X0Y439D02*
X7Y439D01*
X64Y439D02*
X71Y439D01*
X2055Y439D02*
X2070Y439D01*
X2705Y439D02*
X2712Y439D01*
X2802Y439D02*
X2809Y439D01*
X0Y438D02*
X7Y438D01*
X64Y438D02*
X71Y438D01*
X2055Y438D02*
X2070Y438D01*
X2705Y438D02*
X2712Y438D01*
X2802Y438D02*
X2809Y438D01*
X0Y437D02*
X7Y437D01*
X64Y437D02*
X71Y437D01*
X2055Y437D02*
X2070Y437D01*
X2705Y437D02*
X2712Y437D01*
X2802Y437D02*
X2809Y437D01*
X0Y436D02*
X7Y436D01*
X64Y436D02*
X71Y436D01*
X2055Y436D02*
X2070Y436D01*
X2705Y436D02*
X2712Y436D01*
X2802Y436D02*
X2809Y436D01*
X0Y435D02*
X7Y435D01*
X64Y435D02*
X71Y435D01*
X2055Y435D02*
X2070Y435D01*
X2705Y435D02*
X2712Y435D01*
X2802Y435D02*
X2809Y435D01*
X0Y434D02*
X7Y434D01*
X64Y434D02*
X71Y434D01*
X2055Y434D02*
X2070Y434D01*
X2705Y434D02*
X2712Y434D01*
X2802Y434D02*
X2809Y434D01*
X0Y433D02*
X7Y433D01*
X64Y433D02*
X71Y433D01*
X2055Y433D02*
X2070Y433D01*
X2705Y433D02*
X2712Y433D01*
X2802Y433D02*
X2809Y433D01*
X0Y432D02*
X7Y432D01*
X64Y432D02*
X71Y432D01*
X2055Y432D02*
X2070Y432D01*
X2705Y432D02*
X2712Y432D01*
X2802Y432D02*
X2809Y432D01*
X0Y431D02*
X7Y431D01*
X64Y431D02*
X71Y431D01*
X2055Y431D02*
X2070Y431D01*
X2705Y431D02*
X2712Y431D01*
X2802Y431D02*
X2809Y431D01*
X0Y430D02*
X7Y430D01*
X64Y430D02*
X71Y430D01*
X2055Y430D02*
X2070Y430D01*
X2705Y430D02*
X2712Y430D01*
X2802Y430D02*
X2809Y430D01*
X0Y429D02*
X7Y429D01*
X64Y429D02*
X71Y429D01*
X2055Y429D02*
X2070Y429D01*
X2705Y429D02*
X2712Y429D01*
X2802Y429D02*
X2809Y429D01*
X0Y428D02*
X7Y428D01*
X64Y428D02*
X71Y428D01*
X2055Y428D02*
X2070Y428D01*
X2705Y428D02*
X2712Y428D01*
X2802Y428D02*
X2809Y428D01*
X0Y427D02*
X7Y427D01*
X64Y427D02*
X71Y427D01*
X2055Y427D02*
X2070Y427D01*
X2705Y427D02*
X2712Y427D01*
X2802Y427D02*
X2809Y427D01*
X0Y426D02*
X7Y426D01*
X64Y426D02*
X71Y426D01*
X2055Y426D02*
X2070Y426D01*
X2705Y426D02*
X2712Y426D01*
X2802Y426D02*
X2809Y426D01*
X0Y425D02*
X7Y425D01*
X64Y425D02*
X71Y425D01*
X2055Y425D02*
X2070Y425D01*
X2705Y425D02*
X2712Y425D01*
X2802Y425D02*
X2809Y425D01*
X0Y424D02*
X7Y424D01*
X64Y424D02*
X71Y424D01*
X2055Y424D02*
X2070Y424D01*
X2705Y424D02*
X2712Y424D01*
X2802Y424D02*
X2809Y424D01*
X0Y423D02*
X7Y423D01*
X64Y423D02*
X71Y423D01*
X2055Y423D02*
X2070Y423D01*
X2705Y423D02*
X2712Y423D01*
X2802Y423D02*
X2809Y423D01*
X0Y422D02*
X7Y422D01*
X64Y422D02*
X71Y422D01*
X2055Y422D02*
X2070Y422D01*
X2705Y422D02*
X2712Y422D01*
X2802Y422D02*
X2809Y422D01*
X0Y421D02*
X7Y421D01*
X64Y421D02*
X71Y421D01*
X2055Y421D02*
X2070Y421D01*
X2705Y421D02*
X2712Y421D01*
X2802Y421D02*
X2809Y421D01*
X0Y420D02*
X7Y420D01*
X64Y420D02*
X71Y420D01*
X2055Y420D02*
X2070Y420D01*
X2705Y420D02*
X2712Y420D01*
X2802Y420D02*
X2809Y420D01*
X0Y419D02*
X7Y419D01*
X64Y419D02*
X71Y419D01*
X2055Y419D02*
X2070Y419D01*
X2705Y419D02*
X2712Y419D01*
X2802Y419D02*
X2809Y419D01*
X0Y418D02*
X7Y418D01*
X64Y418D02*
X71Y418D01*
X2055Y418D02*
X2070Y418D01*
X2705Y418D02*
X2712Y418D01*
X2802Y418D02*
X2809Y418D01*
X0Y417D02*
X7Y417D01*
X64Y417D02*
X71Y417D01*
X2055Y417D02*
X2070Y417D01*
X2705Y417D02*
X2712Y417D01*
X2802Y417D02*
X2809Y417D01*
X0Y416D02*
X7Y416D01*
X64Y416D02*
X71Y416D01*
X2055Y416D02*
X2070Y416D01*
X2705Y416D02*
X2712Y416D01*
X2802Y416D02*
X2809Y416D01*
X0Y415D02*
X7Y415D01*
X64Y415D02*
X71Y415D01*
X2055Y415D02*
X2070Y415D01*
X2705Y415D02*
X2712Y415D01*
X2802Y415D02*
X2809Y415D01*
X0Y414D02*
X7Y414D01*
X64Y414D02*
X71Y414D01*
X2055Y414D02*
X2070Y414D01*
X2705Y414D02*
X2712Y414D01*
X2802Y414D02*
X2809Y414D01*
X0Y413D02*
X7Y413D01*
X64Y413D02*
X71Y413D01*
X2055Y413D02*
X2070Y413D01*
X2705Y413D02*
X2712Y413D01*
X2802Y413D02*
X2809Y413D01*
X0Y412D02*
X7Y412D01*
X64Y412D02*
X71Y412D01*
X2055Y412D02*
X2070Y412D01*
X2705Y412D02*
X2712Y412D01*
X2802Y412D02*
X2809Y412D01*
X0Y411D02*
X7Y411D01*
X64Y411D02*
X71Y411D01*
X2055Y411D02*
X2070Y411D01*
X2705Y411D02*
X2712Y411D01*
X2802Y411D02*
X2809Y411D01*
X0Y410D02*
X7Y410D01*
X64Y410D02*
X71Y410D01*
X2055Y410D02*
X2070Y410D01*
X2705Y410D02*
X2712Y410D01*
X2802Y410D02*
X2809Y410D01*
X0Y409D02*
X7Y409D01*
X64Y409D02*
X71Y409D01*
X2055Y409D02*
X2070Y409D01*
X2705Y409D02*
X2712Y409D01*
X2802Y409D02*
X2809Y409D01*
X0Y408D02*
X7Y408D01*
X64Y408D02*
X71Y408D01*
X2055Y408D02*
X2070Y408D01*
X2705Y408D02*
X2712Y408D01*
X2802Y408D02*
X2809Y408D01*
X0Y407D02*
X7Y407D01*
X64Y407D02*
X71Y407D01*
X2055Y407D02*
X2070Y407D01*
X2705Y407D02*
X2712Y407D01*
X2802Y407D02*
X2809Y407D01*
X0Y406D02*
X7Y406D01*
X64Y406D02*
X71Y406D01*
X2055Y406D02*
X2070Y406D01*
X2705Y406D02*
X2712Y406D01*
X2802Y406D02*
X2809Y406D01*
X0Y405D02*
X7Y405D01*
X64Y405D02*
X71Y405D01*
X2055Y405D02*
X2070Y405D01*
X2705Y405D02*
X2712Y405D01*
X2802Y405D02*
X2809Y405D01*
X0Y404D02*
X7Y404D01*
X64Y404D02*
X71Y404D01*
X2055Y404D02*
X2070Y404D01*
X2705Y404D02*
X2712Y404D01*
X2802Y404D02*
X2809Y404D01*
X0Y403D02*
X7Y403D01*
X64Y403D02*
X71Y403D01*
X2055Y403D02*
X2070Y403D01*
X2705Y403D02*
X2712Y403D01*
X2802Y403D02*
X2809Y403D01*
X0Y402D02*
X7Y402D01*
X64Y402D02*
X71Y402D01*
X2055Y402D02*
X2070Y402D01*
X2705Y402D02*
X2712Y402D01*
X2802Y402D02*
X2809Y402D01*
X0Y401D02*
X7Y401D01*
X64Y401D02*
X71Y401D01*
X2055Y401D02*
X2070Y401D01*
X2705Y401D02*
X2712Y401D01*
X2802Y401D02*
X2809Y401D01*
X0Y400D02*
X7Y400D01*
X64Y400D02*
X71Y400D01*
X2055Y400D02*
X2070Y400D01*
X2705Y400D02*
X2712Y400D01*
X2802Y400D02*
X2809Y400D01*
X0Y399D02*
X7Y399D01*
X64Y399D02*
X71Y399D01*
X2055Y399D02*
X2070Y399D01*
X2705Y399D02*
X2712Y399D01*
X2802Y399D02*
X2809Y399D01*
X0Y398D02*
X7Y398D01*
X64Y398D02*
X71Y398D01*
X2055Y398D02*
X2070Y398D01*
X2705Y398D02*
X2712Y398D01*
X2802Y398D02*
X2809Y398D01*
X0Y397D02*
X7Y397D01*
X64Y397D02*
X71Y397D01*
X2055Y397D02*
X2070Y397D01*
X2705Y397D02*
X2712Y397D01*
X2802Y397D02*
X2809Y397D01*
X0Y396D02*
X7Y396D01*
X64Y396D02*
X71Y396D01*
X2055Y396D02*
X2070Y396D01*
X2705Y396D02*
X2712Y396D01*
X2802Y396D02*
X2809Y396D01*
X0Y395D02*
X7Y395D01*
X64Y395D02*
X71Y395D01*
X2055Y395D02*
X2070Y395D01*
X2705Y395D02*
X2712Y395D01*
X2802Y395D02*
X2809Y395D01*
X0Y394D02*
X7Y394D01*
X64Y394D02*
X71Y394D01*
X2055Y394D02*
X2070Y394D01*
X2705Y394D02*
X2712Y394D01*
X2802Y394D02*
X2809Y394D01*
X0Y393D02*
X7Y393D01*
X64Y393D02*
X71Y393D01*
X2055Y393D02*
X2070Y393D01*
X2705Y393D02*
X2712Y393D01*
X2802Y393D02*
X2809Y393D01*
X0Y392D02*
X7Y392D01*
X64Y392D02*
X71Y392D01*
X2055Y392D02*
X2070Y392D01*
X2705Y392D02*
X2712Y392D01*
X2802Y392D02*
X2809Y392D01*
X0Y391D02*
X7Y391D01*
X64Y391D02*
X71Y391D01*
X2055Y391D02*
X2070Y391D01*
X2705Y391D02*
X2712Y391D01*
X2802Y391D02*
X2809Y391D01*
X0Y390D02*
X7Y390D01*
X64Y390D02*
X71Y390D01*
X2055Y390D02*
X2070Y390D01*
X2705Y390D02*
X2712Y390D01*
X2802Y390D02*
X2809Y390D01*
X0Y389D02*
X7Y389D01*
X64Y389D02*
X71Y389D01*
X2055Y389D02*
X2070Y389D01*
X2705Y389D02*
X2712Y389D01*
X2802Y389D02*
X2809Y389D01*
X0Y388D02*
X7Y388D01*
X64Y388D02*
X71Y388D01*
X2055Y388D02*
X2070Y388D01*
X2705Y388D02*
X2712Y388D01*
X2802Y388D02*
X2809Y388D01*
X0Y387D02*
X7Y387D01*
X64Y387D02*
X71Y387D01*
X2055Y387D02*
X2070Y387D01*
X2705Y387D02*
X2712Y387D01*
X2802Y387D02*
X2809Y387D01*
X0Y386D02*
X7Y386D01*
X64Y386D02*
X71Y386D01*
X2055Y386D02*
X2070Y386D01*
X2705Y386D02*
X2712Y386D01*
X2802Y386D02*
X2809Y386D01*
X0Y385D02*
X7Y385D01*
X64Y385D02*
X71Y385D01*
X2055Y385D02*
X2070Y385D01*
X2705Y385D02*
X2712Y385D01*
X2802Y385D02*
X2809Y385D01*
X0Y384D02*
X7Y384D01*
X64Y384D02*
X71Y384D01*
X2055Y384D02*
X2070Y384D01*
X2705Y384D02*
X2712Y384D01*
X2802Y384D02*
X2809Y384D01*
X0Y383D02*
X7Y383D01*
X64Y383D02*
X71Y383D01*
X2055Y383D02*
X2070Y383D01*
X2705Y383D02*
X2712Y383D01*
X2802Y383D02*
X2809Y383D01*
X0Y382D02*
X7Y382D01*
X64Y382D02*
X71Y382D01*
X2055Y382D02*
X2070Y382D01*
X2705Y382D02*
X2712Y382D01*
X2802Y382D02*
X2809Y382D01*
X0Y381D02*
X7Y381D01*
X64Y381D02*
X71Y381D01*
X2055Y381D02*
X2070Y381D01*
X2705Y381D02*
X2712Y381D01*
X2802Y381D02*
X2809Y381D01*
X0Y380D02*
X7Y380D01*
X64Y380D02*
X71Y380D01*
X2055Y380D02*
X2070Y380D01*
X2705Y380D02*
X2712Y380D01*
X2802Y380D02*
X2809Y380D01*
X0Y379D02*
X7Y379D01*
X64Y379D02*
X71Y379D01*
X2055Y379D02*
X2070Y379D01*
X2705Y379D02*
X2712Y379D01*
X2802Y379D02*
X2809Y379D01*
X0Y378D02*
X7Y378D01*
X64Y378D02*
X71Y378D01*
X2055Y378D02*
X2070Y378D01*
X2705Y378D02*
X2712Y378D01*
X2802Y378D02*
X2809Y378D01*
X0Y377D02*
X7Y377D01*
X64Y377D02*
X71Y377D01*
X2055Y377D02*
X2070Y377D01*
X2705Y377D02*
X2712Y377D01*
X2802Y377D02*
X2809Y377D01*
X0Y376D02*
X7Y376D01*
X64Y376D02*
X71Y376D01*
X2055Y376D02*
X2070Y376D01*
X2705Y376D02*
X2712Y376D01*
X2802Y376D02*
X2809Y376D01*
X0Y375D02*
X7Y375D01*
X64Y375D02*
X71Y375D01*
X2055Y375D02*
X2070Y375D01*
X2705Y375D02*
X2712Y375D01*
X2802Y375D02*
X2809Y375D01*
X0Y374D02*
X7Y374D01*
X64Y374D02*
X71Y374D01*
X2055Y374D02*
X2070Y374D01*
X2705Y374D02*
X2712Y374D01*
X2802Y374D02*
X2809Y374D01*
X0Y373D02*
X7Y373D01*
X64Y373D02*
X71Y373D01*
X2055Y373D02*
X2070Y373D01*
X2705Y373D02*
X2712Y373D01*
X2802Y373D02*
X2809Y373D01*
X0Y372D02*
X7Y372D01*
X64Y372D02*
X71Y372D01*
X2055Y372D02*
X2070Y372D01*
X2705Y372D02*
X2712Y372D01*
X2802Y372D02*
X2809Y372D01*
X0Y371D02*
X7Y371D01*
X64Y371D02*
X71Y371D01*
X2055Y371D02*
X2070Y371D01*
X2705Y371D02*
X2712Y371D01*
X2802Y371D02*
X2809Y371D01*
X0Y370D02*
X7Y370D01*
X64Y370D02*
X71Y370D01*
X2055Y370D02*
X2070Y370D01*
X2705Y370D02*
X2712Y370D01*
X2802Y370D02*
X2809Y370D01*
X0Y369D02*
X7Y369D01*
X64Y369D02*
X71Y369D01*
X2055Y369D02*
X2070Y369D01*
X2705Y369D02*
X2712Y369D01*
X2802Y369D02*
X2809Y369D01*
X0Y368D02*
X7Y368D01*
X64Y368D02*
X71Y368D01*
X2055Y368D02*
X2070Y368D01*
X2705Y368D02*
X2712Y368D01*
X2802Y368D02*
X2809Y368D01*
X0Y367D02*
X7Y367D01*
X64Y367D02*
X71Y367D01*
X2055Y367D02*
X2070Y367D01*
X2705Y367D02*
X2712Y367D01*
X2802Y367D02*
X2809Y367D01*
X0Y366D02*
X7Y366D01*
X64Y366D02*
X71Y366D01*
X2055Y366D02*
X2070Y366D01*
X2705Y366D02*
X2712Y366D01*
X2802Y366D02*
X2809Y366D01*
X0Y365D02*
X7Y365D01*
X64Y365D02*
X71Y365D01*
X2055Y365D02*
X2070Y365D01*
X2705Y365D02*
X2712Y365D01*
X2802Y365D02*
X2809Y365D01*
X0Y364D02*
X7Y364D01*
X64Y364D02*
X71Y364D01*
X2055Y364D02*
X2070Y364D01*
X2705Y364D02*
X2712Y364D01*
X2802Y364D02*
X2809Y364D01*
X0Y363D02*
X7Y363D01*
X64Y363D02*
X71Y363D01*
X2055Y363D02*
X2070Y363D01*
X2705Y363D02*
X2712Y363D01*
X2802Y363D02*
X2809Y363D01*
X0Y362D02*
X7Y362D01*
X64Y362D02*
X71Y362D01*
X2055Y362D02*
X2070Y362D01*
X2705Y362D02*
X2712Y362D01*
X2802Y362D02*
X2809Y362D01*
X0Y361D02*
X7Y361D01*
X64Y361D02*
X71Y361D01*
X2055Y361D02*
X2070Y361D01*
X2705Y361D02*
X2712Y361D01*
X2802Y361D02*
X2809Y361D01*
X0Y360D02*
X7Y360D01*
X64Y360D02*
X71Y360D01*
X2055Y360D02*
X2070Y360D01*
X2705Y360D02*
X2712Y360D01*
X2802Y360D02*
X2809Y360D01*
X0Y359D02*
X7Y359D01*
X64Y359D02*
X71Y359D01*
X2055Y359D02*
X2070Y359D01*
X2705Y359D02*
X2712Y359D01*
X2802Y359D02*
X2809Y359D01*
X0Y358D02*
X7Y358D01*
X64Y358D02*
X71Y358D01*
X2055Y358D02*
X2070Y358D01*
X2705Y358D02*
X2712Y358D01*
X2802Y358D02*
X2809Y358D01*
X0Y357D02*
X7Y357D01*
X64Y357D02*
X71Y357D01*
X2055Y357D02*
X2070Y357D01*
X2705Y357D02*
X2712Y357D01*
X2802Y357D02*
X2809Y357D01*
X0Y356D02*
X7Y356D01*
X64Y356D02*
X71Y356D01*
X2055Y356D02*
X2070Y356D01*
X2705Y356D02*
X2712Y356D01*
X2802Y356D02*
X2809Y356D01*
X0Y355D02*
X7Y355D01*
X64Y355D02*
X71Y355D01*
X2055Y355D02*
X2070Y355D01*
X2705Y355D02*
X2712Y355D01*
X2802Y355D02*
X2809Y355D01*
X0Y354D02*
X7Y354D01*
X64Y354D02*
X71Y354D01*
X2055Y354D02*
X2070Y354D01*
X2705Y354D02*
X2712Y354D01*
X2802Y354D02*
X2809Y354D01*
X0Y353D02*
X7Y353D01*
X64Y353D02*
X71Y353D01*
X2055Y353D02*
X2070Y353D01*
X2705Y353D02*
X2712Y353D01*
X2802Y353D02*
X2809Y353D01*
X0Y352D02*
X7Y352D01*
X64Y352D02*
X71Y352D01*
X2055Y352D02*
X2070Y352D01*
X2705Y352D02*
X2712Y352D01*
X2802Y352D02*
X2809Y352D01*
X0Y351D02*
X7Y351D01*
X64Y351D02*
X71Y351D01*
X2055Y351D02*
X2070Y351D01*
X2705Y351D02*
X2712Y351D01*
X2802Y351D02*
X2809Y351D01*
X0Y350D02*
X7Y350D01*
X64Y350D02*
X71Y350D01*
X2055Y350D02*
X2070Y350D01*
X2705Y350D02*
X2712Y350D01*
X2802Y350D02*
X2809Y350D01*
X0Y349D02*
X7Y349D01*
X64Y349D02*
X71Y349D01*
X2055Y349D02*
X2070Y349D01*
X2705Y349D02*
X2712Y349D01*
X2802Y349D02*
X2809Y349D01*
X0Y348D02*
X7Y348D01*
X64Y348D02*
X71Y348D01*
X2055Y348D02*
X2070Y348D01*
X2705Y348D02*
X2712Y348D01*
X2802Y348D02*
X2809Y348D01*
X0Y347D02*
X7Y347D01*
X64Y347D02*
X71Y347D01*
X2055Y347D02*
X2070Y347D01*
X2705Y347D02*
X2712Y347D01*
X2802Y347D02*
X2809Y347D01*
X0Y346D02*
X7Y346D01*
X64Y346D02*
X71Y346D01*
X2055Y346D02*
X2070Y346D01*
X2705Y346D02*
X2712Y346D01*
X2802Y346D02*
X2809Y346D01*
X0Y345D02*
X7Y345D01*
X64Y345D02*
X71Y345D01*
X2055Y345D02*
X2070Y345D01*
X2705Y345D02*
X2712Y345D01*
X2802Y345D02*
X2809Y345D01*
X0Y344D02*
X7Y344D01*
X64Y344D02*
X71Y344D01*
X2055Y344D02*
X2070Y344D01*
X2705Y344D02*
X2712Y344D01*
X2802Y344D02*
X2809Y344D01*
X0Y343D02*
X7Y343D01*
X64Y343D02*
X71Y343D01*
X2055Y343D02*
X2070Y343D01*
X2705Y343D02*
X2712Y343D01*
X2802Y343D02*
X2809Y343D01*
X0Y342D02*
X7Y342D01*
X64Y342D02*
X71Y342D01*
X2055Y342D02*
X2070Y342D01*
X2705Y342D02*
X2712Y342D01*
X2802Y342D02*
X2809Y342D01*
X0Y341D02*
X7Y341D01*
X64Y341D02*
X71Y341D01*
X2055Y341D02*
X2070Y341D01*
X2705Y341D02*
X2712Y341D01*
X2802Y341D02*
X2809Y341D01*
X0Y340D02*
X7Y340D01*
X64Y340D02*
X71Y340D01*
X2055Y340D02*
X2070Y340D01*
X2705Y340D02*
X2712Y340D01*
X2802Y340D02*
X2809Y340D01*
X0Y339D02*
X7Y339D01*
X64Y339D02*
X71Y339D01*
X2055Y339D02*
X2070Y339D01*
X2705Y339D02*
X2712Y339D01*
X2802Y339D02*
X2809Y339D01*
X0Y338D02*
X7Y338D01*
X64Y338D02*
X71Y338D01*
X2055Y338D02*
X2070Y338D01*
X2705Y338D02*
X2712Y338D01*
X2802Y338D02*
X2809Y338D01*
X0Y337D02*
X7Y337D01*
X64Y337D02*
X71Y337D01*
X2055Y337D02*
X2070Y337D01*
X2705Y337D02*
X2712Y337D01*
X2802Y337D02*
X2809Y337D01*
X0Y336D02*
X7Y336D01*
X64Y336D02*
X71Y336D01*
X2055Y336D02*
X2070Y336D01*
X2705Y336D02*
X2712Y336D01*
X2802Y336D02*
X2809Y336D01*
X0Y335D02*
X7Y335D01*
X64Y335D02*
X71Y335D01*
X2055Y335D02*
X2070Y335D01*
X2705Y335D02*
X2712Y335D01*
X2802Y335D02*
X2809Y335D01*
X0Y334D02*
X7Y334D01*
X64Y334D02*
X71Y334D01*
X2055Y334D02*
X2070Y334D01*
X2705Y334D02*
X2712Y334D01*
X2802Y334D02*
X2809Y334D01*
X0Y333D02*
X7Y333D01*
X64Y333D02*
X71Y333D01*
X2055Y333D02*
X2070Y333D01*
X2705Y333D02*
X2712Y333D01*
X2802Y333D02*
X2809Y333D01*
X0Y332D02*
X7Y332D01*
X64Y332D02*
X71Y332D01*
X2055Y332D02*
X2070Y332D01*
X2705Y332D02*
X2712Y332D01*
X2802Y332D02*
X2809Y332D01*
X0Y331D02*
X7Y331D01*
X64Y331D02*
X71Y331D01*
X2055Y331D02*
X2070Y331D01*
X2705Y331D02*
X2712Y331D01*
X2802Y331D02*
X2809Y331D01*
X0Y330D02*
X7Y330D01*
X64Y330D02*
X71Y330D01*
X2055Y330D02*
X2070Y330D01*
X2705Y330D02*
X2712Y330D01*
X2802Y330D02*
X2809Y330D01*
X0Y329D02*
X7Y329D01*
X64Y329D02*
X71Y329D01*
X2055Y329D02*
X2070Y329D01*
X2705Y329D02*
X2712Y329D01*
X2802Y329D02*
X2809Y329D01*
X0Y328D02*
X7Y328D01*
X64Y328D02*
X71Y328D01*
X2055Y328D02*
X2070Y328D01*
X2705Y328D02*
X2712Y328D01*
X2802Y328D02*
X2809Y328D01*
X0Y327D02*
X7Y327D01*
X64Y327D02*
X71Y327D01*
X2055Y327D02*
X2070Y327D01*
X2705Y327D02*
X2712Y327D01*
X2802Y327D02*
X2809Y327D01*
X0Y326D02*
X7Y326D01*
X64Y326D02*
X71Y326D01*
X2055Y326D02*
X2070Y326D01*
X2705Y326D02*
X2712Y326D01*
X2802Y326D02*
X2809Y326D01*
X0Y325D02*
X7Y325D01*
X64Y325D02*
X71Y325D01*
X2055Y325D02*
X2070Y325D01*
X2705Y325D02*
X2712Y325D01*
X2802Y325D02*
X2809Y325D01*
X0Y324D02*
X7Y324D01*
X64Y324D02*
X71Y324D01*
X2055Y324D02*
X2070Y324D01*
X2705Y324D02*
X2712Y324D01*
X2802Y324D02*
X2809Y324D01*
X0Y323D02*
X7Y323D01*
X64Y323D02*
X71Y323D01*
X2055Y323D02*
X2070Y323D01*
X2705Y323D02*
X2712Y323D01*
X2802Y323D02*
X2809Y323D01*
X0Y322D02*
X7Y322D01*
X64Y322D02*
X71Y322D01*
X2055Y322D02*
X2070Y322D01*
X2705Y322D02*
X2712Y322D01*
X2802Y322D02*
X2809Y322D01*
X0Y321D02*
X7Y321D01*
X64Y321D02*
X71Y321D01*
X2055Y321D02*
X2070Y321D01*
X2705Y321D02*
X2712Y321D01*
X2802Y321D02*
X2809Y321D01*
X0Y320D02*
X7Y320D01*
X64Y320D02*
X71Y320D01*
X2055Y320D02*
X2070Y320D01*
X2705Y320D02*
X2712Y320D01*
X2802Y320D02*
X2809Y320D01*
X0Y319D02*
X7Y319D01*
X64Y319D02*
X71Y319D01*
X2055Y319D02*
X2070Y319D01*
X2705Y319D02*
X2712Y319D01*
X2802Y319D02*
X2809Y319D01*
X0Y318D02*
X7Y318D01*
X64Y318D02*
X71Y318D01*
X2055Y318D02*
X2070Y318D01*
X2705Y318D02*
X2712Y318D01*
X2802Y318D02*
X2809Y318D01*
X0Y317D02*
X7Y317D01*
X64Y317D02*
X71Y317D01*
X2055Y317D02*
X2070Y317D01*
X2705Y317D02*
X2712Y317D01*
X2802Y317D02*
X2809Y317D01*
X0Y316D02*
X7Y316D01*
X64Y316D02*
X71Y316D01*
X2055Y316D02*
X2070Y316D01*
X2705Y316D02*
X2712Y316D01*
X2802Y316D02*
X2809Y316D01*
X0Y315D02*
X7Y315D01*
X64Y315D02*
X71Y315D01*
X2055Y315D02*
X2070Y315D01*
X2705Y315D02*
X2712Y315D01*
X2802Y315D02*
X2809Y315D01*
X0Y314D02*
X7Y314D01*
X64Y314D02*
X71Y314D01*
X2055Y314D02*
X2070Y314D01*
X2705Y314D02*
X2712Y314D01*
X2802Y314D02*
X2809Y314D01*
X0Y313D02*
X7Y313D01*
X64Y313D02*
X71Y313D01*
X2055Y313D02*
X2070Y313D01*
X2705Y313D02*
X2712Y313D01*
X2802Y313D02*
X2809Y313D01*
X0Y312D02*
X7Y312D01*
X64Y312D02*
X71Y312D01*
X2055Y312D02*
X2070Y312D01*
X2705Y312D02*
X2712Y312D01*
X2802Y312D02*
X2809Y312D01*
X0Y311D02*
X7Y311D01*
X64Y311D02*
X71Y311D01*
X2055Y311D02*
X2070Y311D01*
X2705Y311D02*
X2712Y311D01*
X2802Y311D02*
X2809Y311D01*
X0Y310D02*
X7Y310D01*
X64Y310D02*
X71Y310D01*
X2055Y310D02*
X2070Y310D01*
X2705Y310D02*
X2712Y310D01*
X2802Y310D02*
X2809Y310D01*
X0Y309D02*
X7Y309D01*
X64Y309D02*
X71Y309D01*
X2055Y309D02*
X2070Y309D01*
X2705Y309D02*
X2712Y309D01*
X2802Y309D02*
X2809Y309D01*
X0Y308D02*
X7Y308D01*
X64Y308D02*
X71Y308D01*
X2055Y308D02*
X2070Y308D01*
X2705Y308D02*
X2712Y308D01*
X2802Y308D02*
X2809Y308D01*
X0Y307D02*
X7Y307D01*
X64Y307D02*
X71Y307D01*
X2055Y307D02*
X2070Y307D01*
X2705Y307D02*
X2712Y307D01*
X2802Y307D02*
X2809Y307D01*
X0Y306D02*
X7Y306D01*
X64Y306D02*
X71Y306D01*
X2055Y306D02*
X2070Y306D01*
X2705Y306D02*
X2712Y306D01*
X2802Y306D02*
X2809Y306D01*
X0Y305D02*
X7Y305D01*
X64Y305D02*
X71Y305D01*
X2055Y305D02*
X2070Y305D01*
X2705Y305D02*
X2712Y305D01*
X2802Y305D02*
X2809Y305D01*
X0Y304D02*
X7Y304D01*
X64Y304D02*
X71Y304D01*
X2055Y304D02*
X2070Y304D01*
X2705Y304D02*
X2712Y304D01*
X2802Y304D02*
X2809Y304D01*
X0Y303D02*
X7Y303D01*
X64Y303D02*
X71Y303D01*
X2055Y303D02*
X2070Y303D01*
X2705Y303D02*
X2712Y303D01*
X2802Y303D02*
X2809Y303D01*
X0Y302D02*
X7Y302D01*
X64Y302D02*
X71Y302D01*
X2055Y302D02*
X2070Y302D01*
X2705Y302D02*
X2712Y302D01*
X2802Y302D02*
X2809Y302D01*
X0Y301D02*
X7Y301D01*
X64Y301D02*
X71Y301D01*
X2055Y301D02*
X2070Y301D01*
X2705Y301D02*
X2712Y301D01*
X2802Y301D02*
X2809Y301D01*
X0Y300D02*
X7Y300D01*
X64Y300D02*
X71Y300D01*
X2055Y300D02*
X2070Y300D01*
X2705Y300D02*
X2712Y300D01*
X2802Y300D02*
X2809Y300D01*
X0Y299D02*
X7Y299D01*
X64Y299D02*
X71Y299D01*
X2055Y299D02*
X2070Y299D01*
X2705Y299D02*
X2712Y299D01*
X2802Y299D02*
X2809Y299D01*
X0Y298D02*
X7Y298D01*
X64Y298D02*
X71Y298D01*
X2055Y298D02*
X2070Y298D01*
X2705Y298D02*
X2712Y298D01*
X2802Y298D02*
X2809Y298D01*
X0Y297D02*
X7Y297D01*
X64Y297D02*
X71Y297D01*
X2055Y297D02*
X2070Y297D01*
X2705Y297D02*
X2712Y297D01*
X2802Y297D02*
X2809Y297D01*
X0Y296D02*
X7Y296D01*
X64Y296D02*
X71Y296D01*
X2055Y296D02*
X2070Y296D01*
X2705Y296D02*
X2712Y296D01*
X2802Y296D02*
X2809Y296D01*
X0Y295D02*
X7Y295D01*
X64Y295D02*
X71Y295D01*
X2055Y295D02*
X2070Y295D01*
X2705Y295D02*
X2712Y295D01*
X2802Y295D02*
X2809Y295D01*
X0Y294D02*
X7Y294D01*
X64Y294D02*
X71Y294D01*
X2055Y294D02*
X2070Y294D01*
X2705Y294D02*
X2712Y294D01*
X2802Y294D02*
X2809Y294D01*
X0Y293D02*
X7Y293D01*
X64Y293D02*
X71Y293D01*
X2055Y293D02*
X2070Y293D01*
X2705Y293D02*
X2712Y293D01*
X2802Y293D02*
X2809Y293D01*
X0Y292D02*
X7Y292D01*
X64Y292D02*
X71Y292D01*
X2055Y292D02*
X2070Y292D01*
X2705Y292D02*
X2712Y292D01*
X2802Y292D02*
X2809Y292D01*
X0Y291D02*
X7Y291D01*
X64Y291D02*
X71Y291D01*
X2055Y291D02*
X2070Y291D01*
X2705Y291D02*
X2712Y291D01*
X2802Y291D02*
X2809Y291D01*
X0Y290D02*
X7Y290D01*
X64Y290D02*
X71Y290D01*
X2055Y290D02*
X2070Y290D01*
X2705Y290D02*
X2712Y290D01*
X2802Y290D02*
X2809Y290D01*
X0Y289D02*
X7Y289D01*
X64Y289D02*
X71Y289D01*
X2055Y289D02*
X2070Y289D01*
X2705Y289D02*
X2712Y289D01*
X2802Y289D02*
X2809Y289D01*
X0Y288D02*
X7Y288D01*
X64Y288D02*
X71Y288D01*
X2055Y288D02*
X2070Y288D01*
X2705Y288D02*
X2712Y288D01*
X2802Y288D02*
X2809Y288D01*
X0Y287D02*
X7Y287D01*
X64Y287D02*
X71Y287D01*
X2055Y287D02*
X2070Y287D01*
X2705Y287D02*
X2712Y287D01*
X2802Y287D02*
X2809Y287D01*
X0Y286D02*
X7Y286D01*
X64Y286D02*
X71Y286D01*
X2055Y286D02*
X2070Y286D01*
X2705Y286D02*
X2712Y286D01*
X2802Y286D02*
X2809Y286D01*
X0Y285D02*
X7Y285D01*
X64Y285D02*
X71Y285D01*
X2055Y285D02*
X2070Y285D01*
X2705Y285D02*
X2712Y285D01*
X2802Y285D02*
X2809Y285D01*
X0Y284D02*
X7Y284D01*
X64Y284D02*
X71Y284D01*
X2055Y284D02*
X2070Y284D01*
X2705Y284D02*
X2712Y284D01*
X2802Y284D02*
X2809Y284D01*
X0Y283D02*
X7Y283D01*
X64Y283D02*
X71Y283D01*
X2055Y283D02*
X2070Y283D01*
X2705Y283D02*
X2712Y283D01*
X2802Y283D02*
X2809Y283D01*
X0Y282D02*
X7Y282D01*
X64Y282D02*
X71Y282D01*
X2055Y282D02*
X2070Y282D01*
X2705Y282D02*
X2712Y282D01*
X2802Y282D02*
X2809Y282D01*
X0Y281D02*
X7Y281D01*
X64Y281D02*
X71Y281D01*
X2055Y281D02*
X2070Y281D01*
X2705Y281D02*
X2712Y281D01*
X2802Y281D02*
X2809Y281D01*
X0Y280D02*
X7Y280D01*
X64Y280D02*
X71Y280D01*
X2055Y280D02*
X2070Y280D01*
X2705Y280D02*
X2712Y280D01*
X2802Y280D02*
X2809Y280D01*
X0Y279D02*
X7Y279D01*
X64Y279D02*
X71Y279D01*
X2055Y279D02*
X2070Y279D01*
X2705Y279D02*
X2712Y279D01*
X2802Y279D02*
X2809Y279D01*
X0Y278D02*
X7Y278D01*
X64Y278D02*
X71Y278D01*
X2055Y278D02*
X2070Y278D01*
X2705Y278D02*
X2712Y278D01*
X2802Y278D02*
X2809Y278D01*
X0Y277D02*
X7Y277D01*
X64Y277D02*
X71Y277D01*
X2055Y277D02*
X2070Y277D01*
X2705Y277D02*
X2712Y277D01*
X2802Y277D02*
X2809Y277D01*
X0Y276D02*
X7Y276D01*
X64Y276D02*
X71Y276D01*
X2055Y276D02*
X2070Y276D01*
X2705Y276D02*
X2712Y276D01*
X2802Y276D02*
X2809Y276D01*
X0Y275D02*
X7Y275D01*
X64Y275D02*
X71Y275D01*
X2055Y275D02*
X2070Y275D01*
X2705Y275D02*
X2712Y275D01*
X2802Y275D02*
X2809Y275D01*
X0Y274D02*
X7Y274D01*
X64Y274D02*
X71Y274D01*
X2055Y274D02*
X2070Y274D01*
X2705Y274D02*
X2712Y274D01*
X2802Y274D02*
X2809Y274D01*
X0Y273D02*
X7Y273D01*
X64Y273D02*
X71Y273D01*
X2055Y273D02*
X2070Y273D01*
X2705Y273D02*
X2712Y273D01*
X2802Y273D02*
X2809Y273D01*
X0Y272D02*
X7Y272D01*
X64Y272D02*
X71Y272D01*
X2055Y272D02*
X2070Y272D01*
X2705Y272D02*
X2712Y272D01*
X2802Y272D02*
X2809Y272D01*
X0Y271D02*
X7Y271D01*
X64Y271D02*
X71Y271D01*
X2055Y271D02*
X2070Y271D01*
X2705Y271D02*
X2712Y271D01*
X2802Y271D02*
X2809Y271D01*
X0Y270D02*
X7Y270D01*
X64Y270D02*
X71Y270D01*
X2055Y270D02*
X2070Y270D01*
X2705Y270D02*
X2712Y270D01*
X2802Y270D02*
X2809Y270D01*
X0Y269D02*
X7Y269D01*
X64Y269D02*
X71Y269D01*
X2055Y269D02*
X2070Y269D01*
X2705Y269D02*
X2712Y269D01*
X2802Y269D02*
X2809Y269D01*
X0Y268D02*
X7Y268D01*
X64Y268D02*
X71Y268D01*
X2055Y268D02*
X2070Y268D01*
X2705Y268D02*
X2712Y268D01*
X2802Y268D02*
X2809Y268D01*
X0Y267D02*
X7Y267D01*
X64Y267D02*
X71Y267D01*
X2055Y267D02*
X2070Y267D01*
X2705Y267D02*
X2712Y267D01*
X2802Y267D02*
X2809Y267D01*
X0Y266D02*
X7Y266D01*
X64Y266D02*
X71Y266D01*
X2055Y266D02*
X2070Y266D01*
X2705Y266D02*
X2712Y266D01*
X2802Y266D02*
X2809Y266D01*
X0Y265D02*
X7Y265D01*
X64Y265D02*
X71Y265D01*
X2055Y265D02*
X2070Y265D01*
X2705Y265D02*
X2712Y265D01*
X2802Y265D02*
X2809Y265D01*
X0Y264D02*
X7Y264D01*
X64Y264D02*
X71Y264D01*
X2055Y264D02*
X2070Y264D01*
X2705Y264D02*
X2712Y264D01*
X2802Y264D02*
X2809Y264D01*
X0Y263D02*
X7Y263D01*
X64Y263D02*
X71Y263D01*
X2055Y263D02*
X2070Y263D01*
X2705Y263D02*
X2712Y263D01*
X2802Y263D02*
X2809Y263D01*
X0Y262D02*
X7Y262D01*
X64Y262D02*
X71Y262D01*
X2055Y262D02*
X2070Y262D01*
X2705Y262D02*
X2712Y262D01*
X2802Y262D02*
X2809Y262D01*
X0Y261D02*
X7Y261D01*
X64Y261D02*
X71Y261D01*
X2055Y261D02*
X2070Y261D01*
X2705Y261D02*
X2712Y261D01*
X2802Y261D02*
X2809Y261D01*
X0Y260D02*
X7Y260D01*
X64Y260D02*
X71Y260D01*
X2055Y260D02*
X2070Y260D01*
X2705Y260D02*
X2712Y260D01*
X2802Y260D02*
X2809Y260D01*
X0Y259D02*
X7Y259D01*
X64Y259D02*
X71Y259D01*
X2055Y259D02*
X2070Y259D01*
X2705Y259D02*
X2712Y259D01*
X2802Y259D02*
X2809Y259D01*
X0Y258D02*
X7Y258D01*
X64Y258D02*
X71Y258D01*
X2055Y258D02*
X2070Y258D01*
X2705Y258D02*
X2712Y258D01*
X2802Y258D02*
X2809Y258D01*
X0Y257D02*
X7Y257D01*
X64Y257D02*
X71Y257D01*
X2055Y257D02*
X2070Y257D01*
X2705Y257D02*
X2712Y257D01*
X2802Y257D02*
X2809Y257D01*
X0Y256D02*
X7Y256D01*
X64Y256D02*
X71Y256D01*
X2055Y256D02*
X2070Y256D01*
X2705Y256D02*
X2712Y256D01*
X2802Y256D02*
X2809Y256D01*
X0Y255D02*
X7Y255D01*
X64Y255D02*
X71Y255D01*
X2055Y255D02*
X2070Y255D01*
X2705Y255D02*
X2712Y255D01*
X2802Y255D02*
X2809Y255D01*
X0Y254D02*
X7Y254D01*
X64Y254D02*
X71Y254D01*
X2055Y254D02*
X2070Y254D01*
X2705Y254D02*
X2712Y254D01*
X2802Y254D02*
X2809Y254D01*
X0Y253D02*
X7Y253D01*
X64Y253D02*
X71Y253D01*
X2055Y253D02*
X2070Y253D01*
X2705Y253D02*
X2712Y253D01*
X2802Y253D02*
X2809Y253D01*
X0Y252D02*
X7Y252D01*
X64Y252D02*
X71Y252D01*
X1955Y252D02*
X1971Y252D01*
X2055Y252D02*
X2070Y252D01*
X2705Y252D02*
X2712Y252D01*
X2802Y252D02*
X2809Y252D01*
X0Y251D02*
X7Y251D01*
X64Y251D02*
X71Y251D01*
X1951Y251D02*
X1975Y251D01*
X2055Y251D02*
X2070Y251D01*
X2705Y251D02*
X2712Y251D01*
X2802Y251D02*
X2809Y251D01*
X0Y250D02*
X7Y250D01*
X64Y250D02*
X71Y250D01*
X1947Y250D02*
X1979Y250D01*
X2055Y250D02*
X2070Y250D01*
X2705Y250D02*
X2712Y250D01*
X2802Y250D02*
X2809Y250D01*
X0Y249D02*
X7Y249D01*
X64Y249D02*
X71Y249D01*
X1945Y249D02*
X1981Y249D01*
X2055Y249D02*
X2070Y249D01*
X2705Y249D02*
X2712Y249D01*
X2802Y249D02*
X2809Y249D01*
X0Y248D02*
X7Y248D01*
X64Y248D02*
X71Y248D01*
X1942Y248D02*
X1984Y248D01*
X2055Y248D02*
X2070Y248D01*
X2705Y248D02*
X2712Y248D01*
X2802Y248D02*
X2809Y248D01*
X0Y247D02*
X7Y247D01*
X64Y247D02*
X71Y247D01*
X1940Y247D02*
X1986Y247D01*
X2055Y247D02*
X2070Y247D01*
X2705Y247D02*
X2712Y247D01*
X2802Y247D02*
X2809Y247D01*
X0Y246D02*
X7Y246D01*
X64Y246D02*
X71Y246D01*
X1938Y246D02*
X1987Y246D01*
X2055Y246D02*
X2070Y246D01*
X2705Y246D02*
X2712Y246D01*
X2802Y246D02*
X2809Y246D01*
X0Y245D02*
X7Y245D01*
X64Y245D02*
X71Y245D01*
X1937Y245D02*
X1989Y245D01*
X2055Y245D02*
X2070Y245D01*
X2705Y245D02*
X2712Y245D01*
X2802Y245D02*
X2809Y245D01*
X0Y244D02*
X7Y244D01*
X64Y244D02*
X71Y244D01*
X1935Y244D02*
X1954Y244D01*
X1972Y244D02*
X1991Y244D01*
X2055Y244D02*
X2070Y244D01*
X2705Y244D02*
X2712Y244D01*
X2802Y244D02*
X2809Y244D01*
X0Y243D02*
X7Y243D01*
X64Y243D02*
X71Y243D01*
X1934Y243D02*
X1950Y243D01*
X1976Y243D02*
X1992Y243D01*
X2055Y243D02*
X2070Y243D01*
X2705Y243D02*
X2712Y243D01*
X2802Y243D02*
X2809Y243D01*
X0Y242D02*
X7Y242D01*
X64Y242D02*
X71Y242D01*
X1932Y242D02*
X1947Y242D01*
X1979Y242D02*
X1993Y242D01*
X2055Y242D02*
X2070Y242D01*
X2705Y242D02*
X2712Y242D01*
X2802Y242D02*
X2809Y242D01*
X0Y241D02*
X7Y241D01*
X64Y241D02*
X71Y241D01*
X1931Y241D02*
X1945Y241D01*
X1981Y241D02*
X1995Y241D01*
X2055Y241D02*
X2070Y241D01*
X2705Y241D02*
X2712Y241D01*
X2802Y241D02*
X2809Y241D01*
X0Y240D02*
X7Y240D01*
X64Y240D02*
X71Y240D01*
X1930Y240D02*
X1943Y240D01*
X1983Y240D02*
X1996Y240D01*
X2055Y240D02*
X2070Y240D01*
X2705Y240D02*
X2712Y240D01*
X2802Y240D02*
X2809Y240D01*
X0Y239D02*
X7Y239D01*
X64Y239D02*
X71Y239D01*
X1929Y239D02*
X1941Y239D01*
X1985Y239D02*
X1997Y239D01*
X2055Y239D02*
X2070Y239D01*
X2705Y239D02*
X2712Y239D01*
X2802Y239D02*
X2809Y239D01*
X0Y238D02*
X7Y238D01*
X64Y238D02*
X71Y238D01*
X1928Y238D02*
X1939Y238D01*
X1986Y238D02*
X1998Y238D01*
X2055Y238D02*
X2070Y238D01*
X2705Y238D02*
X2712Y238D01*
X2802Y238D02*
X2809Y238D01*
X0Y237D02*
X7Y237D01*
X64Y237D02*
X71Y237D01*
X1927Y237D02*
X1938Y237D01*
X1988Y237D02*
X1999Y237D01*
X2055Y237D02*
X2070Y237D01*
X2705Y237D02*
X2712Y237D01*
X2802Y237D02*
X2809Y237D01*
X0Y236D02*
X7Y236D01*
X64Y236D02*
X71Y236D01*
X1926Y236D02*
X1937Y236D01*
X1989Y236D02*
X2000Y236D01*
X2055Y236D02*
X2070Y236D01*
X2705Y236D02*
X2712Y236D01*
X2802Y236D02*
X2809Y236D01*
X0Y235D02*
X7Y235D01*
X64Y235D02*
X71Y235D01*
X1925Y235D02*
X1935Y235D01*
X1990Y235D02*
X2001Y235D01*
X2055Y235D02*
X2070Y235D01*
X2705Y235D02*
X2712Y235D01*
X2802Y235D02*
X2809Y235D01*
X0Y234D02*
X7Y234D01*
X64Y234D02*
X71Y234D01*
X1924Y234D02*
X1934Y234D01*
X1991Y234D02*
X2001Y234D01*
X2055Y234D02*
X2070Y234D01*
X2705Y234D02*
X2712Y234D01*
X2802Y234D02*
X2809Y234D01*
X0Y233D02*
X7Y233D01*
X64Y233D02*
X71Y233D01*
X1924Y233D02*
X1933Y233D01*
X1993Y233D02*
X2002Y233D01*
X2055Y233D02*
X2070Y233D01*
X2705Y233D02*
X2712Y233D01*
X2802Y233D02*
X2809Y233D01*
X0Y232D02*
X7Y232D01*
X64Y232D02*
X71Y232D01*
X1923Y232D02*
X1932Y232D01*
X1994Y232D02*
X2003Y232D01*
X2055Y232D02*
X2070Y232D01*
X2705Y232D02*
X2712Y232D01*
X2802Y232D02*
X2809Y232D01*
X0Y231D02*
X7Y231D01*
X64Y231D02*
X71Y231D01*
X1922Y231D02*
X1931Y231D01*
X1994Y231D02*
X2004Y231D01*
X2055Y231D02*
X2070Y231D01*
X2705Y231D02*
X2712Y231D01*
X2802Y231D02*
X2809Y231D01*
X0Y230D02*
X7Y230D01*
X64Y230D02*
X71Y230D01*
X1922Y230D02*
X1930Y230D01*
X1995Y230D02*
X2004Y230D01*
X2055Y230D02*
X2070Y230D01*
X2705Y230D02*
X2712Y230D01*
X2802Y230D02*
X2809Y230D01*
X0Y229D02*
X7Y229D01*
X64Y229D02*
X71Y229D01*
X1921Y229D02*
X1930Y229D01*
X1996Y229D02*
X2005Y229D01*
X2055Y229D02*
X2070Y229D01*
X2705Y229D02*
X2712Y229D01*
X2802Y229D02*
X2809Y229D01*
X0Y228D02*
X7Y228D01*
X64Y228D02*
X71Y228D01*
X1920Y228D02*
X1929Y228D01*
X1997Y228D02*
X2005Y228D01*
X2055Y228D02*
X2070Y228D01*
X2705Y228D02*
X2712Y228D01*
X2802Y228D02*
X2809Y228D01*
X0Y227D02*
X7Y227D01*
X64Y227D02*
X71Y227D01*
X1920Y227D02*
X1928Y227D01*
X1998Y227D02*
X2006Y227D01*
X2055Y227D02*
X2070Y227D01*
X2705Y227D02*
X2712Y227D01*
X2802Y227D02*
X2809Y227D01*
X0Y226D02*
X7Y226D01*
X64Y226D02*
X71Y226D01*
X1919Y226D02*
X1927Y226D01*
X1998Y226D02*
X2007Y226D01*
X2055Y226D02*
X2070Y226D01*
X2705Y226D02*
X2712Y226D01*
X2802Y226D02*
X2809Y226D01*
X0Y225D02*
X7Y225D01*
X64Y225D02*
X71Y225D01*
X1919Y225D02*
X1927Y225D01*
X1999Y225D02*
X2007Y225D01*
X2055Y225D02*
X2070Y225D01*
X2705Y225D02*
X2712Y225D01*
X2802Y225D02*
X2809Y225D01*
X0Y224D02*
X7Y224D01*
X64Y224D02*
X71Y224D01*
X1918Y224D02*
X1926Y224D01*
X2000Y224D02*
X2008Y224D01*
X2055Y224D02*
X2070Y224D01*
X2705Y224D02*
X2712Y224D01*
X2802Y224D02*
X2809Y224D01*
X0Y223D02*
X7Y223D01*
X64Y223D02*
X71Y223D01*
X1918Y223D02*
X1926Y223D01*
X2000Y223D02*
X2008Y223D01*
X2055Y223D02*
X2070Y223D01*
X2705Y223D02*
X2712Y223D01*
X2802Y223D02*
X2809Y223D01*
X0Y222D02*
X7Y222D01*
X64Y222D02*
X71Y222D01*
X1917Y222D02*
X1925Y222D01*
X2001Y222D02*
X2008Y222D01*
X2055Y222D02*
X2070Y222D01*
X2705Y222D02*
X2712Y222D01*
X2802Y222D02*
X2809Y222D01*
X0Y221D02*
X7Y221D01*
X64Y221D02*
X71Y221D01*
X1917Y221D02*
X1925Y221D01*
X2001Y221D02*
X2009Y221D01*
X2055Y221D02*
X2070Y221D01*
X2705Y221D02*
X2712Y221D01*
X2802Y221D02*
X2809Y221D01*
X0Y220D02*
X7Y220D01*
X64Y220D02*
X71Y220D01*
X1917Y220D02*
X1924Y220D01*
X2002Y220D02*
X2009Y220D01*
X2055Y220D02*
X2070Y220D01*
X2705Y220D02*
X2712Y220D01*
X2802Y220D02*
X2809Y220D01*
X0Y219D02*
X7Y219D01*
X64Y219D02*
X71Y219D01*
X1916Y219D02*
X1924Y219D01*
X2002Y219D02*
X2010Y219D01*
X2055Y219D02*
X2070Y219D01*
X2705Y219D02*
X2712Y219D01*
X2802Y219D02*
X2809Y219D01*
X0Y218D02*
X7Y218D01*
X64Y218D02*
X71Y218D01*
X1916Y218D02*
X1923Y218D01*
X2003Y218D02*
X2010Y218D01*
X2055Y218D02*
X2070Y218D01*
X2705Y218D02*
X2712Y218D01*
X2802Y218D02*
X2809Y218D01*
X0Y217D02*
X7Y217D01*
X64Y217D02*
X71Y217D01*
X1916Y217D02*
X1923Y217D01*
X2003Y217D02*
X2010Y217D01*
X2055Y217D02*
X2070Y217D01*
X2705Y217D02*
X2712Y217D01*
X2802Y217D02*
X2809Y217D01*
X0Y216D02*
X7Y216D01*
X64Y216D02*
X71Y216D01*
X1915Y216D02*
X1922Y216D01*
X2003Y216D02*
X2011Y216D01*
X2055Y216D02*
X2070Y216D01*
X2705Y216D02*
X2712Y216D01*
X2802Y216D02*
X2809Y216D01*
X0Y215D02*
X7Y215D01*
X64Y215D02*
X71Y215D01*
X1915Y215D02*
X1922Y215D01*
X2004Y215D02*
X2011Y215D01*
X2055Y215D02*
X2070Y215D01*
X2705Y215D02*
X2712Y215D01*
X2802Y215D02*
X2809Y215D01*
X0Y214D02*
X7Y214D01*
X64Y214D02*
X71Y214D01*
X1915Y214D02*
X1922Y214D01*
X2004Y214D02*
X2011Y214D01*
X2055Y214D02*
X2070Y214D01*
X2705Y214D02*
X2712Y214D01*
X2802Y214D02*
X2809Y214D01*
X0Y213D02*
X7Y213D01*
X64Y213D02*
X71Y213D01*
X1915Y213D02*
X1922Y213D01*
X2004Y213D02*
X2011Y213D01*
X2055Y213D02*
X2070Y213D01*
X2705Y213D02*
X2712Y213D01*
X2802Y213D02*
X2809Y213D01*
X0Y212D02*
X7Y212D01*
X64Y212D02*
X71Y212D01*
X1914Y212D02*
X1921Y212D01*
X2004Y212D02*
X2012Y212D01*
X2055Y212D02*
X2070Y212D01*
X2705Y212D02*
X2712Y212D01*
X2802Y212D02*
X2809Y212D01*
X0Y211D02*
X7Y211D01*
X64Y211D02*
X71Y211D01*
X1914Y211D02*
X1921Y211D01*
X2005Y211D02*
X2012Y211D01*
X2055Y211D02*
X2070Y211D01*
X2705Y211D02*
X2712Y211D01*
X2802Y211D02*
X2809Y211D01*
X0Y210D02*
X7Y210D01*
X64Y210D02*
X71Y210D01*
X1914Y210D02*
X1921Y210D01*
X2005Y210D02*
X2012Y210D01*
X2055Y210D02*
X2070Y210D01*
X2705Y210D02*
X2712Y210D01*
X2802Y210D02*
X2809Y210D01*
X0Y209D02*
X7Y209D01*
X64Y209D02*
X71Y209D01*
X1914Y209D02*
X1921Y209D01*
X2005Y209D02*
X2012Y209D01*
X2055Y209D02*
X2070Y209D01*
X2705Y209D02*
X2712Y209D01*
X2802Y209D02*
X2809Y209D01*
X0Y208D02*
X7Y208D01*
X64Y208D02*
X71Y208D01*
X1914Y208D02*
X1921Y208D01*
X2005Y208D02*
X2012Y208D01*
X2055Y208D02*
X2070Y208D01*
X2705Y208D02*
X2712Y208D01*
X2802Y208D02*
X2809Y208D01*
X0Y207D02*
X7Y207D01*
X64Y207D02*
X71Y207D01*
X1914Y207D02*
X1921Y207D01*
X2005Y207D02*
X2012Y207D01*
X2055Y207D02*
X2070Y207D01*
X2705Y207D02*
X2712Y207D01*
X2802Y207D02*
X2809Y207D01*
X0Y206D02*
X7Y206D01*
X63Y206D02*
X71Y206D01*
X1914Y206D02*
X1921Y206D01*
X2005Y206D02*
X2012Y206D01*
X2055Y206D02*
X2070Y206D01*
X2705Y206D02*
X2712Y206D01*
X2802Y206D02*
X2809Y206D01*
X0Y205D02*
X7Y205D01*
X64Y205D02*
X71Y205D01*
X1914Y205D02*
X1921Y205D01*
X2005Y205D02*
X2012Y205D01*
X2055Y205D02*
X2070Y205D01*
X2705Y205D02*
X2712Y205D01*
X2802Y205D02*
X2809Y205D01*
X0Y204D02*
X7Y204D01*
X64Y204D02*
X71Y204D01*
X1913Y204D02*
X1920Y204D01*
X2005Y204D02*
X2012Y204D01*
X2055Y204D02*
X2070Y204D01*
X2705Y204D02*
X2712Y204D01*
X2802Y204D02*
X2809Y204D01*
X0Y203D02*
X7Y203D01*
X64Y203D02*
X70Y203D01*
X1913Y203D02*
X1920Y203D01*
X2005Y203D02*
X2012Y203D01*
X2055Y203D02*
X2070Y203D01*
X2705Y203D02*
X2712Y203D01*
X2802Y203D02*
X2809Y203D01*
X0Y202D02*
X7Y202D01*
X64Y202D02*
X70Y202D01*
X1913Y202D02*
X1920Y202D01*
X2005Y202D02*
X2012Y202D01*
X2055Y202D02*
X2070Y202D01*
X2705Y202D02*
X2712Y202D01*
X2802Y202D02*
X2809Y202D01*
X0Y201D02*
X7Y201D01*
X63Y201D02*
X70Y201D01*
X1914Y201D02*
X1921Y201D01*
X2005Y201D02*
X2012Y201D01*
X2055Y201D02*
X2070Y201D01*
X2705Y201D02*
X2712Y201D01*
X2802Y201D02*
X2809Y201D01*
X0Y200D02*
X7Y200D01*
X64Y200D02*
X71Y200D01*
X1914Y200D02*
X1921Y200D01*
X2005Y200D02*
X2012Y200D01*
X2055Y200D02*
X2070Y200D01*
X2705Y200D02*
X2712Y200D01*
X2802Y200D02*
X2809Y200D01*
X0Y199D02*
X7Y199D01*
X64Y199D02*
X71Y199D01*
X1914Y199D02*
X1921Y199D01*
X2005Y199D02*
X2012Y199D01*
X2055Y199D02*
X2070Y199D01*
X2705Y199D02*
X2712Y199D01*
X2802Y199D02*
X2809Y199D01*
X0Y198D02*
X7Y198D01*
X64Y198D02*
X71Y198D01*
X1914Y198D02*
X1921Y198D01*
X2005Y198D02*
X2012Y198D01*
X2055Y198D02*
X2062Y198D01*
X2064Y198D02*
X2071Y198D01*
X2705Y198D02*
X2712Y198D01*
X2802Y198D02*
X2809Y198D01*
X0Y197D02*
X7Y197D01*
X64Y197D02*
X71Y197D01*
X1914Y197D02*
X1921Y197D01*
X2005Y197D02*
X2012Y197D01*
X2055Y197D02*
X2062Y197D01*
X2064Y197D02*
X2071Y197D01*
X2705Y197D02*
X2712Y197D01*
X2802Y197D02*
X2809Y197D01*
X0Y196D02*
X7Y196D01*
X64Y196D02*
X71Y196D01*
X1914Y196D02*
X1921Y196D01*
X2005Y196D02*
X2012Y196D01*
X2055Y196D02*
X2062Y196D01*
X2064Y196D02*
X2071Y196D01*
X2705Y196D02*
X2712Y196D01*
X2802Y196D02*
X2809Y196D01*
X0Y195D02*
X7Y195D01*
X64Y195D02*
X71Y195D01*
X1914Y195D02*
X1921Y195D01*
X2005Y195D02*
X2012Y195D01*
X2055Y195D02*
X2062Y195D01*
X2064Y195D02*
X2071Y195D01*
X2705Y195D02*
X2712Y195D01*
X2802Y195D02*
X2809Y195D01*
X0Y194D02*
X7Y194D01*
X64Y194D02*
X71Y194D01*
X1914Y194D02*
X1921Y194D01*
X2005Y194D02*
X2012Y194D01*
X2055Y194D02*
X2062Y194D01*
X2064Y194D02*
X2071Y194D01*
X2705Y194D02*
X2712Y194D01*
X2802Y194D02*
X2809Y194D01*
X0Y193D02*
X7Y193D01*
X64Y193D02*
X71Y193D01*
X1914Y193D02*
X1922Y193D01*
X2004Y193D02*
X2011Y193D01*
X2055Y193D02*
X2062Y193D01*
X2064Y193D02*
X2071Y193D01*
X2705Y193D02*
X2712Y193D01*
X2802Y193D02*
X2809Y193D01*
X0Y192D02*
X7Y192D01*
X64Y192D02*
X71Y192D01*
X1915Y192D02*
X1922Y192D01*
X2004Y192D02*
X2011Y192D01*
X2055Y192D02*
X2062Y192D01*
X2064Y192D02*
X2071Y192D01*
X2705Y192D02*
X2712Y192D01*
X2802Y192D02*
X2809Y192D01*
X0Y191D02*
X7Y191D01*
X64Y191D02*
X71Y191D01*
X1915Y191D02*
X1922Y191D01*
X2004Y191D02*
X2011Y191D01*
X2055Y191D02*
X2062Y191D01*
X2064Y191D02*
X2071Y191D01*
X2705Y191D02*
X2712Y191D01*
X2802Y191D02*
X2809Y191D01*
X0Y190D02*
X7Y190D01*
X64Y190D02*
X71Y190D01*
X1915Y190D02*
X1922Y190D01*
X2003Y190D02*
X2011Y190D01*
X2055Y190D02*
X2062Y190D01*
X2064Y190D02*
X2071Y190D01*
X2704Y190D02*
X2712Y190D01*
X2802Y190D02*
X2809Y190D01*
X0Y189D02*
X7Y189D01*
X64Y189D02*
X71Y189D01*
X1915Y189D02*
X1923Y189D01*
X2003Y189D02*
X2010Y189D01*
X2054Y189D02*
X2061Y189D01*
X2064Y189D02*
X2071Y189D01*
X2704Y189D02*
X2711Y189D01*
X2802Y189D02*
X2809Y189D01*
X0Y188D02*
X7Y188D01*
X65Y188D02*
X72Y188D01*
X1916Y188D02*
X1923Y188D01*
X2003Y188D02*
X2010Y188D01*
X2054Y188D02*
X2061Y188D01*
X2065Y188D02*
X2072Y188D01*
X2704Y188D02*
X2711Y188D01*
X2802Y188D02*
X2809Y188D01*
X0Y187D02*
X7Y187D01*
X65Y187D02*
X72Y187D01*
X1916Y187D02*
X1923Y187D01*
X2002Y187D02*
X2010Y187D01*
X2054Y187D02*
X2061Y187D01*
X2065Y187D02*
X2072Y187D01*
X2704Y187D02*
X2711Y187D01*
X2802Y187D02*
X2809Y187D01*
X0Y186D02*
X7Y186D01*
X65Y186D02*
X72Y186D01*
X1916Y186D02*
X1924Y186D01*
X2002Y186D02*
X2009Y186D01*
X2054Y186D02*
X2061Y186D01*
X2065Y186D02*
X2072Y186D01*
X2704Y186D02*
X2711Y186D01*
X2802Y186D02*
X2809Y186D01*
X0Y185D02*
X7Y185D01*
X65Y185D02*
X72Y185D01*
X1917Y185D02*
X1924Y185D01*
X2001Y185D02*
X2009Y185D01*
X2054Y185D02*
X2061Y185D01*
X2065Y185D02*
X2072Y185D01*
X2704Y185D02*
X2711Y185D01*
X2802Y185D02*
X2809Y185D01*
X0Y184D02*
X7Y184D01*
X65Y184D02*
X72Y184D01*
X1917Y184D02*
X1925Y184D01*
X2001Y184D02*
X2009Y184D01*
X2054Y184D02*
X2061Y184D01*
X2065Y184D02*
X2072Y184D01*
X2703Y184D02*
X2711Y184D01*
X2802Y184D02*
X2809Y184D01*
X0Y183D02*
X7Y183D01*
X66Y183D02*
X73Y183D01*
X1918Y183D02*
X1925Y183D01*
X2001Y183D02*
X2008Y183D01*
X2053Y183D02*
X2060Y183D01*
X2065Y183D02*
X2072Y183D01*
X2703Y183D02*
X2710Y183D01*
X2802Y183D02*
X2809Y183D01*
X0Y182D02*
X7Y182D01*
X66Y182D02*
X73Y182D01*
X1918Y182D02*
X1926Y182D01*
X2000Y182D02*
X2008Y182D01*
X2053Y182D02*
X2060Y182D01*
X2066Y182D02*
X2073Y182D01*
X2703Y182D02*
X2710Y182D01*
X2802Y182D02*
X2809Y182D01*
X0Y181D02*
X7Y181D01*
X66Y181D02*
X73Y181D01*
X1919Y181D02*
X1927Y181D01*
X1999Y181D02*
X2007Y181D01*
X2053Y181D02*
X2060Y181D01*
X2066Y181D02*
X2073Y181D01*
X2703Y181D02*
X2710Y181D01*
X2802Y181D02*
X2809Y181D01*
X0Y180D02*
X7Y180D01*
X66Y180D02*
X73Y180D01*
X1919Y180D02*
X1927Y180D01*
X1999Y180D02*
X2007Y180D01*
X2053Y180D02*
X2060Y180D01*
X2066Y180D02*
X2073Y180D01*
X2703Y180D02*
X2710Y180D01*
X2802Y180D02*
X2809Y180D01*
X0Y179D02*
X7Y179D01*
X66Y179D02*
X74Y179D01*
X1920Y179D02*
X1928Y179D01*
X1998Y179D02*
X2006Y179D01*
X2052Y179D02*
X2060Y179D01*
X2066Y179D02*
X2073Y179D01*
X2702Y179D02*
X2709Y179D01*
X2802Y179D02*
X2809Y179D01*
X0Y178D02*
X7Y178D01*
X67Y178D02*
X74Y178D01*
X1920Y178D02*
X1929Y178D01*
X1997Y178D02*
X2006Y178D01*
X2052Y178D02*
X2059Y178D01*
X2067Y178D02*
X2074Y178D01*
X2702Y178D02*
X2709Y178D01*
X2802Y178D02*
X2809Y178D01*
X0Y177D02*
X7Y177D01*
X67Y177D02*
X74Y177D01*
X1921Y177D02*
X1929Y177D01*
X1997Y177D02*
X2005Y177D01*
X2052Y177D02*
X2059Y177D01*
X2067Y177D02*
X2074Y177D01*
X2702Y177D02*
X2709Y177D01*
X2802Y177D02*
X2809Y177D01*
X0Y176D02*
X7Y176D01*
X67Y176D02*
X74Y176D01*
X1921Y176D02*
X1930Y176D01*
X1996Y176D02*
X2004Y176D01*
X2052Y176D02*
X2059Y176D01*
X2067Y176D02*
X2074Y176D01*
X2701Y176D02*
X2709Y176D01*
X2802Y176D02*
X2809Y176D01*
X0Y175D02*
X7Y175D01*
X67Y175D02*
X75Y175D01*
X1922Y175D02*
X1931Y175D01*
X1995Y175D02*
X2004Y175D01*
X2051Y175D02*
X2058Y175D01*
X2067Y175D02*
X2075Y175D01*
X2701Y175D02*
X2708Y175D01*
X2802Y175D02*
X2809Y175D01*
X0Y174D02*
X7Y174D01*
X68Y174D02*
X75Y174D01*
X1923Y174D02*
X1932Y174D01*
X1994Y174D02*
X2003Y174D01*
X2051Y174D02*
X2058Y174D01*
X2068Y174D02*
X2075Y174D01*
X2701Y174D02*
X2708Y174D01*
X2802Y174D02*
X2809Y174D01*
X0Y173D02*
X7Y173D01*
X68Y173D02*
X75Y173D01*
X1923Y173D02*
X1933Y173D01*
X1993Y173D02*
X2002Y173D01*
X2051Y173D02*
X2058Y173D01*
X2068Y173D02*
X2075Y173D01*
X2700Y173D02*
X2708Y173D01*
X2802Y173D02*
X2809Y173D01*
X0Y172D02*
X7Y172D01*
X68Y172D02*
X76Y172D01*
X1924Y172D02*
X1934Y172D01*
X1992Y172D02*
X2002Y172D01*
X2050Y172D02*
X2058Y172D01*
X2068Y172D02*
X2076Y172D01*
X2700Y172D02*
X2707Y172D01*
X2802Y172D02*
X2809Y172D01*
X0Y171D02*
X7Y171D01*
X69Y171D02*
X76Y171D01*
X1925Y171D02*
X1935Y171D01*
X1991Y171D02*
X2001Y171D01*
X2050Y171D02*
X2057Y171D01*
X2069Y171D02*
X2076Y171D01*
X2700Y171D02*
X2707Y171D01*
X2802Y171D02*
X2809Y171D01*
X0Y170D02*
X7Y170D01*
X69Y170D02*
X76Y170D01*
X1926Y170D02*
X1936Y170D01*
X1990Y170D02*
X2000Y170D01*
X2049Y170D02*
X2057Y170D01*
X2069Y170D02*
X2076Y170D01*
X2699Y170D02*
X2707Y170D01*
X2802Y170D02*
X2809Y170D01*
X0Y169D02*
X7Y169D01*
X69Y169D02*
X77Y169D01*
X1927Y169D02*
X1938Y169D01*
X1988Y169D02*
X1999Y169D01*
X2049Y169D02*
X2056Y169D01*
X2069Y169D02*
X2077Y169D01*
X2699Y169D02*
X2706Y169D01*
X2802Y169D02*
X2809Y169D01*
X0Y168D02*
X7Y168D01*
X70Y168D02*
X77Y168D01*
X1928Y168D02*
X1939Y168D01*
X1987Y168D02*
X1998Y168D01*
X2049Y168D02*
X2056Y168D01*
X2070Y168D02*
X2077Y168D01*
X2699Y168D02*
X2706Y168D01*
X2802Y168D02*
X2809Y168D01*
X0Y167D02*
X7Y167D01*
X70Y167D02*
X78Y167D01*
X1929Y167D02*
X1940Y167D01*
X1985Y167D02*
X1997Y167D01*
X2048Y167D02*
X2056Y167D01*
X2070Y167D02*
X2078Y167D01*
X2698Y167D02*
X2706Y167D01*
X2802Y167D02*
X2809Y167D01*
X0Y166D02*
X7Y166D01*
X71Y166D02*
X78Y166D01*
X1930Y166D02*
X1942Y166D01*
X1984Y166D02*
X1996Y166D01*
X2048Y166D02*
X2055Y166D01*
X2070Y166D02*
X2078Y166D01*
X2698Y166D02*
X2705Y166D01*
X2802Y166D02*
X2809Y166D01*
X0Y165D02*
X7Y165D01*
X71Y165D02*
X79Y165D01*
X1931Y165D02*
X1944Y165D01*
X1982Y165D02*
X1995Y165D01*
X2047Y165D02*
X2055Y165D01*
X2071Y165D02*
X2079Y165D01*
X2697Y165D02*
X2705Y165D01*
X2802Y165D02*
X2809Y165D01*
X0Y164D02*
X7Y164D01*
X71Y164D02*
X79Y164D01*
X1932Y164D02*
X1946Y164D01*
X1980Y164D02*
X1994Y164D01*
X2047Y164D02*
X2055Y164D01*
X2071Y164D02*
X2079Y164D01*
X2697Y164D02*
X2704Y164D01*
X2802Y164D02*
X2809Y164D01*
X0Y163D02*
X7Y163D01*
X72Y163D02*
X80Y163D01*
X1933Y163D02*
X1949Y163D01*
X1977Y163D02*
X1992Y163D01*
X2046Y163D02*
X2054Y163D01*
X2072Y163D02*
X2079Y163D01*
X2696Y163D02*
X2704Y163D01*
X2802Y163D02*
X2809Y163D01*
X0Y162D02*
X7Y162D01*
X72Y162D02*
X80Y162D01*
X1935Y162D02*
X1953Y162D01*
X1973Y162D02*
X1991Y162D01*
X2046Y162D02*
X2054Y162D01*
X2072Y162D02*
X2080Y162D01*
X2696Y162D02*
X2704Y162D01*
X2802Y162D02*
X2809Y162D01*
X0Y161D02*
X7Y161D01*
X73Y161D02*
X80Y161D01*
X1936Y161D02*
X1959Y161D01*
X1967Y161D02*
X1990Y161D01*
X2045Y161D02*
X2053Y161D01*
X2073Y161D02*
X2080Y161D01*
X2695Y161D02*
X2703Y161D01*
X2802Y161D02*
X2809Y161D01*
X0Y160D02*
X7Y160D01*
X73Y160D02*
X81Y160D01*
X1938Y160D02*
X1988Y160D01*
X2045Y160D02*
X2053Y160D01*
X2073Y160D02*
X2081Y160D01*
X2695Y160D02*
X2703Y160D01*
X2802Y160D02*
X2809Y160D01*
X0Y159D02*
X7Y159D01*
X74Y159D02*
X82Y159D01*
X1940Y159D02*
X1986Y159D01*
X2044Y159D02*
X2052Y159D01*
X2074Y159D02*
X2081Y159D01*
X2694Y159D02*
X2702Y159D01*
X2802Y159D02*
X2809Y159D01*
X0Y158D02*
X7Y158D01*
X74Y158D02*
X82Y158D01*
X1942Y158D02*
X1984Y158D01*
X2044Y158D02*
X2052Y158D01*
X2074Y158D02*
X2082Y158D01*
X2694Y158D02*
X2702Y158D01*
X2802Y158D02*
X2809Y158D01*
X0Y157D02*
X7Y157D01*
X75Y157D02*
X83Y157D01*
X1944Y157D02*
X1982Y157D01*
X2043Y157D02*
X2051Y157D01*
X2075Y157D02*
X2083Y157D01*
X2693Y157D02*
X2701Y157D01*
X2802Y157D02*
X2809Y157D01*
X0Y156D02*
X7Y156D01*
X75Y156D02*
X83Y156D01*
X1946Y156D02*
X1980Y156D01*
X2043Y156D02*
X2051Y156D01*
X2075Y156D02*
X2083Y156D01*
X2693Y156D02*
X2701Y156D01*
X2802Y156D02*
X2809Y156D01*
X0Y155D02*
X7Y155D01*
X76Y155D02*
X84Y155D01*
X1949Y155D02*
X1977Y155D01*
X2042Y155D02*
X2050Y155D01*
X2076Y155D02*
X2084Y155D01*
X2692Y155D02*
X2700Y155D01*
X2802Y155D02*
X2809Y155D01*
X0Y154D02*
X7Y154D01*
X76Y154D02*
X85Y154D01*
X1953Y154D02*
X1973Y154D01*
X2041Y154D02*
X2050Y154D01*
X2076Y154D02*
X2084Y154D01*
X2691Y154D02*
X2699Y154D01*
X2802Y154D02*
X2809Y154D01*
X0Y153D02*
X7Y153D01*
X77Y153D02*
X85Y153D01*
X1960Y153D02*
X1965Y153D01*
X2041Y153D02*
X2049Y153D01*
X2077Y153D02*
X2085Y153D01*
X2691Y153D02*
X2699Y153D01*
X2802Y153D02*
X2809Y153D01*
X0Y152D02*
X7Y152D01*
X77Y152D02*
X86Y152D01*
X2040Y152D02*
X2049Y152D01*
X2077Y152D02*
X2086Y152D01*
X2690Y152D02*
X2698Y152D01*
X2802Y152D02*
X2809Y152D01*
X0Y151D02*
X7Y151D01*
X78Y151D02*
X86Y151D01*
X2039Y151D02*
X2048Y151D01*
X2078Y151D02*
X2086Y151D01*
X2689Y151D02*
X2698Y151D01*
X2802Y151D02*
X2809Y151D01*
X0Y150D02*
X7Y150D01*
X79Y150D02*
X87Y150D01*
X2039Y150D02*
X2047Y150D01*
X2079Y150D02*
X2087Y150D01*
X2689Y150D02*
X2697Y150D01*
X2802Y150D02*
X2809Y150D01*
X0Y149D02*
X7Y149D01*
X79Y149D02*
X88Y149D01*
X2038Y149D02*
X2047Y149D01*
X2079Y149D02*
X2088Y149D01*
X2688Y149D02*
X2697Y149D01*
X2802Y149D02*
X2809Y149D01*
X0Y148D02*
X7Y148D01*
X80Y148D02*
X89Y148D01*
X2037Y148D02*
X2046Y148D01*
X2080Y148D02*
X2089Y148D01*
X2687Y148D02*
X2696Y148D01*
X2802Y148D02*
X2809Y148D01*
X0Y147D02*
X7Y147D01*
X81Y147D02*
X89Y147D01*
X2037Y147D02*
X2045Y147D01*
X2080Y147D02*
X2089Y147D01*
X2686Y147D02*
X2695Y147D01*
X2802Y147D02*
X2809Y147D01*
X0Y146D02*
X7Y146D01*
X81Y146D02*
X90Y146D01*
X2036Y146D02*
X2045Y146D01*
X2081Y146D02*
X2090Y146D01*
X2686Y146D02*
X2695Y146D01*
X2802Y146D02*
X2809Y146D01*
X0Y145D02*
X7Y145D01*
X82Y145D02*
X91Y145D01*
X2035Y145D02*
X2044Y145D01*
X2082Y145D02*
X2091Y145D01*
X2685Y145D02*
X2694Y145D01*
X2802Y145D02*
X2809Y145D01*
X0Y144D02*
X7Y144D01*
X83Y144D02*
X92Y144D01*
X2034Y144D02*
X2043Y144D01*
X2083Y144D02*
X2092Y144D01*
X2684Y144D02*
X2693Y144D01*
X2802Y144D02*
X2809Y144D01*
X0Y143D02*
X7Y143D01*
X83Y143D02*
X93Y143D01*
X2033Y143D02*
X2043Y143D01*
X2083Y143D02*
X2093Y143D01*
X2683Y143D02*
X2692Y143D01*
X2802Y143D02*
X2809Y143D01*
X0Y142D02*
X7Y142D01*
X84Y142D02*
X94Y142D01*
X2032Y142D02*
X2042Y142D01*
X2084Y142D02*
X2093Y142D01*
X2682Y142D02*
X2692Y142D01*
X2802Y142D02*
X2809Y142D01*
X0Y141D02*
X7Y141D01*
X85Y141D02*
X94Y141D01*
X2031Y141D02*
X2041Y141D01*
X2085Y141D02*
X2094Y141D01*
X2681Y141D02*
X2691Y141D01*
X2802Y141D02*
X2809Y141D01*
X0Y140D02*
X7Y140D01*
X86Y140D02*
X95Y140D01*
X2031Y140D02*
X2040Y140D01*
X2086Y140D02*
X2095Y140D01*
X2680Y140D02*
X2690Y140D01*
X2802Y140D02*
X2809Y140D01*
X0Y139D02*
X7Y139D01*
X86Y139D02*
X96Y139D01*
X2030Y139D02*
X2039Y139D01*
X2086Y139D02*
X2096Y139D01*
X2680Y139D02*
X2689Y139D01*
X2802Y139D02*
X2809Y139D01*
X0Y138D02*
X7Y138D01*
X87Y138D02*
X97Y138D01*
X2029Y138D02*
X2039Y138D01*
X2087Y138D02*
X2097Y138D01*
X2679Y138D02*
X2688Y138D01*
X2802Y138D02*
X2809Y138D01*
X0Y137D02*
X7Y137D01*
X88Y137D02*
X98Y137D01*
X2028Y137D02*
X2038Y137D01*
X2088Y137D02*
X2098Y137D01*
X2678Y137D02*
X2688Y137D01*
X2802Y137D02*
X2809Y137D01*
X0Y136D02*
X7Y136D01*
X89Y136D02*
X99Y136D01*
X2027Y136D02*
X2037Y136D01*
X2089Y136D02*
X2099Y136D01*
X2676Y136D02*
X2687Y136D01*
X2802Y136D02*
X2809Y136D01*
X0Y135D02*
X7Y135D01*
X90Y135D02*
X100Y135D01*
X2025Y135D02*
X2036Y135D01*
X2090Y135D02*
X2100Y135D01*
X2675Y135D02*
X2686Y135D01*
X2802Y135D02*
X2809Y135D01*
X0Y134D02*
X7Y134D01*
X91Y134D02*
X102Y134D01*
X2024Y134D02*
X2035Y134D01*
X2091Y134D02*
X2101Y134D01*
X2674Y134D02*
X2685Y134D01*
X2802Y134D02*
X2809Y134D01*
X0Y133D02*
X7Y133D01*
X92Y133D02*
X103Y133D01*
X2023Y133D02*
X2034Y133D01*
X2092Y133D02*
X2103Y133D01*
X2673Y133D02*
X2684Y133D01*
X2802Y133D02*
X2809Y133D01*
X0Y132D02*
X7Y132D01*
X93Y132D02*
X104Y132D01*
X2022Y132D02*
X2033Y132D01*
X2093Y132D02*
X2104Y132D01*
X2672Y132D02*
X2683Y132D01*
X2802Y132D02*
X2809Y132D01*
X0Y131D02*
X7Y131D01*
X94Y131D02*
X105Y131D01*
X2021Y131D02*
X2032Y131D01*
X2094Y131D02*
X2105Y131D01*
X2671Y131D02*
X2682Y131D01*
X2802Y131D02*
X2809Y131D01*
X0Y130D02*
X7Y130D01*
X95Y130D02*
X106Y130D01*
X2020Y130D02*
X2031Y130D01*
X2095Y130D02*
X2106Y130D01*
X2669Y130D02*
X2681Y130D01*
X2802Y130D02*
X2809Y130D01*
X0Y129D02*
X7Y129D01*
X96Y129D02*
X108Y129D01*
X2018Y129D02*
X2030Y129D01*
X2096Y129D02*
X2108Y129D01*
X2668Y129D02*
X2680Y129D01*
X2802Y129D02*
X2809Y129D01*
X0Y128D02*
X7Y128D01*
X97Y128D02*
X109Y128D01*
X2017Y128D02*
X2029Y128D01*
X2097Y128D02*
X2109Y128D01*
X2667Y128D02*
X2679Y128D01*
X2802Y128D02*
X2809Y128D01*
X0Y127D02*
X7Y127D01*
X98Y127D02*
X110Y127D01*
X2016Y127D02*
X2028Y127D01*
X2098Y127D02*
X2110Y127D01*
X2665Y127D02*
X2678Y127D01*
X2802Y127D02*
X2809Y127D01*
X0Y126D02*
X7Y126D01*
X99Y126D02*
X112Y126D01*
X2014Y126D02*
X2026Y126D01*
X2099Y126D02*
X2112Y126D01*
X2664Y126D02*
X2676Y126D01*
X2802Y126D02*
X2809Y126D01*
X0Y125D02*
X7Y125D01*
X101Y125D02*
X113Y125D01*
X2013Y125D02*
X2025Y125D01*
X2101Y125D02*
X2113Y125D01*
X2662Y125D02*
X2675Y125D01*
X2802Y125D02*
X2809Y125D01*
X0Y124D02*
X7Y124D01*
X102Y124D02*
X115Y124D01*
X2011Y124D02*
X2024Y124D01*
X2102Y124D02*
X2115Y124D01*
X2661Y124D02*
X2674Y124D01*
X2802Y124D02*
X2809Y124D01*
X0Y123D02*
X7Y123D01*
X103Y123D02*
X117Y123D01*
X2009Y123D02*
X2023Y123D01*
X2103Y123D02*
X2117Y123D01*
X2659Y123D02*
X2672Y123D01*
X2802Y123D02*
X2809Y123D01*
X0Y122D02*
X7Y122D01*
X105Y122D02*
X119Y122D01*
X2007Y122D02*
X2021Y122D01*
X2105Y122D02*
X2118Y122D01*
X2657Y122D02*
X2671Y122D01*
X2802Y122D02*
X2809Y122D01*
X0Y121D02*
X7Y121D01*
X106Y121D02*
X120Y121D01*
X2006Y121D02*
X2020Y121D01*
X2106Y121D02*
X2120Y121D01*
X2656Y121D02*
X2670Y121D01*
X2802Y121D02*
X2809Y121D01*
X0Y120D02*
X7Y120D01*
X108Y120D02*
X122Y120D01*
X2004Y120D02*
X2018Y120D01*
X2107Y120D02*
X2122Y120D01*
X2653Y120D02*
X2668Y120D01*
X2802Y120D02*
X2809Y120D01*
X0Y119D02*
X7Y119D01*
X109Y119D02*
X125Y119D01*
X2001Y119D02*
X2017Y119D01*
X2109Y119D02*
X2125Y119D01*
X2651Y119D02*
X2667Y119D01*
X2802Y119D02*
X2809Y119D01*
X0Y118D02*
X7Y118D01*
X111Y118D02*
X127Y118D01*
X1999Y118D02*
X2015Y118D01*
X2111Y118D02*
X2127Y118D01*
X2649Y118D02*
X2665Y118D01*
X2802Y118D02*
X2809Y118D01*
X0Y117D02*
X7Y117D01*
X112Y117D02*
X129Y117D01*
X1997Y117D02*
X2014Y117D01*
X2112Y117D02*
X2129Y117D01*
X2647Y117D02*
X2663Y117D01*
X2802Y117D02*
X2809Y117D01*
X0Y116D02*
X7Y116D01*
X114Y116D02*
X132Y116D01*
X1994Y116D02*
X2012Y116D01*
X2114Y116D02*
X2132Y116D01*
X2644Y116D02*
X2662Y116D01*
X2802Y116D02*
X2809Y116D01*
X0Y115D02*
X7Y115D01*
X116Y115D02*
X135Y115D01*
X1991Y115D02*
X2010Y115D01*
X2116Y115D02*
X2135Y115D01*
X2641Y115D02*
X2660Y115D01*
X2802Y115D02*
X2809Y115D01*
X0Y114D02*
X7Y114D01*
X118Y114D02*
X138Y114D01*
X1988Y114D02*
X2008Y114D01*
X2118Y114D02*
X2138Y114D01*
X2638Y114D02*
X2658Y114D01*
X2802Y114D02*
X2809Y114D01*
X0Y113D02*
X7Y113D01*
X120Y113D02*
X142Y113D01*
X1984Y113D02*
X2006Y113D01*
X2120Y113D02*
X2142Y113D01*
X2633Y113D02*
X2656Y113D01*
X2802Y113D02*
X2809Y113D01*
X0Y112D02*
X7Y112D01*
X122Y112D02*
X147Y112D01*
X1978Y112D02*
X2004Y112D01*
X2122Y112D02*
X2148Y112D01*
X2628Y112D02*
X2654Y112D01*
X2802Y112D02*
X2809Y112D01*
X0Y111D02*
X7Y111D01*
X124Y111D02*
X156Y111D01*
X1970Y111D02*
X2002Y111D01*
X2124Y111D02*
X2157Y111D01*
X2619Y111D02*
X2652Y111D01*
X2802Y111D02*
X2809Y111D01*
X0Y110D02*
X7Y110D01*
X126Y110D02*
X1999Y110D01*
X2126Y110D02*
X2649Y110D01*
X2802Y110D02*
X2809Y110D01*
X0Y109D02*
X7Y109D01*
X129Y109D02*
X1997Y109D01*
X2129Y109D02*
X2647Y109D01*
X2802Y109D02*
X2809Y109D01*
X0Y108D02*
X7Y108D01*
X132Y108D02*
X1994Y108D01*
X2132Y108D02*
X2644Y108D01*
X2802Y108D02*
X2809Y108D01*
X0Y107D02*
X7Y107D01*
X135Y107D02*
X1991Y107D01*
X2135Y107D02*
X2641Y107D01*
X2802Y107D02*
X2809Y107D01*
X0Y106D02*
X7Y106D01*
X139Y106D02*
X1987Y106D01*
X2139Y106D02*
X2637Y106D01*
X2802Y106D02*
X2809Y106D01*
X0Y105D02*
X7Y105D01*
X143Y105D02*
X1983Y105D01*
X2143Y105D02*
X2633Y105D01*
X2802Y105D02*
X2809Y105D01*
X0Y104D02*
X7Y104D01*
X149Y104D02*
X1977Y104D01*
X2149Y104D02*
X2627Y104D01*
X2802Y104D02*
X2809Y104D01*
X0Y103D02*
X7Y103D01*
X158Y103D02*
X1968Y103D01*
X2158Y103D02*
X2617Y103D01*
X2802Y103D02*
X2809Y103D01*
X0Y102D02*
X7Y102D01*
X1751Y102D02*
X1773Y102D01*
X1801Y102D02*
X1823Y102D01*
X1848Y102D02*
X1876Y102D01*
X1898Y102D02*
X1929Y102D01*
X1948Y102D02*
X1949Y102D01*
X1976Y102D02*
X1977Y102D01*
X2008Y102D02*
X2029Y102D01*
X2802Y102D02*
X2809Y102D01*
X0Y101D02*
X7Y101D01*
X1748Y101D02*
X1775Y101D01*
X1798Y101D02*
X1826Y101D01*
X1846Y101D02*
X1878Y101D01*
X1897Y101D02*
X1929Y101D01*
X1947Y101D02*
X1951Y101D01*
X1974Y101D02*
X1978Y101D01*
X2004Y101D02*
X2030Y101D01*
X2802Y101D02*
X2809Y101D01*
X0Y100D02*
X7Y100D01*
X1747Y100D02*
X1777Y100D01*
X1797Y100D02*
X1827Y100D01*
X1846Y100D02*
X1879Y100D01*
X1896Y100D02*
X1929Y100D01*
X1946Y100D02*
X1951Y100D01*
X1974Y100D02*
X1979Y100D01*
X2003Y100D02*
X2030Y100D01*
X2802Y100D02*
X2809Y100D01*
X0Y99D02*
X7Y99D01*
X1746Y99D02*
X1777Y99D01*
X1796Y99D02*
X1828Y99D01*
X1845Y99D02*
X1879Y99D01*
X1896Y99D02*
X1929Y99D01*
X1946Y99D02*
X1952Y99D01*
X1973Y99D02*
X1979Y99D01*
X2001Y99D02*
X2030Y99D01*
X2802Y99D02*
X2809Y99D01*
X0Y98D02*
X7Y98D01*
X1746Y98D02*
X1778Y98D01*
X1796Y98D02*
X1828Y98D01*
X1845Y98D02*
X1879Y98D01*
X1896Y98D02*
X1929Y98D01*
X1946Y98D02*
X1952Y98D01*
X1973Y98D02*
X1979Y98D01*
X2000Y98D02*
X2030Y98D01*
X2802Y98D02*
X2809Y98D01*
X0Y97D02*
X7Y97D01*
X1745Y97D02*
X1778Y97D01*
X1795Y97D02*
X1828Y97D01*
X1845Y97D02*
X1879Y97D01*
X1896Y97D02*
X1929Y97D01*
X1946Y97D02*
X1952Y97D01*
X1973Y97D02*
X1979Y97D01*
X1999Y97D02*
X2030Y97D01*
X2802Y97D02*
X2809Y97D01*
X0Y96D02*
X7Y96D01*
X1745Y96D02*
X1778Y96D01*
X1795Y96D02*
X1829Y96D01*
X1845Y96D02*
X1879Y96D01*
X1897Y96D02*
X1929Y96D01*
X1946Y96D02*
X1952Y96D01*
X1973Y96D02*
X1979Y96D01*
X1998Y96D02*
X2030Y96D01*
X2802Y96D02*
X2809Y96D01*
X0Y95D02*
X7Y95D01*
X1745Y95D02*
X1751Y95D01*
X1772Y95D02*
X1779Y95D01*
X1795Y95D02*
X1801Y95D01*
X1823Y95D02*
X1829Y95D01*
X1845Y95D02*
X1852Y95D01*
X1873Y95D02*
X1879Y95D01*
X1923Y95D02*
X1929Y95D01*
X1946Y95D02*
X1952Y95D01*
X1973Y95D02*
X1979Y95D01*
X1998Y95D02*
X2008Y95D01*
X2023Y95D02*
X2030Y95D01*
X2802Y95D02*
X2809Y95D01*
X0Y94D02*
X7Y94D01*
X1745Y94D02*
X1751Y94D01*
X1773Y94D02*
X1779Y94D01*
X1795Y94D02*
X1801Y94D01*
X1823Y94D02*
X1829Y94D01*
X1845Y94D02*
X1851Y94D01*
X1873Y94D02*
X1879Y94D01*
X1923Y94D02*
X1929Y94D01*
X1946Y94D02*
X1952Y94D01*
X1973Y94D02*
X1979Y94D01*
X1997Y94D02*
X2005Y94D01*
X2024Y94D02*
X2030Y94D01*
X2802Y94D02*
X2809Y94D01*
X0Y93D02*
X7Y93D01*
X1745Y93D02*
X1751Y93D01*
X1773Y93D02*
X1779Y93D01*
X1795Y93D02*
X1801Y93D01*
X1823Y93D02*
X1829Y93D01*
X1845Y93D02*
X1851Y93D01*
X1873Y93D02*
X1879Y93D01*
X1923Y93D02*
X1929Y93D01*
X1946Y93D02*
X1952Y93D01*
X1973Y93D02*
X1979Y93D01*
X1997Y93D02*
X2004Y93D01*
X2024Y93D02*
X2030Y93D01*
X2802Y93D02*
X2809Y93D01*
X0Y92D02*
X7Y92D01*
X1745Y92D02*
X1751Y92D01*
X1773Y92D02*
X1779Y92D01*
X1795Y92D02*
X1801Y92D01*
X1823Y92D02*
X1829Y92D01*
X1845Y92D02*
X1851Y92D01*
X1873Y92D02*
X1879Y92D01*
X1923Y92D02*
X1929Y92D01*
X1946Y92D02*
X1952Y92D01*
X1973Y92D02*
X1979Y92D01*
X1997Y92D02*
X2003Y92D01*
X2024Y92D02*
X2030Y92D01*
X2802Y92D02*
X2809Y92D01*
X0Y91D02*
X7Y91D01*
X1745Y91D02*
X1751Y91D01*
X1773Y91D02*
X1779Y91D01*
X1795Y91D02*
X1801Y91D01*
X1823Y91D02*
X1829Y91D01*
X1845Y91D02*
X1851Y91D01*
X1873Y91D02*
X1879Y91D01*
X1923Y91D02*
X1929Y91D01*
X1946Y91D02*
X1952Y91D01*
X1973Y91D02*
X1979Y91D01*
X1996Y91D02*
X2003Y91D01*
X2024Y91D02*
X2030Y91D01*
X2802Y91D02*
X2809Y91D01*
X0Y90D02*
X7Y90D01*
X1745Y90D02*
X1751Y90D01*
X1773Y90D02*
X1779Y90D01*
X1795Y90D02*
X1801Y90D01*
X1823Y90D02*
X1829Y90D01*
X1845Y90D02*
X1851Y90D01*
X1873Y90D02*
X1879Y90D01*
X1923Y90D02*
X1929Y90D01*
X1946Y90D02*
X1952Y90D01*
X1973Y90D02*
X1979Y90D01*
X1996Y90D02*
X2002Y90D01*
X2024Y90D02*
X2030Y90D01*
X2802Y90D02*
X2809Y90D01*
X0Y89D02*
X7Y89D01*
X1745Y89D02*
X1751Y89D01*
X1773Y89D02*
X1779Y89D01*
X1795Y89D02*
X1801Y89D01*
X1823Y89D02*
X1829Y89D01*
X1845Y89D02*
X1851Y89D01*
X1873Y89D02*
X1879Y89D01*
X1923Y89D02*
X1929Y89D01*
X1946Y89D02*
X1952Y89D01*
X1973Y89D02*
X1979Y89D01*
X1996Y89D02*
X2002Y89D01*
X2024Y89D02*
X2030Y89D01*
X2802Y89D02*
X2809Y89D01*
X0Y88D02*
X7Y88D01*
X1745Y88D02*
X1751Y88D01*
X1773Y88D02*
X1779Y88D01*
X1795Y88D02*
X1801Y88D01*
X1823Y88D02*
X1829Y88D01*
X1845Y88D02*
X1851Y88D01*
X1873Y88D02*
X1879Y88D01*
X1923Y88D02*
X1929Y88D01*
X1946Y88D02*
X1952Y88D01*
X1973Y88D02*
X1979Y88D01*
X1996Y88D02*
X2002Y88D01*
X2024Y88D02*
X2030Y88D01*
X2802Y88D02*
X2809Y88D01*
X0Y87D02*
X7Y87D01*
X1745Y87D02*
X1751Y87D01*
X1773Y87D02*
X1779Y87D01*
X1795Y87D02*
X1801Y87D01*
X1823Y87D02*
X1829Y87D01*
X1845Y87D02*
X1851Y87D01*
X1873Y87D02*
X1879Y87D01*
X1923Y87D02*
X1929Y87D01*
X1946Y87D02*
X1952Y87D01*
X1973Y87D02*
X1979Y87D01*
X1996Y87D02*
X2002Y87D01*
X2024Y87D02*
X2030Y87D01*
X2802Y87D02*
X2809Y87D01*
X0Y86D02*
X7Y86D01*
X1745Y86D02*
X1751Y86D01*
X1773Y86D02*
X1779Y86D01*
X1795Y86D02*
X1801Y86D01*
X1823Y86D02*
X1829Y86D01*
X1845Y86D02*
X1851Y86D01*
X1873Y86D02*
X1879Y86D01*
X1923Y86D02*
X1929Y86D01*
X1946Y86D02*
X1952Y86D01*
X1973Y86D02*
X1979Y86D01*
X1996Y86D02*
X2002Y86D01*
X2024Y86D02*
X2030Y86D01*
X2802Y86D02*
X2809Y86D01*
X0Y85D02*
X7Y85D01*
X1745Y85D02*
X1751Y85D01*
X1773Y85D02*
X1779Y85D01*
X1795Y85D02*
X1801Y85D01*
X1823Y85D02*
X1829Y85D01*
X1845Y85D02*
X1851Y85D01*
X1873Y85D02*
X1879Y85D01*
X1923Y85D02*
X1929Y85D01*
X1946Y85D02*
X1952Y85D01*
X1973Y85D02*
X1979Y85D01*
X1996Y85D02*
X2002Y85D01*
X2024Y85D02*
X2030Y85D01*
X2802Y85D02*
X2809Y85D01*
X0Y84D02*
X7Y84D01*
X1745Y84D02*
X1751Y84D01*
X1773Y84D02*
X1779Y84D01*
X1795Y84D02*
X1801Y84D01*
X1823Y84D02*
X1829Y84D01*
X1845Y84D02*
X1879Y84D01*
X1923Y84D02*
X1929Y84D01*
X1946Y84D02*
X1952Y84D01*
X1973Y84D02*
X1979Y84D01*
X1996Y84D02*
X2002Y84D01*
X2024Y84D02*
X2030Y84D01*
X2802Y84D02*
X2809Y84D01*
X0Y83D02*
X7Y83D01*
X1745Y83D02*
X1751Y83D01*
X1773Y83D02*
X1779Y83D01*
X1795Y83D02*
X1801Y83D01*
X1823Y83D02*
X1829Y83D01*
X1845Y83D02*
X1879Y83D01*
X1923Y83D02*
X1929Y83D01*
X1946Y83D02*
X1952Y83D01*
X1973Y83D02*
X1979Y83D01*
X1996Y83D02*
X2003Y83D01*
X2024Y83D02*
X2030Y83D01*
X2802Y83D02*
X2809Y83D01*
X0Y82D02*
X7Y82D01*
X1745Y82D02*
X1751Y82D01*
X1773Y82D02*
X1779Y82D01*
X1795Y82D02*
X1801Y82D01*
X1823Y82D02*
X1829Y82D01*
X1845Y82D02*
X1879Y82D01*
X1923Y82D02*
X1929Y82D01*
X1946Y82D02*
X1952Y82D01*
X1973Y82D02*
X1979Y82D01*
X1996Y82D02*
X2003Y82D01*
X2024Y82D02*
X2030Y82D01*
X2802Y82D02*
X2809Y82D01*
X0Y81D02*
X7Y81D01*
X1745Y81D02*
X1751Y81D01*
X1773Y81D02*
X1779Y81D01*
X1795Y81D02*
X1801Y81D01*
X1823Y81D02*
X1829Y81D01*
X1845Y81D02*
X1879Y81D01*
X1923Y81D02*
X1929Y81D01*
X1946Y81D02*
X1952Y81D01*
X1973Y81D02*
X1979Y81D01*
X1997Y81D02*
X2004Y81D01*
X2024Y81D02*
X2030Y81D01*
X2802Y81D02*
X2809Y81D01*
X0Y80D02*
X7Y80D01*
X1745Y80D02*
X1751Y80D01*
X1773Y80D02*
X1779Y80D01*
X1795Y80D02*
X1801Y80D01*
X1823Y80D02*
X1829Y80D01*
X1846Y80D02*
X1879Y80D01*
X1923Y80D02*
X1929Y80D01*
X1946Y80D02*
X1952Y80D01*
X1973Y80D02*
X1979Y80D01*
X1997Y80D02*
X2005Y80D01*
X2024Y80D02*
X2030Y80D01*
X2802Y80D02*
X2809Y80D01*
X0Y79D02*
X7Y79D01*
X1745Y79D02*
X1751Y79D01*
X1773Y79D02*
X1779Y79D01*
X1795Y79D02*
X1801Y79D01*
X1823Y79D02*
X1829Y79D01*
X1846Y79D02*
X1879Y79D01*
X1923Y79D02*
X1929Y79D01*
X1946Y79D02*
X1952Y79D01*
X1973Y79D02*
X1979Y79D01*
X1998Y79D02*
X2007Y79D01*
X2024Y79D02*
X2030Y79D01*
X2802Y79D02*
X2809Y79D01*
X0Y78D02*
X7Y78D01*
X1745Y78D02*
X1751Y78D01*
X1773Y78D02*
X1779Y78D01*
X1795Y78D02*
X1829Y78D01*
X1847Y78D02*
X1879Y78D01*
X1911Y78D02*
X1929Y78D01*
X1946Y78D02*
X1952Y78D01*
X1973Y78D02*
X1979Y78D01*
X1998Y78D02*
X2030Y78D01*
X2802Y78D02*
X2809Y78D01*
X0Y77D02*
X7Y77D01*
X1745Y77D02*
X1751Y77D01*
X1773Y77D02*
X1779Y77D01*
X1795Y77D02*
X1829Y77D01*
X1873Y77D02*
X1879Y77D01*
X1910Y77D02*
X1929Y77D01*
X1946Y77D02*
X1952Y77D01*
X1973Y77D02*
X1979Y77D01*
X1999Y77D02*
X2030Y77D01*
X2802Y77D02*
X2809Y77D01*
X0Y76D02*
X7Y76D01*
X1745Y76D02*
X1751Y76D01*
X1773Y76D02*
X1779Y76D01*
X1796Y76D02*
X1828Y76D01*
X1873Y76D02*
X1879Y76D01*
X1910Y76D02*
X1929Y76D01*
X1946Y76D02*
X1952Y76D01*
X1973Y76D02*
X1979Y76D01*
X2000Y76D02*
X2030Y76D01*
X2802Y76D02*
X2809Y76D01*
X0Y75D02*
X7Y75D01*
X1745Y75D02*
X1751Y75D01*
X1773Y75D02*
X1779Y75D01*
X1796Y75D02*
X1828Y75D01*
X1873Y75D02*
X1879Y75D01*
X1909Y75D02*
X1929Y75D01*
X1946Y75D02*
X1952Y75D01*
X1973Y75D02*
X1979Y75D01*
X2001Y75D02*
X2030Y75D01*
X2802Y75D02*
X2809Y75D01*
X0Y74D02*
X7Y74D01*
X1745Y74D02*
X1751Y74D01*
X1773Y74D02*
X1779Y74D01*
X1797Y74D02*
X1827Y74D01*
X1873Y74D02*
X1879Y74D01*
X1910Y74D02*
X1929Y74D01*
X1946Y74D02*
X1952Y74D01*
X1973Y74D02*
X1979Y74D01*
X2000Y74D02*
X2030Y74D01*
X2802Y74D02*
X2809Y74D01*
X0Y73D02*
X7Y73D01*
X1745Y73D02*
X1751Y73D01*
X1773Y73D02*
X1779Y73D01*
X1798Y73D02*
X1826Y73D01*
X1873Y73D02*
X1879Y73D01*
X1910Y73D02*
X1929Y73D01*
X1946Y73D02*
X1952Y73D01*
X1973Y73D02*
X1979Y73D01*
X1999Y73D02*
X2030Y73D01*
X2802Y73D02*
X2809Y73D01*
X0Y72D02*
X7Y72D01*
X1745Y72D02*
X1751Y72D01*
X1773Y72D02*
X1779Y72D01*
X1800Y72D02*
X1824Y72D01*
X1873Y72D02*
X1879Y72D01*
X1911Y72D02*
X1929Y72D01*
X1946Y72D02*
X1952Y72D01*
X1961Y72D02*
X1964Y72D01*
X1973Y72D02*
X1979Y72D01*
X1998Y72D02*
X2030Y72D01*
X2802Y72D02*
X2809Y72D01*
X0Y71D02*
X7Y71D01*
X1745Y71D02*
X1751Y71D01*
X1773Y71D02*
X1779Y71D01*
X1802Y71D02*
X1808Y71D01*
X1816Y71D02*
X1822Y71D01*
X1873Y71D02*
X1879Y71D01*
X1923Y71D02*
X1929Y71D01*
X1946Y71D02*
X1952Y71D01*
X1960Y71D02*
X1965Y71D01*
X1973Y71D02*
X1979Y71D01*
X1998Y71D02*
X2006Y71D01*
X2024Y71D02*
X2030Y71D01*
X2802Y71D02*
X2809Y71D01*
X0Y70D02*
X7Y70D01*
X1745Y70D02*
X1751Y70D01*
X1773Y70D02*
X1779Y70D01*
X1802Y70D02*
X1808Y70D01*
X1816Y70D02*
X1822Y70D01*
X1873Y70D02*
X1879Y70D01*
X1923Y70D02*
X1929Y70D01*
X1946Y70D02*
X1952Y70D01*
X1960Y70D02*
X1965Y70D01*
X1973Y70D02*
X1979Y70D01*
X1997Y70D02*
X2005Y70D01*
X2024Y70D02*
X2030Y70D01*
X2802Y70D02*
X2809Y70D01*
X0Y69D02*
X7Y69D01*
X1745Y69D02*
X1751Y69D01*
X1773Y69D02*
X1779Y69D01*
X1802Y69D02*
X1808Y69D01*
X1816Y69D02*
X1822Y69D01*
X1873Y69D02*
X1879Y69D01*
X1923Y69D02*
X1929Y69D01*
X1946Y69D02*
X1952Y69D01*
X1960Y69D02*
X1966Y69D01*
X1973Y69D02*
X1979Y69D01*
X1997Y69D02*
X2004Y69D01*
X2024Y69D02*
X2030Y69D01*
X2802Y69D02*
X2809Y69D01*
X0Y68D02*
X7Y68D01*
X1745Y68D02*
X1751Y68D01*
X1773Y68D02*
X1779Y68D01*
X1802Y68D02*
X1808Y68D01*
X1816Y68D02*
X1822Y68D01*
X1873Y68D02*
X1879Y68D01*
X1923Y68D02*
X1929Y68D01*
X1946Y68D02*
X1952Y68D01*
X1960Y68D02*
X1966Y68D01*
X1973Y68D02*
X1979Y68D01*
X1996Y68D02*
X2003Y68D01*
X2024Y68D02*
X2030Y68D01*
X2802Y68D02*
X2809Y68D01*
X0Y67D02*
X7Y67D01*
X1745Y67D02*
X1751Y67D01*
X1773Y67D02*
X1779Y67D01*
X1802Y67D02*
X1808Y67D01*
X1816Y67D02*
X1822Y67D01*
X1873Y67D02*
X1879Y67D01*
X1923Y67D02*
X1929Y67D01*
X1946Y67D02*
X1952Y67D01*
X1959Y67D02*
X1966Y67D01*
X1973Y67D02*
X1979Y67D01*
X1996Y67D02*
X2002Y67D01*
X2024Y67D02*
X2030Y67D01*
X2802Y67D02*
X2809Y67D01*
X0Y66D02*
X7Y66D01*
X1745Y66D02*
X1751Y66D01*
X1773Y66D02*
X1779Y66D01*
X1802Y66D02*
X1808Y66D01*
X1816Y66D02*
X1822Y66D01*
X1873Y66D02*
X1879Y66D01*
X1923Y66D02*
X1929Y66D01*
X1946Y66D02*
X1952Y66D01*
X1959Y66D02*
X1967Y66D01*
X1973Y66D02*
X1979Y66D01*
X1996Y66D02*
X2002Y66D01*
X2024Y66D02*
X2030Y66D01*
X2802Y66D02*
X2809Y66D01*
X0Y65D02*
X7Y65D01*
X1745Y65D02*
X1751Y65D01*
X1773Y65D02*
X1779Y65D01*
X1802Y65D02*
X1808Y65D01*
X1816Y65D02*
X1822Y65D01*
X1873Y65D02*
X1879Y65D01*
X1923Y65D02*
X1929Y65D01*
X1946Y65D02*
X1952Y65D01*
X1958Y65D02*
X1967Y65D01*
X1973Y65D02*
X1979Y65D01*
X1996Y65D02*
X2002Y65D01*
X2024Y65D02*
X2030Y65D01*
X2802Y65D02*
X2809Y65D01*
X0Y64D02*
X7Y64D01*
X1745Y64D02*
X1751Y64D01*
X1773Y64D02*
X1779Y64D01*
X1802Y64D02*
X1808Y64D01*
X1816Y64D02*
X1822Y64D01*
X1873Y64D02*
X1879Y64D01*
X1923Y64D02*
X1929Y64D01*
X1946Y64D02*
X1952Y64D01*
X1957Y64D02*
X1968Y64D01*
X1973Y64D02*
X1979Y64D01*
X1996Y64D02*
X2002Y64D01*
X2024Y64D02*
X2030Y64D01*
X2802Y64D02*
X2809Y64D01*
X0Y63D02*
X7Y63D01*
X1745Y63D02*
X1751Y63D01*
X1773Y63D02*
X1779Y63D01*
X1802Y63D02*
X1808Y63D01*
X1816Y63D02*
X1822Y63D01*
X1873Y63D02*
X1879Y63D01*
X1923Y63D02*
X1929Y63D01*
X1946Y63D02*
X1952Y63D01*
X1957Y63D02*
X1969Y63D01*
X1973Y63D02*
X1979Y63D01*
X1996Y63D02*
X2002Y63D01*
X2024Y63D02*
X2030Y63D01*
X2802Y63D02*
X2809Y63D01*
X0Y62D02*
X7Y62D01*
X1745Y62D02*
X1751Y62D01*
X1773Y62D02*
X1779Y62D01*
X1802Y62D02*
X1808Y62D01*
X1816Y62D02*
X1822Y62D01*
X1873Y62D02*
X1879Y62D01*
X1923Y62D02*
X1929Y62D01*
X1946Y62D02*
X1952Y62D01*
X1956Y62D02*
X1969Y62D01*
X1973Y62D02*
X1979Y62D01*
X1996Y62D02*
X2002Y62D01*
X2024Y62D02*
X2030Y62D01*
X2802Y62D02*
X2809Y62D01*
X0Y61D02*
X7Y61D01*
X1745Y61D02*
X1751Y61D01*
X1773Y61D02*
X1779Y61D01*
X1802Y61D02*
X1808Y61D01*
X1816Y61D02*
X1822Y61D01*
X1873Y61D02*
X1879Y61D01*
X1923Y61D02*
X1929Y61D01*
X1946Y61D02*
X1952Y61D01*
X1955Y61D02*
X1970Y61D01*
X1973Y61D02*
X1979Y61D01*
X1996Y61D02*
X2002Y61D01*
X2024Y61D02*
X2030Y61D01*
X2802Y61D02*
X2809Y61D01*
X0Y60D02*
X7Y60D01*
X1745Y60D02*
X1751Y60D01*
X1773Y60D02*
X1779Y60D01*
X1802Y60D02*
X1808Y60D01*
X1816Y60D02*
X1822Y60D01*
X1873Y60D02*
X1879Y60D01*
X1923Y60D02*
X1929Y60D01*
X1946Y60D02*
X1952Y60D01*
X1954Y60D02*
X1971Y60D01*
X1973Y60D02*
X1979Y60D01*
X1996Y60D02*
X2002Y60D01*
X2024Y60D02*
X2030Y60D01*
X2802Y60D02*
X2809Y60D01*
X0Y59D02*
X7Y59D01*
X1745Y59D02*
X1751Y59D01*
X1773Y59D02*
X1779Y59D01*
X1802Y59D02*
X1808Y59D01*
X1816Y59D02*
X1822Y59D01*
X1873Y59D02*
X1879Y59D01*
X1923Y59D02*
X1929Y59D01*
X1946Y59D02*
X1952Y59D01*
X1954Y59D02*
X1961Y59D01*
X1964Y59D02*
X1979Y59D01*
X1996Y59D02*
X2003Y59D01*
X2024Y59D02*
X2030Y59D01*
X2802Y59D02*
X2809Y59D01*
X0Y58D02*
X7Y58D01*
X1745Y58D02*
X1751Y58D01*
X1773Y58D02*
X1779Y58D01*
X1802Y58D02*
X1808Y58D01*
X1816Y58D02*
X1822Y58D01*
X1873Y58D02*
X1879Y58D01*
X1923Y58D02*
X1929Y58D01*
X1946Y58D02*
X1961Y58D01*
X1965Y58D02*
X1979Y58D01*
X1997Y58D02*
X2003Y58D01*
X2024Y58D02*
X2030Y58D01*
X2802Y58D02*
X2809Y58D01*
X0Y57D02*
X7Y57D01*
X1745Y57D02*
X1751Y57D01*
X1773Y57D02*
X1779Y57D01*
X1802Y57D02*
X1808Y57D01*
X1816Y57D02*
X1822Y57D01*
X1873Y57D02*
X1879Y57D01*
X1923Y57D02*
X1929Y57D01*
X1946Y57D02*
X1960Y57D01*
X1965Y57D02*
X1979Y57D01*
X1997Y57D02*
X2004Y57D01*
X2024Y57D02*
X2030Y57D01*
X2802Y57D02*
X2809Y57D01*
X0Y56D02*
X7Y56D01*
X1745Y56D02*
X1751Y56D01*
X1773Y56D02*
X1779Y56D01*
X1802Y56D02*
X1808Y56D01*
X1816Y56D02*
X1822Y56D01*
X1873Y56D02*
X1879Y56D01*
X1923Y56D02*
X1929Y56D01*
X1946Y56D02*
X1959Y56D01*
X1966Y56D02*
X1979Y56D01*
X1997Y56D02*
X2006Y56D01*
X2024Y56D02*
X2030Y56D01*
X2802Y56D02*
X2809Y56D01*
X0Y55D02*
X7Y55D01*
X1745Y55D02*
X1779Y55D01*
X1802Y55D02*
X1822Y55D01*
X1873Y55D02*
X1879Y55D01*
X1899Y55D02*
X1929Y55D01*
X1946Y55D02*
X1958Y55D01*
X1967Y55D02*
X1979Y55D01*
X1998Y55D02*
X2030Y55D01*
X2802Y55D02*
X2809Y55D01*
X0Y54D02*
X7Y54D01*
X1745Y54D02*
X1778Y54D01*
X1802Y54D02*
X1822Y54D01*
X1871Y54D02*
X1879Y54D01*
X1897Y54D02*
X1929Y54D01*
X1946Y54D02*
X1958Y54D01*
X1967Y54D02*
X1979Y54D01*
X1999Y54D02*
X2030Y54D01*
X2802Y54D02*
X2809Y54D01*
X0Y53D02*
X7Y53D01*
X1745Y53D02*
X1778Y53D01*
X1802Y53D02*
X1822Y53D01*
X1870Y53D02*
X1879Y53D01*
X1896Y53D02*
X1929Y53D01*
X1946Y53D02*
X1957Y53D01*
X1968Y53D02*
X1979Y53D01*
X1999Y53D02*
X2030Y53D01*
X2802Y53D02*
X2809Y53D01*
X0Y52D02*
X7Y52D01*
X1746Y52D02*
X1778Y52D01*
X1802Y52D02*
X1822Y52D01*
X1870Y52D02*
X1879Y52D01*
X1896Y52D02*
X1929Y52D01*
X1946Y52D02*
X1956Y52D01*
X1969Y52D02*
X1979Y52D01*
X2000Y52D02*
X2030Y52D01*
X2802Y52D02*
X2809Y52D01*
X0Y51D02*
X7Y51D01*
X1746Y51D02*
X1777Y51D01*
X1802Y51D02*
X1822Y51D01*
X1870Y51D02*
X1879Y51D01*
X1896Y51D02*
X1929Y51D01*
X1946Y51D02*
X1956Y51D01*
X1970Y51D02*
X1979Y51D01*
X2002Y51D02*
X2030Y51D01*
X2802Y51D02*
X2809Y51D01*
X0Y50D02*
X7Y50D01*
X1747Y50D02*
X1776Y50D01*
X1803Y50D02*
X1821Y50D01*
X1870Y50D02*
X1879Y50D01*
X1896Y50D02*
X1929Y50D01*
X1946Y50D02*
X1955Y50D01*
X1970Y50D02*
X1979Y50D01*
X2003Y50D02*
X2030Y50D01*
X2802Y50D02*
X2809Y50D01*
X0Y49D02*
X7Y49D01*
X1749Y49D02*
X1775Y49D01*
X1803Y49D02*
X1821Y49D01*
X1871Y49D02*
X1878Y49D01*
X1897Y49D02*
X1929Y49D01*
X1946Y49D02*
X1954Y49D01*
X1971Y49D02*
X1979Y49D01*
X2005Y49D02*
X2030Y49D01*
X2802Y49D02*
X2809Y49D01*
X0Y48D02*
X7Y48D01*
X2802Y48D02*
X2809Y48D01*
X0Y47D02*
X7Y47D01*
X2802Y47D02*
X2809Y47D01*
X0Y46D02*
X7Y46D01*
X2802Y46D02*
X2809Y46D01*
X0Y45D02*
X7Y45D01*
X2802Y45D02*
X2809Y45D01*
X0Y44D02*
X7Y44D01*
X2802Y44D02*
X2809Y44D01*
X0Y43D02*
X7Y43D01*
X2802Y43D02*
X2809Y43D01*
X0Y42D02*
X7Y42D01*
X2802Y42D02*
X2809Y42D01*
X0Y41D02*
X7Y41D01*
X2802Y41D02*
X2809Y41D01*
X0Y40D02*
X7Y40D01*
X2802Y40D02*
X2809Y40D01*
X0Y39D02*
X7Y39D01*
X2802Y39D02*
X2809Y39D01*
X0Y38D02*
X7Y38D01*
X2802Y38D02*
X2809Y38D01*
X0Y37D02*
X7Y37D01*
X2802Y37D02*
X2809Y37D01*
X0Y36D02*
X7Y36D01*
X2802Y36D02*
X2809Y36D01*
X0Y35D02*
X7Y35D01*
X2802Y35D02*
X2809Y35D01*
X0Y34D02*
X7Y34D01*
X2802Y34D02*
X2809Y34D01*
X0Y33D02*
X7Y33D01*
X2802Y33D02*
X2809Y33D01*
X0Y32D02*
X7Y32D01*
X2802Y32D02*
X2809Y32D01*
X0Y31D02*
X7Y31D01*
X2802Y31D02*
X2809Y31D01*
X0Y30D02*
X7Y30D01*
X2802Y30D02*
X2809Y30D01*
X0Y29D02*
X7Y29D01*
X2802Y29D02*
X2809Y29D01*
X0Y28D02*
X7Y28D01*
X2802Y28D02*
X2809Y28D01*
X0Y27D02*
X7Y27D01*
X2802Y27D02*
X2809Y27D01*
X0Y26D02*
X7Y26D01*
X2802Y26D02*
X2809Y26D01*
X0Y25D02*
X7Y25D01*
X2802Y25D02*
X2809Y25D01*
X0Y24D02*
X7Y24D01*
X2802Y24D02*
X2809Y24D01*
X0Y23D02*
X7Y23D01*
X2802Y23D02*
X2809Y23D01*
X0Y22D02*
X7Y22D01*
X2802Y22D02*
X2809Y22D01*
X0Y21D02*
X7Y21D01*
X2802Y21D02*
X2809Y21D01*
X0Y20D02*
X7Y20D01*
X2802Y20D02*
X2809Y20D01*
X0Y19D02*
X7Y19D01*
X2802Y19D02*
X2809Y19D01*
X0Y18D02*
X7Y18D01*
X2802Y18D02*
X2809Y18D01*
X0Y17D02*
X7Y17D01*
X2802Y17D02*
X2809Y17D01*
X0Y16D02*
X7Y16D01*
X2802Y16D02*
X2809Y16D01*
X0Y15D02*
X7Y15D01*
X2802Y15D02*
X2809Y15D01*
X0Y14D02*
X7Y14D01*
X2802Y14D02*
X2809Y14D01*
X0Y13D02*
X7Y13D01*
X2802Y13D02*
X2809Y13D01*
X0Y12D02*
X7Y12D01*
X2802Y12D02*
X2809Y12D01*
X0Y11D02*
X7Y11D01*
X2802Y11D02*
X2809Y11D01*
X0Y10D02*
X7Y10D01*
X2802Y10D02*
X2809Y10D01*
X0Y9D02*
X2809Y9D01*
X0Y8D02*
X2809Y8D01*
X0Y7D02*
X2809Y7D01*
X0Y6D02*
X2809Y6D01*
X0Y5D02*
X2809Y5D01*
X0Y4D02*
X2809Y4D01*
X0Y3D02*
X2809Y3D01*
X0Y2D02*
X2809Y2D01*
D02*
G04 End of Silk1*
M02*