G04 MADE WITH FRITZING*
G04 WWW.FRITZING.ORG*
G04 DOUBLE SIDED*
G04 HOLES PLATED*
G04 CONTOUR ON CENTER OF CONTOUR VECTOR*
%ASAXBY*%
%FSLAX23Y23*%
%MOIN*%
%OFA0B0*%
%SFA1.0B1.0*%
%ADD10C,0.136614*%
%ADD11C,0.080000*%
%ADD12C,0.105000*%
%ADD13C,0.159999*%
%ADD14C,0.061496*%
%ADD15C,0.085000*%
%ADD16R,0.105000X0.105000*%
%ADD17R,0.001000X0.001000*%
%LNMASK0*%
G90*
G70*
G54D10*
X2164Y701D03*
G54D11*
X2614Y151D03*
X2614Y251D03*
X2614Y351D03*
X2614Y451D03*
X2614Y551D03*
X2614Y651D03*
X2614Y751D03*
G54D10*
X2164Y201D03*
G54D11*
X1014Y951D03*
X1114Y151D03*
X314Y151D03*
X1814Y951D03*
G54D12*
X164Y410D03*
G54D11*
X714Y151D03*
X1514Y151D03*
X1414Y951D03*
G54D13*
X164Y901D03*
G54D11*
X514Y151D03*
X914Y151D03*
X1314Y151D03*
X1714Y151D03*
X1614Y951D03*
X1214Y951D03*
X814Y951D03*
G54D14*
X274Y422D03*
G54D11*
X414Y151D03*
X614Y151D03*
X814Y151D03*
X1014Y151D03*
X1214Y151D03*
X1414Y151D03*
X1614Y151D03*
X1814Y151D03*
X1714Y951D03*
X1514Y951D03*
X1314Y951D03*
X1114Y951D03*
X914Y951D03*
X714Y951D03*
G54D13*
X164Y201D03*
G54D14*
X274Y681D03*
G54D12*
X164Y693D03*
G54D15*
X2714Y1074D03*
X2458Y1074D03*
X2714Y1251D03*
X2458Y1251D03*
X1614Y851D03*
X1614Y451D03*
G54D16*
X164Y410D03*
X164Y693D03*
G54D17*
X248Y728D02*
X299Y728D01*
X248Y727D02*
X299Y727D01*
X248Y726D02*
X299Y726D01*
X248Y725D02*
X299Y725D01*
X248Y724D02*
X299Y724D01*
X248Y723D02*
X299Y723D01*
X248Y722D02*
X299Y722D01*
X248Y721D02*
X299Y721D01*
X248Y720D02*
X299Y720D01*
X248Y719D02*
X299Y719D01*
X248Y718D02*
X299Y718D01*
X248Y717D02*
X299Y717D01*
X248Y716D02*
X299Y716D01*
X248Y715D02*
X299Y715D01*
X248Y714D02*
X299Y714D01*
X248Y713D02*
X299Y713D01*
X248Y712D02*
X299Y712D01*
X248Y711D02*
X299Y711D01*
X248Y710D02*
X299Y710D01*
X248Y709D02*
X299Y709D01*
X248Y708D02*
X299Y708D01*
X248Y707D02*
X299Y707D01*
X248Y706D02*
X299Y706D01*
X248Y705D02*
X299Y705D01*
X248Y704D02*
X299Y704D01*
X248Y703D02*
X299Y703D01*
X248Y702D02*
X299Y702D01*
X248Y701D02*
X299Y701D01*
X248Y700D02*
X299Y700D01*
X248Y699D02*
X299Y699D01*
X248Y698D02*
X270Y698D01*
X277Y698D02*
X299Y698D01*
X248Y697D02*
X267Y697D01*
X280Y697D02*
X299Y697D01*
X248Y696D02*
X265Y696D01*
X282Y696D02*
X299Y696D01*
X248Y695D02*
X264Y695D01*
X284Y695D02*
X299Y695D01*
X248Y694D02*
X262Y694D01*
X285Y694D02*
X299Y694D01*
X248Y693D02*
X261Y693D01*
X286Y693D02*
X299Y693D01*
X248Y692D02*
X261Y692D01*
X287Y692D02*
X299Y692D01*
X248Y691D02*
X260Y691D01*
X287Y691D02*
X299Y691D01*
X248Y690D02*
X259Y690D01*
X288Y690D02*
X299Y690D01*
X248Y689D02*
X259Y689D01*
X288Y689D02*
X299Y689D01*
X248Y688D02*
X258Y688D01*
X289Y688D02*
X299Y688D01*
X248Y687D02*
X258Y687D01*
X289Y687D02*
X299Y687D01*
X248Y686D02*
X258Y686D01*
X289Y686D02*
X299Y686D01*
X248Y685D02*
X258Y685D01*
X289Y685D02*
X299Y685D01*
X248Y684D02*
X258Y684D01*
X289Y684D02*
X299Y684D01*
X248Y683D02*
X258Y683D01*
X289Y683D02*
X299Y683D01*
X248Y682D02*
X258Y682D01*
X289Y682D02*
X299Y682D01*
X248Y681D02*
X258Y681D01*
X289Y681D02*
X299Y681D01*
X248Y680D02*
X258Y680D01*
X289Y680D02*
X299Y680D01*
X248Y679D02*
X258Y679D01*
X289Y679D02*
X299Y679D01*
X248Y678D02*
X258Y678D01*
X289Y678D02*
X299Y678D01*
X248Y677D02*
X258Y677D01*
X289Y677D02*
X299Y677D01*
X248Y676D02*
X259Y676D01*
X288Y676D02*
X299Y676D01*
X248Y675D02*
X259Y675D01*
X288Y675D02*
X299Y675D01*
X248Y674D02*
X260Y674D01*
X287Y674D02*
X299Y674D01*
X248Y673D02*
X260Y673D01*
X287Y673D02*
X299Y673D01*
X248Y672D02*
X261Y672D01*
X286Y672D02*
X299Y672D01*
X248Y671D02*
X262Y671D01*
X285Y671D02*
X299Y671D01*
X248Y670D02*
X263Y670D01*
X284Y670D02*
X299Y670D01*
X248Y669D02*
X265Y669D01*
X282Y669D02*
X299Y669D01*
X248Y668D02*
X267Y668D01*
X280Y668D02*
X299Y668D01*
X248Y667D02*
X299Y667D01*
X248Y666D02*
X299Y666D01*
X248Y665D02*
X299Y665D01*
X248Y664D02*
X299Y664D01*
X248Y663D02*
X299Y663D01*
X248Y662D02*
X299Y662D01*
X248Y661D02*
X299Y661D01*
X248Y660D02*
X299Y660D01*
X248Y659D02*
X299Y659D01*
X248Y658D02*
X299Y658D01*
X248Y657D02*
X299Y657D01*
X248Y448D02*
X299Y448D01*
X248Y447D02*
X299Y447D01*
X248Y446D02*
X299Y446D01*
X248Y445D02*
X299Y445D01*
X248Y444D02*
X299Y444D01*
X248Y443D02*
X299Y443D01*
X248Y442D02*
X299Y442D01*
X248Y441D02*
X299Y441D01*
X248Y440D02*
X299Y440D01*
X248Y439D02*
X299Y439D01*
X248Y438D02*
X269Y438D01*
X278Y438D02*
X299Y438D01*
X248Y437D02*
X266Y437D01*
X281Y437D02*
X299Y437D01*
X248Y436D02*
X264Y436D01*
X283Y436D02*
X299Y436D01*
X248Y435D02*
X263Y435D01*
X284Y435D02*
X299Y435D01*
X248Y434D02*
X262Y434D01*
X285Y434D02*
X299Y434D01*
X248Y433D02*
X261Y433D01*
X286Y433D02*
X299Y433D01*
X248Y432D02*
X260Y432D01*
X287Y432D02*
X299Y432D01*
X248Y431D02*
X260Y431D01*
X287Y431D02*
X299Y431D01*
X248Y430D02*
X259Y430D01*
X288Y430D02*
X299Y430D01*
X248Y429D02*
X258Y429D01*
X289Y429D02*
X299Y429D01*
X248Y428D02*
X258Y428D01*
X289Y428D02*
X299Y428D01*
X248Y427D02*
X258Y427D01*
X289Y427D02*
X299Y427D01*
X248Y426D02*
X258Y426D01*
X289Y426D02*
X299Y426D01*
X248Y425D02*
X258Y425D01*
X289Y425D02*
X299Y425D01*
X248Y424D02*
X258Y424D01*
X289Y424D02*
X299Y424D01*
X248Y423D02*
X258Y423D01*
X289Y423D02*
X299Y423D01*
X248Y422D02*
X258Y422D01*
X289Y422D02*
X299Y422D01*
X248Y421D02*
X258Y421D01*
X289Y421D02*
X299Y421D01*
X248Y420D02*
X258Y420D01*
X289Y420D02*
X299Y420D01*
X248Y419D02*
X258Y419D01*
X289Y419D02*
X299Y419D01*
X248Y418D02*
X258Y418D01*
X289Y418D02*
X299Y418D01*
X248Y417D02*
X258Y417D01*
X289Y417D02*
X299Y417D01*
X248Y416D02*
X259Y416D01*
X288Y416D02*
X299Y416D01*
X248Y415D02*
X259Y415D01*
X288Y415D02*
X299Y415D01*
X248Y414D02*
X260Y414D01*
X287Y414D02*
X299Y414D01*
X248Y413D02*
X261Y413D01*
X286Y413D02*
X299Y413D01*
X248Y412D02*
X262Y412D01*
X285Y412D02*
X299Y412D01*
X248Y411D02*
X263Y411D01*
X284Y411D02*
X299Y411D01*
X248Y410D02*
X264Y410D01*
X283Y410D02*
X299Y410D01*
X248Y409D02*
X265Y409D01*
X282Y409D02*
X299Y409D01*
X248Y408D02*
X267Y408D01*
X280Y408D02*
X299Y408D01*
X248Y407D02*
X299Y407D01*
X248Y406D02*
X299Y406D01*
X248Y405D02*
X299Y405D01*
X248Y404D02*
X299Y404D01*
X248Y403D02*
X299Y403D01*
X248Y402D02*
X299Y402D01*
X248Y401D02*
X299Y401D01*
X248Y400D02*
X299Y400D01*
X248Y399D02*
X299Y399D01*
X248Y398D02*
X299Y398D01*
X248Y397D02*
X299Y397D01*
X248Y396D02*
X299Y396D01*
X248Y395D02*
X299Y395D01*
X248Y394D02*
X299Y394D01*
X248Y393D02*
X299Y393D01*
X248Y392D02*
X299Y392D01*
X248Y391D02*
X299Y391D01*
X248Y390D02*
X299Y390D01*
X248Y389D02*
X299Y389D01*
X248Y388D02*
X299Y388D01*
X248Y387D02*
X299Y387D01*
X248Y386D02*
X299Y386D01*
X248Y385D02*
X299Y385D01*
X248Y384D02*
X299Y384D01*
X248Y383D02*
X299Y383D01*
X248Y382D02*
X299Y382D01*
X248Y381D02*
X299Y381D01*
X248Y380D02*
X299Y380D01*
X248Y379D02*
X299Y379D01*
X248Y378D02*
X299Y378D01*
X248Y377D02*
X299Y377D01*
D02*
G04 End of Mask0*
M02*