; NON-PLATED HOLES START AT T1
; THROUGH (PLATED) HOLES START AT T100
M48
INCH
T100C0.035000
T101C0.035433
T102C0.039370
T103C0.086614
T104C0.098425
T105C0.031496
%
T100
X027135Y010742
X016135Y008514
X027135Y012514
X016135Y004514
X024576Y010742
X024576Y012514
T101
X001637Y004096
X001637Y006931
T102
X026135Y001514
X026135Y006514
X005136Y001514
X003136Y001514
X026135Y004514
X006136Y001514
X004136Y001514
X026135Y002514
X012136Y001514
X010136Y001514
X017136Y001514
X013136Y001514
X015136Y001514
X011136Y001514
X026135Y007514
X009135Y001514
X007135Y001514
X018136Y001514
X016136Y001514
X014136Y001514
X008135Y001514
X026135Y005514
X012136Y009514
X010136Y009514
X011136Y009514
X013136Y009514
X015136Y009514
X017136Y009514
X007135Y009514
X009135Y009514
X016136Y009514
X014136Y009514
X018136Y009514
X026135Y003514
X008135Y009514
T103
X021635Y002014
X021635Y007014
T104
X001636Y009014
X001636Y002014
T105
X002740Y006813
X002740Y004215
T00
M30
