G04 MADE WITH FRITZING*
G04 WWW.FRITZING.ORG*
G04 DOUBLE SIDED*
G04 HOLES PLATED*
G04 CONTOUR ON CENTER OF CONTOUR VECTOR*
%ASAXBY*%
%FSLAX23Y23*%
%MOIN*%
%OFA0B0*%
%SFA1.0B1.0*%
%ADD10C,0.126614*%
%ADD11C,0.070000*%
%ADD12C,0.095000*%
%ADD13C,0.149999*%
%ADD14C,0.051496*%
%ADD15C,0.075000*%
%ADD16R,0.095000X0.095000*%
%ADD17C,0.024000*%
%ADD18R,0.001000X0.001000*%
%LNCOPPER0*%
G90*
G70*
G54D10*
X2164Y701D03*
G54D11*
X2614Y151D03*
X2614Y251D03*
X2614Y351D03*
X2614Y451D03*
X2614Y551D03*
X2614Y651D03*
X2614Y751D03*
G54D10*
X2164Y201D03*
G54D11*
X1014Y951D03*
X1114Y151D03*
X314Y151D03*
X1814Y951D03*
G54D12*
X164Y410D03*
G54D11*
X714Y151D03*
X1514Y151D03*
X1414Y951D03*
G54D13*
X164Y901D03*
G54D11*
X514Y151D03*
X914Y151D03*
X1314Y151D03*
X1714Y151D03*
X1614Y951D03*
X1214Y951D03*
X814Y951D03*
G54D14*
X274Y422D03*
G54D11*
X414Y151D03*
X614Y151D03*
X814Y151D03*
X1014Y151D03*
X1214Y151D03*
X1414Y151D03*
X1614Y151D03*
X1814Y151D03*
X1714Y951D03*
X1514Y951D03*
X1314Y951D03*
X1114Y951D03*
X914Y951D03*
X714Y951D03*
G54D13*
X164Y201D03*
G54D14*
X274Y681D03*
G54D12*
X164Y693D03*
G54D15*
X2714Y1074D03*
X2458Y1074D03*
X2714Y1251D03*
X2458Y1251D03*
X1614Y851D03*
X1614Y451D03*
G54D16*
X164Y410D03*
X164Y693D03*
G54D17*
X2115Y350D02*
X2583Y351D01*
D02*
X714Y253D02*
X2014Y253D01*
D02*
X2014Y253D02*
X2115Y350D01*
D02*
X435Y173D02*
X513Y253D01*
D02*
X635Y173D02*
X714Y253D01*
D02*
X613Y253D02*
X714Y350D01*
D02*
X513Y253D02*
X613Y253D01*
D02*
X1514Y350D02*
X1593Y431D01*
D02*
X714Y350D02*
X1514Y350D01*
D02*
X1715Y851D02*
X2115Y451D01*
D02*
X2115Y451D02*
X2588Y451D01*
D02*
X1714Y926D02*
X1715Y851D01*
D02*
X1813Y851D02*
X2115Y552D01*
D02*
X2115Y552D02*
X2515Y552D01*
D02*
X1813Y921D02*
X1813Y851D01*
D02*
X2515Y552D02*
X2592Y630D01*
D02*
X1614Y951D02*
X1614Y951D01*
D02*
X2714Y1046D02*
X2714Y451D01*
D02*
X2714Y451D02*
X2636Y373D01*
D02*
X1614Y951D02*
X1644Y951D01*
D02*
X1614Y880D02*
X1614Y951D01*
D02*
X1614Y951D02*
X1644Y951D01*
D02*
X2313Y1250D02*
X2115Y1052D01*
D02*
X2115Y1052D02*
X1715Y1052D01*
D02*
X1715Y1052D02*
X1614Y951D01*
D02*
X2429Y1251D02*
X2313Y1250D01*
D02*
X513Y51D02*
X2515Y51D01*
D02*
X2515Y51D02*
X2592Y130D01*
D02*
X435Y130D02*
X513Y51D01*
G54D18*
X253Y723D02*
X294Y723D01*
X253Y722D02*
X294Y722D01*
X253Y721D02*
X294Y721D01*
X253Y720D02*
X294Y720D01*
X253Y719D02*
X294Y719D01*
X253Y718D02*
X294Y718D01*
X253Y717D02*
X294Y717D01*
X253Y716D02*
X294Y716D01*
X253Y715D02*
X294Y715D01*
X253Y714D02*
X294Y714D01*
X253Y713D02*
X294Y713D01*
X253Y712D02*
X294Y712D01*
X253Y711D02*
X294Y711D01*
X253Y710D02*
X294Y710D01*
X253Y709D02*
X294Y709D01*
X253Y708D02*
X294Y708D01*
X253Y707D02*
X294Y707D01*
X253Y706D02*
X294Y706D01*
X253Y705D02*
X294Y705D01*
X253Y704D02*
X294Y704D01*
X253Y703D02*
X270Y703D01*
X277Y703D02*
X294Y703D01*
X253Y702D02*
X266Y702D01*
X281Y702D02*
X294Y702D01*
X253Y701D02*
X264Y701D01*
X283Y701D02*
X294Y701D01*
X253Y700D02*
X262Y700D01*
X285Y700D02*
X294Y700D01*
X253Y699D02*
X261Y699D01*
X286Y699D02*
X294Y699D01*
X253Y698D02*
X259Y698D01*
X288Y698D02*
X294Y698D01*
X253Y697D02*
X258Y697D01*
X289Y697D02*
X294Y697D01*
X253Y696D02*
X257Y696D01*
X290Y696D02*
X294Y696D01*
X253Y695D02*
X257Y695D01*
X290Y695D02*
X294Y695D01*
X253Y694D02*
X256Y694D01*
X291Y694D02*
X294Y694D01*
X253Y693D02*
X255Y693D01*
X292Y693D02*
X294Y693D01*
X253Y692D02*
X255Y692D01*
X292Y692D02*
X294Y692D01*
X253Y691D02*
X254Y691D01*
X293Y691D02*
X294Y691D01*
X253Y690D02*
X254Y690D01*
X293Y690D02*
X294Y690D01*
X253Y689D02*
X253Y689D01*
X294Y689D02*
X294Y689D01*
X253Y688D02*
X253Y688D01*
X294Y688D02*
X294Y688D01*
X253Y687D02*
X253Y687D01*
X294Y687D02*
X294Y687D01*
X253Y678D02*
X253Y678D01*
X294Y678D02*
X294Y678D01*
X253Y677D02*
X253Y677D01*
X294Y677D02*
X294Y677D01*
X253Y676D02*
X253Y676D01*
X294Y676D02*
X294Y676D01*
X253Y675D02*
X254Y675D01*
X293Y675D02*
X294Y675D01*
X253Y674D02*
X254Y674D01*
X293Y674D02*
X294Y674D01*
X253Y673D02*
X255Y673D01*
X292Y673D02*
X294Y673D01*
X253Y672D02*
X255Y672D01*
X292Y672D02*
X294Y672D01*
X253Y671D02*
X256Y671D01*
X291Y671D02*
X294Y671D01*
X253Y670D02*
X257Y670D01*
X290Y670D02*
X294Y670D01*
X253Y669D02*
X257Y669D01*
X290Y669D02*
X294Y669D01*
X253Y668D02*
X258Y668D01*
X289Y668D02*
X294Y668D01*
X253Y667D02*
X259Y667D01*
X288Y667D02*
X294Y667D01*
X253Y666D02*
X261Y666D01*
X286Y666D02*
X294Y666D01*
X253Y665D02*
X262Y665D01*
X285Y665D02*
X294Y665D01*
X253Y664D02*
X264Y664D01*
X283Y664D02*
X294Y664D01*
X253Y663D02*
X266Y663D01*
X281Y663D02*
X294Y663D01*
X253Y662D02*
X269Y662D01*
X278Y662D02*
X294Y662D01*
X253Y443D02*
X269Y443D01*
X278Y443D02*
X294Y443D01*
X253Y442D02*
X265Y442D01*
X282Y442D02*
X294Y442D01*
X253Y441D02*
X263Y441D01*
X284Y441D02*
X294Y441D01*
X253Y440D02*
X262Y440D01*
X286Y440D02*
X294Y440D01*
X253Y439D02*
X260Y439D01*
X287Y439D02*
X294Y439D01*
X253Y438D02*
X259Y438D01*
X288Y438D02*
X294Y438D01*
X253Y437D02*
X258Y437D01*
X289Y437D02*
X294Y437D01*
X253Y436D02*
X257Y436D01*
X290Y436D02*
X294Y436D01*
X253Y435D02*
X256Y435D01*
X291Y435D02*
X294Y435D01*
X253Y434D02*
X256Y434D01*
X291Y434D02*
X294Y434D01*
X253Y433D02*
X255Y433D01*
X292Y433D02*
X294Y433D01*
X253Y432D02*
X255Y432D01*
X292Y432D02*
X294Y432D01*
X253Y431D02*
X254Y431D01*
X293Y431D02*
X294Y431D01*
X253Y430D02*
X254Y430D01*
X293Y430D02*
X294Y430D01*
X253Y429D02*
X253Y429D01*
X294Y429D02*
X294Y429D01*
X253Y428D02*
X253Y428D01*
X294Y428D02*
X294Y428D01*
X253Y418D02*
X253Y418D01*
X294Y418D02*
X294Y418D01*
X253Y417D02*
X253Y417D01*
X294Y417D02*
X294Y417D01*
X253Y416D02*
X253Y416D01*
X294Y416D02*
X294Y416D01*
X253Y415D02*
X254Y415D01*
X293Y415D02*
X294Y415D01*
X253Y414D02*
X254Y414D01*
X293Y414D02*
X294Y414D01*
X253Y413D02*
X255Y413D01*
X292Y413D02*
X294Y413D01*
X253Y412D02*
X255Y412D01*
X292Y412D02*
X294Y412D01*
X253Y411D02*
X256Y411D01*
X291Y411D02*
X294Y411D01*
X253Y410D02*
X257Y410D01*
X290Y410D02*
X294Y410D01*
X253Y409D02*
X258Y409D01*
X289Y409D02*
X294Y409D01*
X253Y408D02*
X259Y408D01*
X289Y408D02*
X294Y408D01*
X253Y407D02*
X260Y407D01*
X287Y407D02*
X294Y407D01*
X253Y406D02*
X261Y406D01*
X286Y406D02*
X294Y406D01*
X253Y405D02*
X262Y405D01*
X285Y405D02*
X294Y405D01*
X253Y404D02*
X264Y404D01*
X283Y404D02*
X294Y404D01*
X253Y403D02*
X267Y403D01*
X280Y403D02*
X294Y403D01*
X253Y402D02*
X294Y402D01*
X253Y401D02*
X294Y401D01*
X253Y400D02*
X294Y400D01*
X253Y399D02*
X294Y399D01*
X253Y398D02*
X294Y398D01*
X253Y397D02*
X294Y397D01*
X253Y396D02*
X294Y396D01*
X253Y395D02*
X294Y395D01*
X253Y394D02*
X294Y394D01*
X253Y393D02*
X294Y393D01*
X253Y392D02*
X294Y392D01*
X253Y391D02*
X294Y391D01*
X253Y390D02*
X294Y390D01*
X253Y389D02*
X294Y389D01*
X253Y388D02*
X294Y388D01*
X253Y387D02*
X294Y387D01*
X253Y386D02*
X294Y386D01*
X253Y385D02*
X294Y385D01*
X253Y384D02*
X294Y384D01*
X253Y383D02*
X294Y383D01*
X253Y382D02*
X294Y382D01*
D02*
G04 End of Copper0*
M02*